<?xml version="1.0" encoding="UTF-8"?>
<svg version="1.1" xmlns="http://www.w3.org/2000/svg" width="512" height="512">
<path d="M0 0 C1.38860066 0.00051988 2.77720206 -0.00000275 4.165802 -0.00151062 C7.05530997 -0.00142155 9.94453514 0.00888148 12.83398438 0.02709961 C16.5327312 0.04991307 20.23107066 0.05030098 23.9298687 0.04358196 C26.78835663 0.04024009 29.64675196 0.04687404 32.50522232 0.0567112 C33.86954387 0.06055015 35.23387573 0.06171684 36.59820175 0.06012535 C38.50022459 0.05975389 40.40223357 0.07386831 42.30419922 0.08862305 C43.38434296 0.09323044 44.46448669 0.09783783 45.57736206 0.10258484 C48.38932464 0.36388639 50.02148232 0.85349055 52.3828125 2.36328125 C54.4644027 5.03961151 54.37868841 6.48081793 54.2578125 9.92578125 C53.3828125 13.36328125 53.3828125 13.36328125 51.70428467 15.05407715 C48.75066046 16.71978608 46.74888047 16.7415386 43.36425781 16.74804688 C42.14909485 16.75815796 40.93393188 16.76826904 39.6819458 16.77868652 C38.37151306 16.77566528 37.06108032 16.77264404 35.7109375 16.76953125 C34.34575155 16.77877055 32.98057632 16.78974327 31.61541748 16.80236816 C27.28789652 16.83910542 22.96046636 16.85283958 18.6328125 16.86328125 C13.62879251 16.87539786 8.6251929 16.89717738 3.62136078 16.94328308 C1.62744053 16.95675092 -0.3665743 16.95250169 -2.36053467 16.94787598 C-9.18304709 17.0040615 -14.42158857 17.45010655 -20.6171875 20.36328125 C-21.4009375 20.67265625 -22.1846875 20.98203125 -22.9921875 21.30078125 C-25.14099552 22.70577111 -25.66911529 23.99310072 -26.6171875 26.36328125 C-26.95957994 27.08743068 -27.30197237 27.8115801 -27.65474033 28.55767345 C-28.82958303 31.98243061 -28.87790431 34.81878438 -28.89134216 38.44050598 C-28.89657884 39.14150459 -28.90181552 39.84250319 -28.90721089 40.56474417 C-28.92218135 42.90756013 -28.92291538 45.25015712 -28.92358398 47.59301758 C-28.93120747 49.27533841 -28.93963529 50.95765577 -28.94880676 52.63996887 C-28.97074007 57.20618676 -28.9795491 61.77233769 -28.98463321 66.3386023 C-28.98827817 69.19289775 -28.99451896 72.04717569 -29.0016346 74.90146446 C-29.02612506 84.86343531 -29.03918012 94.82535411 -29.04272461 104.78735352 C-29.04635954 114.06633083 -29.07625287 123.3449773 -29.11812919 132.6238535 C-29.15284401 140.5959994 -29.16827326 148.56803572 -29.16897064 156.54025668 C-29.16976305 161.29916568 -29.17848511 166.05773761 -29.20696831 170.81656837 C-29.2331694 175.29418316 -29.23534291 179.77118188 -29.21931267 184.24883842 C-29.21749979 185.88869191 -29.2241744 187.528581 -29.24013138 189.16835785 C-29.5377657 201.25540514 -29.5377657 201.25540514 -23.6171875 211.36328125 C-18.95545614 214.99943171 -15.35650744 216.44319316 -9.51171875 216.6796875 C-8.52880859 216.72158203 -7.54589844 216.76347656 -6.53320312 216.80664062 C-5.50904297 216.84595703 -4.48488281 216.88527344 -3.4296875 216.92578125 C-1.87604492 216.99055664 -1.87604492 216.99055664 -0.29101562 217.05664062 C2.2667944 217.16272491 4.82470095 217.26478271 7.3828125 217.36328125 C7.37615067 216.76272919 7.36948883 216.16217712 7.36262512 215.54342651 C7.29615172 209.28160974 7.25096203 203.01989355 7.21801758 196.7578125 C7.20294989 194.42215909 7.18249201 192.08653388 7.15649414 189.75097656 C7.12002292 186.38990306 7.1030656 183.02920433 7.08984375 179.66796875 C7.07435989 178.62712128 7.05887604 177.5862738 7.04292297 176.5138855 C7.04166357 171.06389483 7.20282761 167.02622825 10.3828125 162.36328125 C13.22622581 160.9415746 15.62126312 161.2338012 18.80221367 161.22906017 C19.47191895 161.22670794 20.14162423 161.22435571 20.83162361 161.2219322 C23.09779721 161.21522318 25.36391372 161.21570099 27.63009644 161.21611023 C29.26239361 161.2128128 30.89468998 161.20908749 32.52698529 161.20496875 C37.02976859 161.1949271 41.53253857 161.1912285 46.03533149 161.18857944 C50.88477635 161.18468286 55.73421058 161.17510418 60.58364868 161.16636658 C72.30262124 161.14658521 84.02159469 161.13653444 95.74057978 161.12763879 C101.2540163 161.12325916 106.76745185 161.11789156 112.2808876 161.11264992 C130.5991871 161.09563697 148.91748598 161.08114116 167.23579216 161.07390118 C171.99166744 161.07199117 176.74754271 161.07007085 181.50341797 161.06811523 C183.27657278 161.06738962 183.27657278 161.06738962 185.08554889 161.06664935 C204.24953374 161.05834296 223.41345628 161.03299606 242.5774139 161.00053456 C262.23519352 160.96750692 281.89294142 160.94945636 301.55074894 160.94625694 C312.59501769 160.94408799 323.63919557 160.93528318 334.68343735 160.90979576 C344.08601208 160.88814747 353.48847388 160.88000933 362.89107071 160.88976254 C367.6915501 160.89432418 372.49179618 160.89231344 377.29224396 160.8730011 C381.68294419 160.85548908 386.07323884 160.85626887 390.46394266 160.87189839 C392.0561422 160.87429277 393.64836895 160.86985709 395.24052666 160.85806974 C397.39809392 160.84308012 399.55419979 160.85253093 401.71172905 160.86829662 C402.91208003 160.86731981 404.11243101 160.86634301 405.34915626 160.8653366 C409.00980276 161.4661955 410.15879705 162.44862704 412.3828125 165.36328125 C413.35920681 168.29246418 413.50417431 170.15353863 413.49633789 173.2019043 C413.49626236 174.18269455 413.49618683 175.1634848 413.49610901 176.17399597 C413.49094772 177.2303273 413.48578644 178.28665863 413.48046875 179.375 C413.47834633 181.00004204 413.47834633 181.00004204 413.47618103 182.65791321 C413.47057809 186.1222305 413.45802508 189.58648345 413.4453125 193.05078125 C413.44029788 195.39778553 413.43573491 197.74479081 413.43164062 200.09179688 C413.42060771 205.84898033 413.4038667 211.60612619 413.3828125 217.36328125 C416.88398093 217.31089018 420.38277847 217.21569955 423.8828125 217.11328125 C424.86507813 217.09910156 425.84734375 217.08492187 426.859375 217.0703125 C434.49157649 216.81590578 440.37789168 215.5263558 445.7578125 209.86328125 C448.85714738 205.09507373 449.63403818 202.19148174 449.64350891 196.39285278 C449.64733446 195.69129747 449.65116001 194.98974216 449.65510148 194.2669276 C449.66541956 191.91631951 449.66144164 189.56595622 449.6574707 187.21533203 C449.66181787 185.5299151 449.66700104 183.84450015 449.67295837 182.15908813 C449.68635993 177.58053352 449.6869257 173.00206141 449.68439507 168.423491 C449.68332602 164.60141423 449.68820711 160.77935419 449.6930005 156.95728099 C449.70409995 147.93976967 449.7045308 138.92230001 449.69848633 129.90478516 C449.69244687 120.60258434 449.70475583 111.3005348 449.7260564 101.9983598 C449.7436718 94.01182978 449.7496738 86.0253479 449.74641865 78.03879917 C449.74460536 73.26885738 449.74724648 68.49902347 449.76113319 63.72909927 C449.7737057 59.24258709 449.77177291 54.75631064 449.75872231 50.26980209 C449.75635561 48.62428457 449.75909455 46.97875049 449.76734543 45.33325195 C449.77780718 43.0844536 449.76971748 40.83644706 449.7570343 38.587677 C449.75720204 37.33001589 449.75736979 36.07235477 449.75754261 34.77658272 C449.17731186 29.49143904 447.14395805 25.52203293 443.0703125 22.11328125 C442.51730469 21.63375 441.96429688 21.15421875 441.39453125 20.66015625 C436.85818082 17.7357517 432.32414983 17.11327605 427.01782799 17.11274147 C425.75084269 17.10774277 424.48385739 17.10274408 423.1784786 17.0975939 C421.78006712 17.10213396 420.3816562 17.1068506 418.98324585 17.11172485 C417.49186387 17.1095857 416.00048295 17.10655984 414.50910437 17.10272443 C410.41438423 17.09468668 406.31975548 17.09899008 402.22503567 17.10524321 C397.80783842 17.10977664 393.39065859 17.1027371 388.97346497 17.09693909 C381.32062532 17.08830617 373.66780879 17.08649788 366.01496506 17.08888626 C354.94587208 17.09198219 343.87683028 17.08035154 332.80775018 17.06433646 C314.8431922 17.03837423 296.87863417 17.01835455 278.9140625 17.00488281 C277.83889282 17.00407244 276.76372314 17.00326207 275.65597256 17.00242715 C260.38756427 16.99119833 245.11915964 16.9859228 229.85074778 16.98304002 C228.23708368 16.98273404 228.23708368 16.98273404 226.59082031 16.98242188 C224.97911914 16.98212197 224.97911914 16.98212197 223.33485834 16.98181601 C205.43522486 16.97808669 187.53564695 16.95902783 169.63604128 16.92732751 C158.59095178 16.90838558 147.54600457 16.90246817 136.50090326 16.91314469 C128.93804199 16.91945029 121.37528301 16.91146158 113.8124442 16.89209057 C109.44534912 16.88137876 105.07850225 16.87730731 100.71140862 16.89056206 C96.71682333 16.90256495 92.72270464 16.89633939 88.72816022 16.87537007 C87.28009889 16.87104834 85.83199853 16.87354836 84.38396434 16.88341124 C82.42137791 16.89581266 80.45867604 16.8813905 78.49611473 16.86550331 C77.40425373 16.86506858 76.31239274 16.86463384 75.18744504 16.86418593 C71.68700295 16.23901033 70.50807315 15.17042013 68.3828125 12.36328125 C67.8203125 8.92578125 67.8203125 8.92578125 68.3828125 5.36328125 C70.86304108 2.26033991 72.37765202 0.57745523 76.3134529 -0.26116323 C77.95197902 -0.26075466 77.95197902 -0.26075466 79.62360668 -0.26033783 C80.88838413 -0.27214317 82.15316159 -0.28394851 83.45626563 -0.29611158 C84.85741901 -0.28391969 86.25856837 -0.27125854 87.65971375 -0.25817871 C89.15008751 -0.26250742 90.64045626 -0.26902315 92.13081199 -0.27753878 C96.22779269 -0.29455647 100.32416368 -0.28033103 104.42111242 -0.261024 C108.83914089 -0.24561694 113.25709367 -0.25899394 117.67512512 -0.26876831 C126.33203982 -0.28330959 134.98872032 -0.27104487 143.64561286 -0.24965507 C153.72794315 -0.22565729 163.81021963 -0.22735882 173.89257214 -0.22996098 C191.88635651 -0.23365314 209.88003053 -0.2128113 227.8737793 -0.17871094 C245.32921134 -0.14564305 262.7845275 -0.13144829 280.23999023 -0.13769531 C299.24512855 -0.14446349 318.2502183 -0.14198507 337.25534946 -0.12233591 C338.76385697 -0.12077668 338.76385697 -0.12077668 340.30283937 -0.11918595 C342.32264557 -0.11709506 344.34245174 -0.11498408 346.36225789 -0.11285278 C353.38731409 -0.10596296 360.4123553 -0.10528696 367.43741417 -0.10673523 C376.00459438 -0.10817689 384.57168021 -0.09844908 393.13882913 -0.07478887 C397.50864141 -0.0629495 401.87832234 -0.05578991 406.24814987 -0.06162643 C410.2522801 -0.06681633 414.2561334 -0.05804651 418.26021633 -0.03835183 C419.7050459 -0.03363073 421.14990261 -0.03388811 422.59472796 -0.0397622 C434.98156779 -0.08523676 445.37501577 1.65980074 455.3828125 9.36328125 C464.42063843 18.38382644 466.88602824 28.30445891 466.92492676 40.72904968 C466.91715191 42.34866532 466.90895938 43.96827899 466.90039062 45.58789062 C466.90581886 47.31696663 466.91294545 49.046038 466.92163086 50.77510071 C466.93978375 55.44663514 466.93283006 60.1178141 466.92011452 64.78935432 C466.90994504 69.69205771 466.91939112 74.59473187 466.92565918 79.49743652 C466.93292412 87.72865224 466.9233782 95.95972412 466.90429688 104.19091797 C466.88253037 113.68976352 466.88958256 123.18826556 466.9116025 132.68710279 C466.92978941 140.86152051 466.93229875 149.03583517 466.92184782 157.21026659 C466.91563096 162.08421994 466.91472731 166.95801214 466.92799377 171.83195496 C466.93959966 176.41549341 466.9314405 180.99859156 466.90841675 185.58208275 C466.90315487 187.25816812 466.90459995 188.93429093 466.91346741 190.6103611 C466.97470369 203.36678095 465.37889304 213.67840568 456.3828125 223.36328125 C446.83948015 232.42420339 435.81462316 233.9586986 423.10328674 233.86448669 C421.68595652 233.86838664 420.26863023 233.87403262 418.85131305 233.88125759 C414.98440874 233.89592958 411.11791507 233.88588086 407.25102437 233.87152088 C403.0704416 233.86036835 398.88991443 233.87236747 394.70933533 233.88136292 C386.53254662 233.89526579 378.35591278 233.88776231 370.17913152 233.87268733 C360.65661187 233.85580093 351.13413051 233.85904056 341.61160051 233.86278141 C324.62588274 233.868654 307.64023922 233.85450902 290.65454102 233.82983398 C274.16916119 233.80588846 257.68388043 233.79884078 241.19848633 233.80932617 C223.23932993 233.82072849 205.2802193 233.822676 187.32106346 233.80822808 C185.407457 233.80670223 183.49385053 233.80518188 181.58024406 233.80366707 C180.63872607 233.80290925 179.69720807 233.80215144 178.72715922 233.80137066 C172.08693939 233.7966246 165.44673999 233.79848136 158.80652046 233.80273247 C150.72167664 233.80765236 142.63692656 233.80170429 134.55210424 233.78183817 C130.42601925 233.77194985 126.3000772 233.76687776 122.17398453 233.77473068 C118.39985917 233.78176703 114.62602277 233.77503133 110.85193562 233.75712705 C108.83431527 233.75114185 106.81666797 233.75992807 104.79905993 233.76917356 C103.01030724 233.75651365 103.01030724 233.75651365 101.18541813 233.74359798 C100.15398499 233.74256885 99.12255184 233.74153973 98.05986315 233.74047941 C94.95231831 233.30262434 93.59161569 232.57084338 91.3828125 230.36328125 C90.51000101 226.93437899 90.05358421 224.47068548 91.0703125 221.05078125 C92.68759798 218.9714142 93.94427585 218.35315343 96.3828125 217.36328125 C98.80321527 217.11488426 98.80321527 217.11488426 101.560215 217.11718559 C102.61319786 217.1132035 103.66618073 217.1092214 104.75107217 217.10511863 C105.90670529 217.11094432 107.06233841 217.11677 108.25299072 217.12277222 C109.48147413 217.12106337 110.70995754 217.11935452 111.97566772 217.11759388 C115.38718789 217.11486606 118.79847935 217.12112847 122.2099719 217.13115001 C125.88819089 217.13977744 129.56640266 217.13686485 133.24462891 217.13534546 C139.61793953 217.13429616 145.99120925 217.14057746 152.36450958 217.15182114 C161.5792549 217.16806708 170.7939804 217.17328321 180.00873849 217.17579712 C194.95863636 217.18017565 209.90851241 217.19348902 224.85839844 217.21240234 C239.38183483 217.23075706 253.90526529 217.24491557 268.42871094 217.25341797 C269.32375872 217.25394342 270.2188065 217.25446886 271.14097694 217.25501023 C275.63111574 217.25762028 280.12125458 217.26014771 284.61139345 217.26263404 C321.86854868 217.28337145 359.12567854 217.31874982 396.3828125 217.36328125 C396.3828125 213.40328125 396.3828125 209.44328125 396.3828125 205.36328125 C394.98522705 205.38422852 393.5876416 205.40517578 392.14770508 205.42675781 C386.95754256 205.49921273 381.76742468 205.54510143 376.5769043 205.58300781 C374.33138509 205.60311065 372.08591815 205.6303973 369.84057617 205.66503906 C366.6110341 205.71361435 363.38218475 205.73626362 360.15234375 205.75390625 C358.64895195 205.78487396 358.64895195 205.78487396 357.1151886 205.81646729 C352.67224253 205.81789438 350.11572726 205.80781831 346.2512207 203.46386719 C344.24800947 201.21172692 343.69977252 200.3349282 343.7578125 197.36328125 C343.74492187 196.70328125 343.73203125 196.04328125 343.71875 195.36328125 C344.81051761 192.0751341 346.42644642 191.15641511 349.3828125 189.36328125 C352.97652285 188.80931697 356.5237091 188.89791159 360.15234375 188.97265625 C361.18848312 188.97831604 362.2246225 188.98397583 363.29216003 188.98980713 C366.59368558 189.01215459 369.89411631 189.06234947 373.1953125 189.11328125 C375.43683326 189.13334829 377.67837107 189.1515987 379.91992188 189.16796875 C385.40797237 189.21201431 390.89520696 189.28103202 396.3828125 189.36328125 C396.3828125 185.40328125 396.3828125 181.44328125 396.3828125 177.36328125 C273.6228125 177.36328125 150.8628125 177.36328125 24.3828125 177.36328125 C24.3828125 181.32328125 24.3828125 185.28328125 24.3828125 189.36328125 C25.93039875 189.36051587 27.477985 189.35775049 29.0724678 189.35490131 C65.7867709 189.28996564 102.50106602 189.24047869 139.21541454 189.21008526 C143.73166318 189.20633302 148.2479117 189.20245007 152.76416016 189.19848633 C153.66328596 189.1976994 154.56241177 189.19691247 155.48878381 189.19610169 C170.05841773 189.18303816 184.62801623 189.15937912 199.19762912 189.13182286 C214.14093021 189.10379498 229.08421272 189.08711054 244.02753901 189.08101577 C253.25269442 189.07689388 262.47774973 189.0638627 271.70287433 189.03953185 C278.02389879 189.02370694 284.3448713 189.01887351 290.66591415 189.02277712 C294.31600869 189.02470374 297.965928 189.02169461 301.61599159 189.00566483 C305.5689501 188.98843112 309.52167834 188.99429697 313.47467041 189.0025177 C314.63419448 188.99377918 315.79371855 188.98504065 316.98837972 188.97603732 C318.57307911 188.98499704 318.57307911 188.98499704 320.18979263 188.99413776 C321.10264031 188.9929986 322.01548798 188.99185944 322.95599771 188.99068576 C325.90387127 189.44328082 327.25605866 190.29314662 329.3828125 192.36328125 C330.48654628 196.33672286 330.79824833 198.45327897 329.0703125 202.23828125 C327.3828125 204.36328125 327.3828125 204.36328125 325.3828125 205.36328125 C323.73600204 205.45717113 322.08537291 205.48701465 320.43588829 205.48632908 C319.38340412 205.48832013 318.33091996 205.49031118 317.24654233 205.49236256 C316.08119258 205.48944972 314.91584283 205.48653688 313.71517944 205.48353577 C311.86889228 205.4848174 311.86889228 205.4848174 309.98530638 205.48612493 C306.55793024 205.48749173 303.13061067 205.48434949 299.70324135 205.47934687 C296.01135379 205.47504164 292.31946809 205.47648885 288.62757874 205.47724915 C282.22750812 205.47777433 275.82744767 205.47462806 269.42737961 205.46901131 C260.17387497 205.46089562 250.92037526 205.45828102 241.66686745 205.45702332 C226.65486197 205.4548329 211.64286191 205.44817311 196.63085938 205.4387207 C182.04524767 205.42954631 167.45963744 205.42246561 152.87402344 205.41821289 C151.5261831 205.41781881 151.5261831 205.41781881 150.15111367 205.41741676 C145.6434495 205.41611175 141.13578532 205.41484804 136.62812114 205.41360486 C99.21301439 205.40323258 61.79791395 205.38554039 24.3828125 205.36328125 C24.3828125 209.32328125 24.3828125 213.28328125 24.3828125 217.36328125 C25.78039795 217.33709717 27.1779834 217.31091309 28.61791992 217.28393555 C33.8080237 217.19336793 38.99805778 217.13600732 44.1887207 217.08862305 C46.43428294 217.06349402 48.6797635 217.0293851 50.92504883 216.98608398 C54.15466468 216.92536349 57.38319834 216.89705494 60.61328125 216.875 C61.61554245 216.84919357 62.61780365 216.82338715 63.6504364 216.79679871 C68.36084022 216.79490745 70.63615158 216.81413431 74.52075195 219.67114258 C76.96060277 223.19864159 77.0708427 225.15865226 76.3828125 229.36328125 C74.87574768 231.54577637 74.87574768 231.54577637 72.3828125 233.36328125 C69.44113593 233.75796306 66.87417756 233.91060338 63.93334961 233.88085938 C63.08236694 233.88786865 62.23138428 233.89487793 61.35461426 233.90209961 C58.53946326 233.91971083 55.72531765 233.90803859 52.91015625 233.89453125 C50.94682117 233.89722701 48.98348738 233.90111014 47.02015686 233.90612793 C42.90010906 233.91202867 38.7804079 233.90344792 34.66040039 233.88476562 C29.40381149 233.86208085 24.14804428 233.87502881 18.89148617 233.89905548 C14.83256472 233.91358784 10.77383425 233.90887174 6.71490669 233.89854431 C4.77860986 233.89589205 2.84229519 233.89909347 0.90601921 233.90846252 C-12.88720975 233.96051615 -25.0736453 233.39413535 -35.6171875 223.36328125 C-45.57460937 212.74470259 -46.06497015 202.10056673 -46.03710938 188.28393555 C-46.044458 186.5582525 -46.05304653 184.83257435 -46.06277466 183.10690308 C-46.08491698 178.43937993 -46.08792496 173.7720337 -46.08602715 169.10446525 C-46.0859071 165.19819296 -46.09448534 161.29195769 -46.10280466 157.38569576 C-46.1220129 148.1640876 -46.12493211 138.94256995 -46.11816406 129.72094727 C-46.11152655 120.23064426 -46.13438195 110.74073024 -46.17147779 101.2505061 C-46.20224008 93.08202915 -46.21352771 84.9136769 -46.20964098 76.74514323 C-46.20758006 71.87552047 -46.21295059 67.00620045 -46.23753357 62.13663292 C-46.25990608 57.5538762 -46.25783622 52.9717489 -46.23760605 48.38898849 C-46.23421439 46.71534415 -46.23920482 45.04165656 -46.25358963 43.3680706 C-46.34918242 31.41351858 -45.07038407 19.97596819 -36.40234375 10.88671875 C-25.47766858 1.5636918 -13.95426177 -0.09781299 0 0 Z " fill="#000000" transform="translate(45.6171875,99.63671875)"/>
<path d="M0 0 C1.83804703 -0.00856522 1.83804703 -0.00856522 3.71322632 -0.01730347 C5.07339467 -0.0185488 6.43356314 -0.0196739 7.79373169 -0.02069092 C9.22446826 -0.02531962 10.6552036 -0.03034435 12.0859375 -0.03573608 C15.97440084 -0.04885619 19.86284693 -0.05530416 23.75132895 -0.05974674 C26.18044486 -0.0626778 28.60955605 -0.06678264 31.03866959 -0.07125092 C38.63818015 -0.08492416 46.23767994 -0.09459194 53.83720195 -0.09845281 C62.61110831 -0.10293478 71.38485898 -0.12048978 80.15871799 -0.1494534 C86.9401201 -0.17106309 93.72147837 -0.18115669 100.50291455 -0.18249393 C104.55353665 -0.18354237 108.60401237 -0.18945859 112.65459824 -0.20731354 C116.46477289 -0.22378221 120.27469091 -0.22595571 124.08488846 -0.21717453 C125.48249753 -0.21640353 126.88012033 -0.22075519 128.2776947 -0.23063278 C130.18720381 -0.24333606 132.09681584 -0.23568964 134.00634766 -0.22705078 C135.07449644 -0.22851734 136.14264523 -0.2299839 137.24316216 -0.2314949 C140.56304703 0.19621183 142.44779867 1.16902296 145.13015747 3.14044189 C146.55677966 5.99368627 146.44049615 7.97498738 146.13015747 11.14044189 C144.49491882 13.80039883 144.49491882 13.80039883 142.13015747 16.14044189 C139.30653381 16.76685429 139.30653381 16.76685429 135.98147583 16.76863098 C134.08871414 16.78761192 134.08871414 16.78761192 132.15771484 16.80697632 C130.76180621 16.7956603 129.36590164 16.78383283 127.97000122 16.77154541 C126.49807879 16.77668417 125.02616251 16.78396513 123.55426025 16.79322815 C119.55825683 16.81175638 115.56291988 16.79879515 111.56694412 16.77913785 C107.38610294 16.7627615 103.20530432 16.77156282 99.02444458 16.7766571 C92.00325871 16.78117922 84.98233915 16.76530111 77.96121216 16.73736572 C69.84267143 16.70531315 61.72461102 16.70532908 53.60603619 16.72258049 C45.79770062 16.73844182 37.98954123 16.73171461 30.18121338 16.71464348 C26.85749627 16.7077691 23.53392022 16.70880935 20.21020508 16.71618843 C16.29646705 16.72384716 12.38327594 16.71173934 8.4696312 16.68433952 C7.03292337 16.67745016 5.59616451 16.67736369 4.15945816 16.68455505 C2.19924646 16.69323652 0.23897038 16.67487163 -1.72116089 16.65510559 C-3.36706459 16.65089521 -3.36706459 16.65089521 -5.04621887 16.64659977 C-8.55818892 16.01705011 -9.74655712 14.9661244 -11.86984253 12.14044189 C-12.33902936 8.38694728 -12.40120634 6.10195736 -10.55734253 2.76544189 C-7.41224318 -0.2631723 -4.14391521 0.01154845 0 0 Z " fill="#000000" transform="translate(255.86984252929688,145.85955810546875)"/>
<path d="M0 0 C3.78881607 3.04150946 3.9901382 6.94870082 4.8125 11.5 C7.48747243 24.65892749 13.44510405 35.50591618 24.4375 43.625 C27 46 27 46 28 49.5625 C28 54.42857143 28 54.42857143 26 57 C23.4200211 59.00665026 22.0285632 59.00129678 18.73046875 58.8515625 C14.41839883 57.86723659 12.06758464 56.07618708 9 53.0625 C8.22354126 52.32205444 8.22354126 52.32205444 7.43139648 51.56665039 C-4.1815866 40.19715655 -11.95663802 25.38887597 -12.375 9 C-12.41421651 3.56197795 -12.41421651 3.56197795 -10.6640625 1.1875 C-6.98768793 -1.43601613 -4.20343537 -1.05085884 0 0 Z " fill="#000000" transform="translate(375,353)"/>
<path d="M0 0 C1.6875 1.21875 1.6875 1.21875 3 3 C5.1807522 16.66177116 -0.23100948 30.55122034 -7.81640625 41.66015625 C-20.0774204 57.68616869 -20.0774204 57.68616869 -27.8125 59.25 C-31.57795615 58.95467011 -33.27012536 58.64958421 -36 56 C-36.94378631 52.80161305 -37.3939198 51.17559959 -37 48 C-34.98433912 44.81395538 -33.03998236 42.83589396 -30.12890625 40.49609375 C-19.66685724 32.0326428 -15.22742742 20.58049872 -13.125 7.625 C-12.46913553 4.23903302 -12.0614893 3.07554399 -9.8125 0.3125 C-6.06539001 -1.43615133 -3.94530692 -1.09591859 0 0 Z " fill="#000000" transform="translate(146,353)"/>
<path d="M0 0 C2.82092002 2.90906581 3.37718998 4.98565827 3.38818359 8.98046875 C3.39764008 9.96829346 3.40709656 10.95611816 3.4168396 11.97387695 C3.41076691 13.03437256 3.40469421 14.09486816 3.3984375 15.1875 C3.40130768 16.28215576 3.40417786 17.37681152 3.40713501 18.50463867 C3.40917552 20.81787636 3.40364662 23.1311313 3.39111328 25.44433594 C3.37506018 28.98672031 3.3909632 32.52796365 3.41015625 36.0703125 C3.40817382 38.31771085 3.40433014 40.5651085 3.3984375 42.8125 C3.40451019 43.87299561 3.41058289 44.93349121 3.4168396 46.02612305 C3.40738312 47.01394775 3.39792664 48.00177246 3.38818359 49.01953125 C3.38579681 49.88682861 3.38341003 50.75412598 3.38095093 51.64770508 C2.9121923 54.54219476 2.02663152 55.90050816 0 58 C-3.94156332 59.0948787 -6.09343679 59.39415792 -9.875 57.75 C-12 56 -12 56 -13 53 C-13.09667452 51.44112749 -13.13812513 49.87850137 -13.14526367 48.31665039 C-13.15164352 47.36879166 -13.15802338 46.42093292 -13.16459656 45.4443512 C-13.16626579 43.9114872 -13.16626579 43.9114872 -13.16796875 42.34765625 C-13.17129715 41.29597763 -13.17462555 40.24429901 -13.17805481 39.16075134 C-13.18311926 36.93570391 -13.18546328 34.71064889 -13.18530273 32.4855957 C-13.18748911 29.07946277 -13.2056498 25.67365373 -13.22460938 22.26757812 C-13.22754339 20.10677194 -13.22952813 17.94596422 -13.23046875 15.78515625 C-13.23765427 14.76527115 -13.24483978 13.74538605 -13.25224304 12.69459534 C-13.24916641 11.74358444 -13.24608978 10.79257355 -13.24291992 9.81274414 C-13.24434494 8.97796036 -13.24576996 8.14317657 -13.24723816 7.28309631 C-12.97354082 4.75566532 -12.32174422 3.15937485 -11 1 C-7.44020669 -1.76872813 -4.1946238 -1.06772242 0 0 Z " fill="#000000" transform="translate(263,353)"/>
<path d="M0 0 C1.99301736 1.58066894 2.86543351 2.73086702 4 5 C4.09988223 6.5207676 4.1383165 8.04579591 4.14526367 9.56982422 C4.15164352 10.51775848 4.15802338 11.46569275 4.16459656 12.44235229 C4.16570938 13.46942291 4.1668222 14.49649353 4.16796875 15.5546875 C4.17129715 16.60778107 4.17462555 17.66087463 4.17805481 18.74588013 C4.18312443 20.97690391 4.18546312 23.2079353 4.18530273 25.43896484 C4.18748655 28.85396836 4.20563471 32.26864755 4.22460938 35.68359375 C4.2275438 37.84895723 4.22952827 40.01432224 4.23046875 42.1796875 C4.23765427 43.20270966 4.24483978 44.22573181 4.25224304 45.27975464 C4.24916641 46.23399323 4.24608978 47.18823181 4.24291992 48.17138672 C4.24434494 49.00918671 4.24576996 49.84698669 4.24723816 50.71017456 C3.97393593 53.24139546 3.32418222 54.8378467 2 57 C-0.67633026 59.0815902 -2.11753668 58.99587591 -5.5625 58.875 C-9 58 -9 58 -10.69058228 56.2565918 C-12.22458897 53.61295345 -12.37981723 52.05966252 -12.38818359 49.01953125 C-12.39764008 48.03170654 -12.40709656 47.04388184 -12.4168396 46.02612305 C-12.41076691 44.96562744 -12.40469421 43.90513184 -12.3984375 42.8125 C-12.40130768 41.71784424 -12.40417786 40.62318848 -12.40713501 39.49536133 C-12.40917552 37.18212364 -12.40364662 34.8688687 -12.39111328 32.55566406 C-12.37506018 29.01327969 -12.3909632 25.47203635 -12.41015625 21.9296875 C-12.40817382 19.68228915 -12.40433014 17.4348915 -12.3984375 15.1875 C-12.40451019 14.12700439 -12.41058289 13.06650879 -12.4168396 11.97387695 C-12.40738312 10.98605225 -12.39792664 9.99822754 -12.38818359 8.98046875 C-12.38579681 8.11317139 -12.38341003 7.24587402 -12.38095093 6.35229492 C-11.91378377 3.46763219 -11.00088089 2.10672371 -9 0 C-5.45026831 -1.1832439 -3.60040463 -0.90010116 0 0 Z " fill="#000000" transform="translate(321,353)"/>
<path d="M0 0 C2.80754867 2.90032686 3.38114804 4.98422937 3.41992188 8.96459961 C3.43583374 9.94919662 3.45174561 10.93379364 3.46813965 11.94822693 C3.46844177 13.53426476 3.46844177 13.53426476 3.46875 15.15234375 C3.48017029 16.79076988 3.48017029 16.79076988 3.49182129 18.46229553 C3.50262229 20.77130854 3.50547541 23.08037041 3.50097656 25.3894043 C3.50000448 28.92123932 3.54162423 32.45090066 3.5859375 35.98242188 C3.59114466 38.22655797 3.59383269 40.47070162 3.59375 42.71484375 C3.6183429 44.29784523 3.6183429 44.29784523 3.64343262 45.91282654 C3.59798873 50.7365916 3.57048201 53.20859485 0.68945312 57.20532227 C-2 59 -2 59 -5.625 59 C-8.81585187 58.05456241 -10.10187442 57.63628553 -12 55 C-13.19764783 52.60470433 -13.13307389 51.10429551 -13.14526367 48.43017578 C-13.15164352 47.48224152 -13.15802338 46.53430725 -13.16459656 45.55764771 C-13.16570938 44.53057709 -13.1668222 43.50350647 -13.16796875 42.4453125 C-13.17129715 41.39221893 -13.17462555 40.33912537 -13.17805481 39.25411987 C-13.18312443 37.02309609 -13.18546312 34.7920647 -13.18530273 32.56103516 C-13.18748655 29.14603164 -13.20563471 25.73135245 -13.22460938 22.31640625 C-13.2275438 20.15104277 -13.22952827 17.98567776 -13.23046875 15.8203125 C-13.23765427 14.79729034 -13.24483978 13.77426819 -13.25224304 12.72024536 C-13.24916641 11.76600677 -13.24608978 10.81176819 -13.24291992 9.82861328 C-13.24434494 8.99081329 -13.24576996 8.15301331 -13.24723816 7.28982544 C-12.97393593 4.75860454 -12.32418222 3.1621533 -11 1 C-7.44020669 -1.76872813 -4.1946238 -1.06772242 0 0 Z " fill="#000000" transform="translate(200,353)"/>
<path d="M0 0 C1.23685547 -0.02900391 2.47371094 -0.05800781 3.74804688 -0.08789062 C4.94107422 -0.09626953 6.13410156 -0.10464844 7.36328125 -0.11328125 C9.0016394 -0.13515503 9.0016394 -0.13515503 10.6730957 -0.1574707 C14.38876788 0.4218335 16.02625533 1.70701645 18.6875 4.3125 C20.15046477 7.78704134 19.80025119 9.03330658 18.375 12.5625 C16.6875 15.3125 16.6875 15.3125 14.6875 16.3125 C10.58300788 16.54655606 6.47686266 16.54088242 2.36621094 16.55273438 C0.32705754 16.56243078 -1.71108361 16.59345004 -3.75 16.625 C-5.03648437 16.63015625 -6.32296875 16.6353125 -7.6484375 16.640625 C-8.82970215 16.6499707 -10.0109668 16.65931641 -11.22802734 16.66894531 C-14.60239946 16.27899887 -15.96140677 15.72706089 -18.3125 13.3125 C-19.3125 9.9375 -19.3125 9.9375 -19.3125 6.3125 C-14.44884377 -1.40226505 -8.35900293 0.06473157 0 0 Z " fill="#000000" transform="translate(439.3125,145.6875)"/>
</svg>
