<?xml version="1.0" encoding="UTF-8"?>
<svg version="1.1" xmlns="http://www.w3.org/2000/svg" width="512" height="512">
<path d="M0 0 C8.73025553 6.06128252 16.08814978 13.79442169 23.55859375 21.29296875 C24.83719778 22.57022243 26.11609832 23.84717936 27.39527893 25.12385559 C30.05673403 27.78238218 32.71458866 30.44444151 35.36987305 33.10913086 C38.76800742 36.51871675 42.17512258 39.91916509 45.58494473 43.31705761 C48.21969278 45.944575 50.84965465 48.57684144 53.4781971 51.21056557 C54.73300622 52.46670482 55.9892916 53.72137122 57.24709892 54.97450829 C59.00092296 56.72324086 60.74818868 58.47827751 62.49389648 60.23510742 C63.26766632 61.00280457 63.26766632 61.00280457 64.05706787 61.78601074 C69.96581749 67.76451907 72.14646355 72.46507161 72.125 80.75 C72.10252384 84.42709983 71.95095562 87.98413286 71.4375 91.625 C70.69842833 94.86226088 70.69842833 94.86226088 72 97 C72.68426657 104.91954427 72.67870032 111.43185716 68 118 C61.56297279 125.62144845 54.50106357 132.6764922 47.46484375 139.73828125 C46.66475986 140.54260621 46.66475986 140.54260621 45.84851265 141.36318016 C43.03440205 144.19213198 40.21754737 147.01831508 37.39819336 149.84204102 C34.50794348 152.73780372 31.62711832 155.64275923 28.74831295 158.54989338 C26.50988395 160.80701996 24.26470291 163.05733883 22.01767159 165.30589867 C20.95276141 166.37381157 19.89032344 167.44419627 18.83054924 168.51720619 C3.78835317 183.73404864 3.78835317 183.73404864 -4.890625 184.1328125 C-15.06013356 184.10916248 -15.06013356 184.10916248 -19.125 183.4375 C-22.06123728 182.76743991 -22.06123728 182.76743991 -25 184 C-26.84791637 184.19688607 -28.70519143 184.31204039 -30.5625 184.375 C-31.53316406 184.42398438 -32.50382812 184.47296875 -33.50390625 184.5234375 C-45.31108558 182.7556587 -52.87560445 173.84570359 -60.85546875 165.7734375 C-62.16881935 164.46091735 -63.48298769 163.149215 -64.79792786 161.83828735 C-67.54155021 159.09751149 -70.27625642 156.34823044 -73.00463867 153.59228516 C-76.47912335 150.08377175 -79.97323369 146.59562047 -83.47411633 143.11347008 C-86.18843303 140.4097924 -88.89281152 137.69634377 -91.59432411 134.97987747 C-92.87798409 133.69108235 -94.16440929 132.40503463 -95.45378685 131.12195969 C-106.86439547 119.74622373 -116.39582856 109.24378822 -116.4375 92.3125 C-116.37129405 72.61723213 -102.8888846 60.56866764 -89.80859375 47.54296875 C-88.65205817 46.38508131 -87.49581921 45.22689753 -86.33985901 44.06843567 C-83.93528556 41.66093893 -81.5271975 39.25703182 -79.11645508 36.85571289 C-76.04462239 33.7953118 -72.98191166 30.72596319 -69.92176723 27.65388012 C-67.54291755 25.26776877 -65.15928237 22.88648363 -62.77421761 20.50658607 C-61.64336948 19.37706055 -60.51397292 18.24607962 -59.38613701 17.11354637 C-43.16442031 0.83905766 -23.05340819 -12.41032205 0 0 Z M-57.2421875 38.0390625 C-57.74222416 38.53627178 -58.24226082 39.03348106 -58.7574501 39.54575729 C-61.39302192 42.1665407 -64.02586771 44.79002404 -66.65625 47.41601562 C-69.34560001 50.09984441 -72.04414662 52.77422794 -74.74484062 55.44663429 C-76.85018287 57.53324706 -78.94868437 59.62664106 -81.04544449 61.72187424 C-82.03716714 62.71060397 -83.03134926 63.69687405 -84.02819443 64.680439 C-96.02254516 76.27251246 -96.02254516 76.27251246 -100.25 91.75 C-100.05318984 106.63600491 -87.42202526 115.73042858 -77.57421875 125.55859375 C-76.37817547 126.7553118 -75.18228057 127.95217816 -73.98652649 129.14918518 C-71.49613645 131.64104063 -69.00396881 134.13110043 -66.51049805 136.61987305 C-63.31144734 139.81318977 -60.11695746 143.01102568 -56.92375469 146.21018887 C-54.46266317 148.67488564 -51.9992053 151.13720609 -49.5350132 153.59880257 C-48.3552895 154.77785882 -47.17630919 155.95765937 -45.99808311 157.1382122 C-44.35879085 158.78003439 -42.71634447 160.41863361 -41.07299805 162.05639648 C-39.67237373 163.45582741 -39.67237373 163.45582741 -38.24345398 164.88352966 C-35.6204129 167.35810177 -34.69842619 167.92408411 -31.125 168.3125 C-27.95954557 168.25407218 -27.95954557 168.25407218 -25.6875 166.375 C-23.48343996 163.27298957 -22.77813479 161.84566357 -23 158 C-27.69849784 151.15158152 -34.45234305 145.42779582 -40.33973312 139.58510208 C-42.05685848 137.88089291 -43.77070613 136.17344536 -45.48379517 134.46517944 C-49.11137006 130.84894163 -52.74290414 127.23669622 -56.375 123.625 C-60.60722855 119.4163919 -64.83780845 115.20615291 -69.06422806 110.99171066 C-70.75346585 109.30895749 -72.44568233 107.62923917 -74.13803101 105.94961548 C-75.16687424 104.92440241 -76.19557866 103.89905001 -77.22412109 102.87353516 C-78.12456146 101.9783316 -79.02500183 101.08312805 -79.95272827 100.16079712 C-83.01951749 96.92394819 -83.43080768 94.58574652 -83.35772705 90.10214233 C-82.72995413 86.41310615 -80.28976287 84.17714575 -77.7109375 81.67578125 C-77.14832718 81.09915237 -76.58571686 80.5225235 -76.00605774 79.92842102 C-74.14860416 78.03587739 -72.26355395 76.17397163 -70.375 74.3125 C-69.07019795 73.00230595 -67.76658517 71.69092653 -66.46411133 70.37841797 C-63.73286842 67.63539467 -60.9877168 64.90732603 -58.23193359 62.18896484 C-54.70497343 58.70758605 -51.21515521 55.19151612 -47.73498535 51.66343689 C-45.05045767 48.94996567 -42.34712179 46.25588135 -39.63775635 43.56723022 C-38.3433331 42.27813407 -37.05479993 40.98309486 -35.7723999 39.68203735 C-33.97502551 37.86428291 -32.15387751 36.07424002 -30.32421875 34.2890625 C-29.80128738 33.74993729 -29.27835602 33.21081207 -28.73957825 32.65534973 C-25.88903312 29.93152944 -23.72585152 28.65007522 -19.83932495 28.49765015 C-16.09590191 28.98745188 -14.83012933 29.16834879 -12.24658203 31.74853516 C-11.58370178 32.39220032 -10.92082153 33.03586548 -10.237854 33.69903564 C-9.13011627 34.838013 -9.13011627 34.838013 -8 36 C-7.12180603 36.87033875 -6.24361206 37.74067749 -5.33880615 38.63739014 C-2.77414546 41.18463826 -0.23795328 43.7586822 2.29263687 46.33973312 C4.56176267 48.65146144 6.84069532 50.95342258 9.11898613 53.25611305 C13.34418942 57.52682287 17.56520196 61.80149391 21.77001953 66.09228516 C24.71210894 69.09377305 27.66627421 72.08289559 30.62878036 75.06422806 C31.75044983 76.1976195 32.86757603 77.33552651 33.97995377 78.47803879 C35.53269424 80.07182176 37.10037518 81.64935173 38.67236328 83.22412109 C39.55868439 84.12456146 40.44500549 85.02500183 41.35818481 85.95272827 C44.36683125 88.28427547 46.22392069 88.84130033 50 89 C53.72843964 87.26655125 53.72843964 87.26655125 56 84 C56.67166707 81.25696104 56.67166707 81.25696104 56 78 C50.71543218 70.46789828 43.29404498 64.07681035 36.8203125 57.546875 C36.24220699 56.96344582 35.66410149 56.38001663 35.06847763 55.77890778 C32.01384431 52.6977332 28.9556717 49.62011703 25.89501953 46.54492188 C23.37817873 44.0147049 20.86882467 41.4774019 18.36572266 38.93359375 C15.32137396 35.83977331 12.26478828 32.7585547 9.1991539 29.68582916 C8.04117009 28.52116834 6.88741541 27.35228542 5.73819351 26.17897797 C-1.10985609 19.1955361 -7.21058161 13.11922533 -17.22265625 11.46875 C-34.85004748 11.66272404 -45.51209137 26.35498813 -57.2421875 38.0390625 Z M-21.82862854 48.70837402 C-23.02442787 49.90750427 -23.02442787 49.90750427 -24.24438477 51.13085938 C-25.59567223 52.48226013 -25.59567223 52.48226013 -26.97425842 53.86096191 C-27.96336078 54.8551718 -28.95240876 55.84943579 -29.94140625 56.84375 C-30.94867055 57.85287837 -31.95615514 58.86178691 -32.96385193 59.8704834 C-35.62109691 62.53155447 -38.27532585 65.19561446 -40.92895508 67.86029053 C-43.63507963 70.57662725 -46.34402192 73.29015059 -49.05273438 76.00390625 C-54.37126434 81.33317514 -59.68661382 86.66560212 -65 92 C-64.05052441 93.11677492 -63.09975103 94.23244654 -62.1484375 95.34765625 C-61.61911621 95.96906494 -61.08979492 96.59047363 -60.54443359 97.23071289 C-58.78334607 99.2481965 -56.93011408 101.14412108 -55 103 C-51.55323 101.51657 -49.32656699 99.56949812 -46.69042969 96.91748047 C-45.4295755 95.65639969 -45.4295755 95.65639969 -44.14324951 94.36984253 C-43.24519592 93.46146637 -42.34714233 92.55309021 -41.421875 91.6171875 C-40.03201385 90.22308151 -40.03201385 90.22308151 -38.61407471 88.80081177 C-36.15684211 86.3359615 -33.70567639 83.86516334 -31.2557373 81.39306641 C-28.75226191 78.86909235 -26.24307937 76.35080612 -23.734375 73.83203125 C-18.81732475 68.89356403 -13.90666212 63.948788 -9 59 C-10.59723182 55.61512615 -12.37820601 53.38070554 -15.0625 50.75 C-16.13177734 49.69039062 -16.13177734 49.69039062 -17.22265625 48.609375 C-19.53399287 46.4374181 -19.53399287 46.4374181 -21.82862854 48.70837402 Z M0.08908081 71.67041016 C-0.68813324 72.45206543 -1.46534729 73.2337207 -2.26611328 74.0390625 C-3.58725632 75.36043213 -3.58725632 75.36043213 -4.93508911 76.70849609 C-5.89693699 77.68055845 -6.85867553 78.652729 -7.8203125 79.625 C-8.80350893 80.6119254 -9.78714702 81.59841101 -10.77120972 82.58447266 C-13.36326347 85.18417201 -15.94925609 87.78982105 -18.53405762 90.39672852 C-21.17143405 93.05454345 -23.81446322 95.7067236 -26.45703125 98.359375 C-31.64358919 103.56739918 -36.82376076 108.78171782 -42 114 C-40.07143903 118.23308805 -37.14238186 121.02369041 -33.8203125 124.19921875 C-32.56857332 125.42077622 -31.31728557 126.64279641 -30.06640625 127.86523438 C-28.1010826 129.77500031 -26.13217918 131.68061172 -24.15478516 133.57788086 C-22.24010563 135.41936193 -20.34198878 137.2767232 -18.4453125 139.13671875 C-17.85976593 139.69018478 -17.27421936 140.24365082 -16.67092896 140.81388855 C-11.53774522 145.8837394 -8.36890123 151.48437124 -7.609375 158.72265625 C-7.65578125 159.82480469 -7.7021875 160.92695313 -7.75 162.0625 C-7.78609375 163.18785156 -7.8221875 164.31320313 -7.859375 165.47265625 C-7.90578125 166.30667969 -7.9521875 167.14070313 -8 168 C-3.52353893 167.58287636 -1.02959905 164.45101433 1.96191406 161.42626953 C2.5477124 160.84572815 3.13351074 160.26518677 3.73706055 159.66705322 C5.67086381 157.74645182 7.59348969 155.81508605 9.515625 153.8828125 C10.8546839 152.54577399 12.19418791 151.20918113 13.53411865 149.87301636 C16.33982891 147.07172949 19.14003935 144.26508621 21.93652344 141.45458984 C25.52678756 137.84721759 29.13037218 134.253501 32.73816299 130.66366768 C35.50587496 127.90677888 38.26642304 125.14280611 41.02483368 122.37661362 C42.35114883 121.04829326 43.679707 119.72220872 45.01050568 118.39838028 C46.86623647 116.55024142 48.71212191 114.692806 50.55566406 112.83251953 C51.38780426 112.00948837 51.38780426 112.00948837 52.23675537 111.16983032 C55.37593495 108.16449873 55.37593495 108.16449873 56 104 C55.24976563 104.04640625 54.49953125 104.0928125 53.7265625 104.140625 C52.70304687 104.17671875 51.67953125 104.2128125 50.625 104.25 C49.62726563 104.29640625 48.62953125 104.3428125 47.6015625 104.390625 C38.71264354 103.42653401 32.53762733 99.42710919 26.53125 93.046875 C25.88426147 92.38665344 25.23727295 91.72643188 24.57067871 91.04620361 C22.53219967 88.96137586 20.51539183 86.85713223 18.5 84.75 C16.45252636 82.63238766 14.40076557 80.51917499 12.34362793 78.41094971 C11.07065661 77.10401056 9.80391305 75.79097097 8.54406738 74.47137451 C7.06702686 72.94359835 5.53811788 71.46626808 4 70 C1.82795149 69.78062079 1.82795149 69.78062079 0.08908081 71.67041016 Z " fill="#000000" transform="translate(116,4)"/>
<path d="M0 0 C2.93623728 0.67006009 2.93623728 0.67006009 5.875 -0.5625 C13.49714007 -1.14196094 20.24594263 -1.22750897 26.50059509 3.72454834 C33.07992991 9.46466771 39.25228544 15.61292281 45.44140625 21.765625 C46.03212355 22.35226677 46.62284084 22.93890854 47.23145866 23.54332733 C50.35475627 26.6458967 53.47485981 29.75163894 56.5925293 32.85986328 C59.78685429 36.04311802 62.99269311 39.21451071 66.20124912 42.38341141 C68.69175711 44.84761146 71.17318255 47.32081244 73.6523571 49.79640961 C74.82936818 50.96859583 76.00971268 52.13744603 77.19363594 53.30265045 C87.53734593 63.49282465 96.88586388 73.55994062 97.30688477 88.84350586 C97.35257295 107.40681462 88.12621817 118.3377837 75.56811619 131.01824474 C73.94335687 132.64712882 72.31381449 134.2711144 70.68359375 135.89453125 C69.52705817 137.05241869 68.37081921 138.21060247 67.21485901 139.36906433 C64.81028556 141.77656107 62.4021975 144.18046818 59.99145508 146.58178711 C56.91962239 149.6421882 53.85691166 152.71153681 50.79676723 155.78361988 C48.41791755 158.16973123 46.03428237 160.55101637 43.64921761 162.93091393 C42.51836948 164.06043945 41.38897292 165.19142038 40.26113701 166.32395363 C28.71286822 177.9097909 18.046872 187.8606385 0.8125 188 C-18.67556011 187.64038205 -29.72715073 175.14971517 -42.68359375 162.14453125 C-43.96219778 160.86727757 -45.24109832 159.59032064 -46.52027893 158.31364441 C-49.18173403 155.65511782 -51.83958866 152.99305849 -54.49487305 150.32836914 C-57.89300742 146.91878325 -61.30012258 143.51833491 -64.70994473 140.12044239 C-67.34469278 137.492925 -69.97465465 134.86065856 -72.6031971 132.22693443 C-73.85800622 130.97079518 -75.1142916 129.71612878 -76.37209892 128.46299171 C-78.12592296 126.71425914 -79.87318868 124.95922249 -81.61889648 123.20239258 C-82.39266632 122.43469543 -82.39266632 122.43469543 -83.18206787 121.65148926 C-89.09081749 115.67298093 -91.27146355 110.97242839 -91.25 102.6875 C-91.22752384 99.01040017 -91.07595562 95.45336714 -90.5625 91.8125 C-89.82342833 88.57523912 -89.82342833 88.57523912 -91.125 86.4375 C-91.80926657 78.51795573 -91.80370032 72.00564284 -87.125 65.4375 C-80.68797279 57.81605155 -73.62606357 50.7610078 -66.58984375 43.69921875 C-65.78975986 42.89489379 -65.78975986 42.89489379 -64.97351265 42.07431984 C-62.15940205 39.24536802 -59.34254737 36.41918492 -56.52319336 33.59545898 C-53.63294348 30.69969628 -50.75211832 27.79474077 -47.87331295 24.88760662 C-45.63488395 22.63048004 -43.38970291 20.38016117 -41.14267159 18.13160133 C-40.07776141 17.06368843 -39.01532344 15.99330373 -37.95554924 14.92029381 C-26.2987892 3.12819377 -17.13621283 -2.83152015 0 0 Z M-18.5859375 19.21923828 C-19.92156738 20.45846039 -19.92156738 20.45846039 -21.28417969 21.72271729 C-26.17183604 26.39352484 -30.97523503 31.14422293 -35.75 35.9296875 C-36.82936313 37.00837502 -37.9088745 38.08691422 -38.98852539 39.16531372 C-41.22883761 41.40416551 -43.467366 43.64478096 -45.70458984 45.88671875 C-48.57041297 48.75828686 -51.44076893 51.62527583 -54.31243896 54.49099541 C-56.53269124 56.70763826 -58.75056162 58.92665197 -60.9677124 61.14639664 C-62.02592628 62.20527622 -63.08487972 63.26341725 -64.14459229 64.32079697 C-65.61835889 65.79202554 -67.0888853 67.26641817 -68.55859375 68.74169922 C-69.39447021 69.57837128 -70.23034668 70.41504333 -71.09155273 71.27706909 C-74.42026264 74.79470402 -74.42026264 74.79470402 -75.125 79.4375 C-74.30257813 79.37949219 -73.48015625 79.32148438 -72.6328125 79.26171875 C-70.95832031 79.19404297 -70.95832031 79.19404297 -69.25 79.125 C-68.15945313 79.06699219 -67.06890625 79.00898438 -65.9453125 78.94921875 C-53.25452997 80.57125128 -45.43231655 90.54221946 -37 99.25 C-35.64961512 100.62550606 -34.29806166 101.99986591 -32.9453125 103.37304688 C-29.65824219 106.71479106 -26.38741208 110.07168593 -23.125 113.4375 C-19.67823 111.95407 -17.45156699 110.00699812 -14.81542969 107.35498047 C-13.5545755 106.09389969 -13.5545755 106.09389969 -12.26824951 104.80734253 C-11.37019592 103.89896637 -10.47214233 102.99059021 -9.546875 102.0546875 C-8.15701385 100.66058151 -8.15701385 100.66058151 -6.73907471 99.23831177 C-4.28184211 96.7734615 -1.83067639 94.30266334 0.6192627 91.83056641 C3.12273809 89.30659235 5.63192063 86.78830612 8.140625 84.26953125 C13.05767525 79.33106403 17.96833788 74.386288 22.875 69.4375 C20.94643903 65.20441195 18.01738186 62.41380959 14.6953125 59.23828125 C13.44357332 58.01672378 12.19228557 56.79470359 10.94140625 55.57226562 C8.9760826 53.66249969 7.00717918 51.75688828 5.02978516 49.85961914 C3.11510563 48.01813807 1.21698878 46.1607768 -0.6796875 44.30078125 C-1.55800735 43.4705822 -1.55800735 43.4705822 -2.45407104 42.62361145 C-7.58725478 37.5537606 -10.75609877 31.95312876 -11.515625 24.71484375 C-11.46921875 23.61269531 -11.4228125 22.51054687 -11.375 21.375 C-11.33890625 20.24964844 -11.3028125 19.12429688 -11.265625 17.96484375 C-11.21921875 17.13082031 -11.1728125 16.29679687 -11.125 15.4375 C-15.04010106 15.4375 -15.75108352 16.58864819 -18.5859375 19.21923828 Z M6.5625 17.0625 C4.35843996 20.16451043 3.65313479 21.59183643 3.875 25.4375 C8.57349784 32.28591848 15.32734305 38.00970418 21.21473312 43.85239792 C22.93185848 45.55660709 24.64570613 47.26405464 26.35879517 48.97232056 C29.98637006 52.58855837 33.61790414 56.20080378 37.25 59.8125 C41.48222855 64.0211081 45.71280845 68.23134709 49.93922806 72.44578934 C51.62846585 74.12854251 53.32068233 75.80826083 55.01303101 77.48788452 C56.04187424 78.51309759 57.07057866 79.53844999 58.09912109 80.56396484 C58.99956146 81.4591684 59.90000183 82.35437195 60.82772827 83.27670288 C63.89451749 86.51355181 64.30580768 88.85175348 64.23272705 93.33535767 C63.60495413 97.02439385 61.16476287 99.26035425 58.5859375 101.76171875 C57.74202202 102.62666206 57.74202202 102.62666206 56.88105774 103.50907898 C55.02360416 105.40162261 53.13855395 107.26352837 51.25 109.125 C49.94519795 110.43519405 48.64158517 111.74657347 47.33911133 113.05908203 C44.60786842 115.80210533 41.8627168 118.53017397 39.10693359 121.24853516 C35.57997343 124.72991395 32.09015521 128.24598388 28.60998535 131.77406311 C25.92545767 134.48753433 23.22212179 137.18161865 20.51275635 139.87026978 C19.2183331 141.15936593 17.92979993 142.45440514 16.6473999 143.75546265 C14.85002551 145.57321709 13.02887751 147.36325998 11.19921875 149.1484375 C10.67628738 149.68756271 10.15335602 150.22668793 9.61457825 150.78215027 C6.76403312 153.50597056 4.60085152 154.78742478 0.71432495 154.93984985 C-3.02909809 154.45004812 -4.29487067 154.26915121 -6.87841797 151.68896484 C-7.54129822 151.04529968 -8.20417847 150.40163452 -8.887146 149.73846436 C-9.62563782 148.97914612 -10.36412964 148.21982788 -11.125 147.4375 C-12.44229095 146.13199188 -12.44229095 146.13199188 -13.78619385 144.80010986 C-16.35085454 142.25286174 -18.88704672 139.6788178 -21.41763687 137.09776688 C-23.68676267 134.78603856 -25.96569532 132.48407742 -28.24398613 130.18138695 C-32.46918942 125.91067713 -36.69020196 121.63600609 -40.89501953 117.34521484 C-43.83710894 114.34372695 -46.79127421 111.35460441 -49.75378036 108.37327194 C-50.87544983 107.2398805 -51.99257603 106.10197349 -53.10495377 104.95946121 C-54.65769424 103.36567824 -56.22537518 101.78814827 -57.79736328 100.21337891 C-59.12684494 98.86271835 -59.12684494 98.86271835 -60.48318481 97.48477173 C-63.49183125 95.15322453 -65.34892069 94.59619967 -69.125 94.4375 C-72.85343964 96.17094875 -72.85343964 96.17094875 -75.125 99.4375 C-75.79666707 102.18053896 -75.79666707 102.18053896 -75.125 105.4375 C-69.82980722 113.01157141 -62.33073463 119.3955597 -55.8046875 125.92578125 C-54.61590567 127.1177827 -53.42719642 128.30985654 -52.23855591 129.5019989 C-49.76090087 131.98560647 -47.28122377 134.46717464 -44.80029297 136.94750977 C-41.62670902 140.1209916 -38.46009167 143.30132943 -35.29514885 146.48342609 C-32.84843715 148.94126155 -30.39718863 151.3945333 -27.94464493 153.84654808 C-26.77488548 155.01748444 -25.60673993 156.19003547 -24.44027328 157.36425209 C-22.81109469 159.00325049 -21.17567512 160.63576555 -19.53857422 162.2668457 C-18.61148651 163.19535843 -17.6843988 164.12387115 -16.72921753 165.08052063 C-10.22054857 170.97127218 -4.69601479 171.84007764 3.85546875 171.6953125 C12.46695274 170.96004996 17.29195634 165.37983977 22.96875 159.38671875 C25.0371604 157.22784348 27.20031449 155.26382939 29.47412109 153.32299805 C34.23786851 149.17642328 38.71909543 144.77318338 43.1953125 140.3203125 C44.05760468 139.4637204 44.91989685 138.6071283 45.80831909 137.72457886 C47.61985664 135.92243442 49.42998583 134.11887327 51.23876953 132.31396484 C53.99192376 129.57054768 56.75557076 126.83799269 59.51953125 124.10546875 C61.28711736 122.34441123 63.05406602 120.5827136 64.8203125 118.8203125 C66.04864304 117.61050217 66.04864304 117.61050217 67.30178833 116.37625122 C74.48347422 109.16673911 80.96394046 102.26374297 81.125 91.6875 C80.92818984 76.80149509 68.29702526 67.70707142 58.44921875 57.87890625 C57.25317547 56.6821882 56.05728057 55.48532184 54.86152649 54.28831482 C52.37113645 51.79645937 49.87896881 49.30639957 47.38549805 46.81762695 C44.18644734 43.62431023 40.99195746 40.42647432 37.79875469 37.22731113 C35.33766317 34.76261436 32.8742053 32.30029391 30.4100132 29.83869743 C29.2302895 28.65964118 28.05130919 27.47984063 26.87308311 26.2992878 C25.23379085 24.65746561 23.59134447 23.01886639 21.94799805 21.38110352 C20.54737373 19.98167259 20.54737373 19.98167259 19.11845398 18.55397034 C16.4954129 16.07939823 15.57342619 15.51341589 12 15.125 C8.83454557 15.18342782 8.83454557 15.18342782 6.5625 17.0625 Z M31.96408081 82.10791016 C31.18686676 82.88956543 30.40965271 83.6712207 29.60888672 84.4765625 C28.28774368 85.79793213 28.28774368 85.79793213 26.93991089 87.14599609 C25.97806301 88.11805845 25.01632447 89.090229 24.0546875 90.0625 C23.07149107 91.0494254 22.08785298 92.03591101 21.10379028 93.02197266 C18.51173653 95.62167201 15.92574391 98.22732105 13.34094238 100.83422852 C10.70356595 103.49204345 8.06053678 106.1442236 5.41796875 108.796875 C0.23141081 114.00489918 -4.94876076 119.21921782 -10.125 124.4375 C-8.51964713 127.84809403 -6.71981099 130.05542484 -4 132.6875 C-2.91332031 133.74710938 -2.91332031 133.74710938 -1.8046875 134.828125 C-1.25039063 135.35921875 -0.69609375 135.8903125 -0.125 136.4375 C5.59200538 131.68613726 10.85189423 126.59135413 16.08984375 121.3203125 C17.37345543 120.0345784 17.37345543 120.0345784 18.68299866 118.72286987 C21.39520465 116.00510046 24.1038983 113.28386109 26.8125 110.5625 C28.65927369 108.71070658 30.50627653 106.85914166 32.35351562 105.0078125 C36.86333201 100.48701565 41.37027569 95.96337054 45.875 91.4375 C44.92246129 90.32111407 43.96919504 89.20534888 43.015625 88.08984375 C42.48485352 87.46843506 41.95408203 86.84702637 41.40722656 86.20678711 C39.64693996 84.17415533 37.88217389 82.22961954 35.875 80.4375 C33.70295149 80.21812079 33.70295149 80.21812079 31.96408081 82.10791016 Z " fill="#000000" transform="translate(415.125,324.5625)"/>
<path d="M0 0 C8.55439848 6.26449419 15.99679582 13.69990425 23.45703125 21.19140625 C24.61491869 22.34794183 25.77310247 23.50418079 26.93156433 24.66014099 C29.33906107 27.06471444 31.74296818 29.4728025 34.14428711 31.88354492 C37.2046882 34.95537761 40.27403681 38.01808834 43.34611988 41.07823277 C45.73223123 43.45708245 48.11351637 45.84071763 50.49341393 48.22578239 C51.62293945 49.35663052 52.75392038 50.48602708 53.88645363 51.61386299 C65.4722909 63.16213178 75.4231385 73.828128 75.5625 91.0625 C75.20412886 110.48299424 62.76665695 121.55664712 49.84765625 134.5234375 C48.580211 135.79987191 47.31283249 137.07637258 46.04551697 138.35293579 C43.4042119 141.01061933 40.75864504 143.66397868 38.1105957 146.31494141 C34.73200538 149.69893715 31.36991693 153.09884371 28.01146793 156.50281334 C25.40586776 159.13824511 22.78899741 161.76226442 20.16894341 164.38331985 C18.92459023 165.6318547 17.68432096 166.88447469 16.44841194 168.14136887 C2.68862995 182.1162901 2.68862995 182.1162901 -7.22265625 183.42578125 C-8.15980469 183.38839844 -9.09695313 183.35101563 -10.0625 183.3125 C-11.57650391 183.26222656 -11.57650391 183.26222656 -13.12109375 183.2109375 C-15.63984189 183.02638879 -18.12265934 182.77356753 -20.625 182.4375 C-23.86226088 181.69842833 -23.86226088 181.69842833 -26 183 C-33.91954427 183.68426657 -40.43185716 183.67870032 -47 179 C-54.62144845 172.56297279 -61.6764922 165.50106357 -68.73828125 158.46484375 C-69.54260621 157.66475986 -69.54260621 157.66475986 -70.36318016 156.84851265 C-73.19213198 154.03440205 -76.01831508 151.21754737 -78.84204102 148.39819336 C-81.73780372 145.50794348 -84.64275923 142.62711832 -87.54989338 139.74831295 C-89.80701996 137.50988395 -92.05733883 135.26470291 -94.30589867 133.01767159 C-95.37381157 131.95276141 -96.44419627 130.89032344 -97.51720619 129.83054924 C-112.73404864 114.78835317 -112.73404864 114.78835317 -113.1328125 106.109375 C-113.10916248 95.93986644 -113.10916248 95.93986644 -112.4375 91.875 C-111.76743991 88.93876272 -111.76743991 88.93876272 -113 86 C-113.57946094 78.37785993 -113.66500897 71.62905737 -108.71295166 65.37440491 C-102.97283229 58.79507009 -96.82457719 52.62271456 -90.671875 46.43359375 C-90.08523323 45.84287645 -89.49859146 45.25215916 -88.89417267 44.64354134 C-85.7916033 41.52024373 -82.68586106 38.40014019 -79.57763672 35.2824707 C-76.39438198 32.08814571 -73.22298929 28.88230689 -70.05408859 25.67375088 C-67.58988854 23.18324289 -65.11668756 20.70181745 -62.64109039 18.2226429 C-61.46890417 17.04563182 -60.30005397 15.86528732 -59.13484955 14.68136406 C-42.88769799 -1.81058403 -22.31091559 -13.07323236 0 0 Z M-50.84765625 29.32421875 C-52.15273591 30.63609827 -53.45886063 31.94693889 -54.76597595 33.25679016 C-58.18153719 36.68568421 -61.58140295 40.12974577 -64.97851562 43.5769043 C-67.76397431 46.39793175 -70.56072138 49.20761948 -73.35805607 52.01686382 C-76.6918535 55.36541761 -80.02039437 58.71917234 -83.34765625 62.07421875 C-83.98313951 62.71461279 -84.61862278 63.35500683 -85.27336311 64.01480675 C-87.06149065 65.81916149 -88.8459692 67.62703768 -90.62915039 69.4362793 C-91.42773216 70.24125099 -91.42773216 70.24125099 -92.2424469 71.06248474 C-96.01208951 74.84891276 -96.01208951 74.84891276 -97.3125 79.875 C-97.25407218 83.04045443 -97.25407218 83.04045443 -95.375 85.3125 C-92.29998663 87.49737792 -90.80623735 88.14639374 -87 88 C-84.84657149 86.62180575 -82.92880237 85.06657446 -80.953125 83.4453125 C-78.3186597 81.49580818 -76.25942213 81 -73 81 C-70.25045672 81.96605575 -69.30992243 82.38015514 -68 85 C-67.46213269 88.42890411 -67.27753818 90.88134944 -69.2109375 93.875 C-74.41982982 99.5485353 -80.61354701 102.68409252 -88.30859375 103.23828125 C-91.21860057 103.24856396 -94.09606377 103.17962492 -97 103 C-96.58287636 107.47646107 -93.45101433 109.97040095 -90.42626953 112.96191406 C-89.84572815 113.5477124 -89.26518677 114.13351074 -88.66705322 114.73706055 C-86.74645182 116.67086381 -84.81508605 118.59348969 -82.8828125 120.515625 C-81.54577399 121.8546839 -80.20918113 123.19418791 -78.87301636 124.53411865 C-76.07172949 127.33982891 -73.26508621 130.14003935 -70.45458984 132.93652344 C-66.84721759 136.52678756 -63.253501 140.13037218 -59.66366768 143.73816299 C-56.90677888 146.50587496 -54.14280611 149.26642304 -51.37661362 152.02483368 C-50.04829326 153.35114883 -48.72220872 154.679707 -47.39838028 156.01050568 C-45.55024142 157.86623647 -43.692806 159.71212191 -41.83251953 161.55566406 C-41.00948837 162.38780426 -41.00948837 162.38780426 -40.16983032 163.23675537 C-37.16449873 166.37593495 -37.16449873 166.37593495 -33 167 C-33.05800781 166.17757812 -33.11601562 165.35515625 -33.17578125 164.5078125 C-33.22089844 163.39148438 -33.26601563 162.27515625 -33.3125 161.125 C-33.37050781 160.03445312 -33.42851562 158.94390625 -33.48828125 157.8203125 C-31.86624872 145.12952997 -21.89528054 137.30731655 -13.1875 128.875 C-11.81199394 127.52461512 -10.43763409 126.17306166 -9.06445312 124.8203125 C-5.72270894 121.53324219 -2.36581407 118.26241208 1 115 C-0.48343 111.55323 -2.43050188 109.32656699 -5.08251953 106.69042969 C-5.92324005 105.84986023 -6.76396057 105.00929077 -7.63015747 104.14324951 C-8.53853363 103.24519592 -9.44690979 102.34714233 -10.3828125 101.421875 C-11.31221649 100.4953009 -12.24162048 99.56872681 -13.19918823 98.61407471 C-15.6640385 96.15684211 -18.13483666 93.70567639 -20.60693359 91.2557373 C-23.13090765 88.75226191 -25.64919388 86.24307937 -28.16796875 83.734375 C-33.10643597 78.81732475 -38.051212 73.90666212 -43 69 C-45.49361571 70.20381448 -47.68143083 71.45428722 -50 73 C-53.4103976 73.21314985 -55.74531799 73.084894 -59 72 C-60.48446676 64.82507731 -60.48446676 64.82507731 -58.40576172 61.28491211 C-55.78444335 57.49566392 -52.60437441 54.33524148 -49.3359375 51.10546875 C-48.70265533 50.47264481 -48.06937317 49.83982086 -47.41690063 49.18782043 C-46.0862941 47.86021931 -44.75327375 46.5350335 -43.41796875 45.2121582 C-41.36916438 43.18171669 -39.32858154 41.14327968 -37.2890625 39.10351562 C-35.99266025 37.81202528 -34.69580128 36.52099319 -33.3984375 35.23046875 C-32.78696869 34.62011276 -32.17549988 34.00975677 -31.54550171 33.38090515 C-26.23506012 28.13015951 -26.23506012 28.13015951 -21.27026367 27.60693359 C-16.45775324 27.68537524 -13.91652955 29.94795651 -10.67578125 33.2890625 C-10.09915237 33.85167282 -9.5225235 34.41428314 -8.92842102 34.99394226 C-7.03587739 36.85139584 -5.17397163 38.73644605 -3.3125 40.625 C-2.00230595 41.92980205 -0.69092653 43.23341483 0.62158203 44.53588867 C3.36460533 47.26713158 6.09267397 50.0122832 8.81103516 52.76806641 C12.29241395 56.29502657 15.80848388 59.78484479 19.33656311 63.26501465 C22.05003433 65.94954233 24.74411865 68.65287821 27.43276978 71.36224365 C28.72186593 72.6566669 30.01690514 73.94520007 31.31796265 75.2276001 C33.13571709 77.02497449 34.92575998 78.84612249 36.7109375 80.67578125 C37.25006271 81.19871262 37.78918793 81.72164398 38.34465027 82.26042175 C41.06847056 85.11096688 42.34992478 87.27414848 42.50234985 91.16067505 C42.01254812 94.90409809 41.83165121 96.16987067 39.25146484 98.75341797 C38.60779968 99.41629822 37.96413452 100.07917847 37.30096436 100.762146 C36.54164612 101.50063782 35.78232788 102.23912964 35 103 C34.12966125 103.87819397 33.25932251 104.75638794 32.36260986 105.66119385 C29.81536174 108.22585454 27.2413178 110.76204672 24.66026688 113.29263687 C22.34853856 115.56176267 20.04657742 117.84069532 17.74388695 120.11898613 C13.47317713 124.34418942 9.19850609 128.56520196 4.90771484 132.77001953 C1.90622695 135.71210894 -1.08289559 138.66627421 -4.06422806 141.62878036 C-5.1976195 142.75044983 -6.33552651 143.86757603 -7.47803879 144.97995377 C-9.07182176 146.53269424 -10.64935173 148.10037518 -12.22412109 149.67236328 C-13.12456146 150.55868439 -14.02500183 151.44500549 -14.95272827 152.35818481 C-17.27583418 155.35593855 -17.79324738 157.24601394 -18 161 C-16.87981101 164.36056696 -16.05465901 164.96356066 -13 167 C-10.21555423 167.75383338 -10.21555423 167.75383338 -7 167 C0.56230545 161.66504996 6.94944569 154.21434313 13.48828125 147.6796875 C14.6802827 146.49090567 15.87235654 145.30219642 17.0644989 144.11355591 C19.54810647 141.63590087 22.02967464 139.15622377 24.51000977 136.67529297 C27.6834916 133.50170902 30.86382943 130.33509167 34.04592609 127.17014885 C36.50376155 124.72343715 38.9570333 122.27218863 41.40904808 119.81964493 C42.57998444 118.64988548 43.75253547 117.48173993 44.92675209 116.31527328 C46.56575049 114.68609469 48.19826555 113.05067512 49.8293457 111.41357422 C50.75785843 110.48648651 51.68637115 109.5593988 52.64302063 108.60421753 C58.53498775 102.09420549 59.4024296 96.56869331 59.2578125 88.015625 C58.10604539 74.54344004 41.93320567 62.76542104 32.9609375 53.7578125 C32.46372822 53.25777584 31.96651894 52.75773918 31.45424271 52.2425499 C28.8334593 49.60697808 26.20997596 46.97413229 23.58398438 44.34375 C20.90015559 41.65439999 18.22577206 38.95585338 15.55336571 36.25515938 C13.46675294 34.14981713 11.37335894 32.05131563 9.27812576 29.95455551 C8.28939603 28.96283286 7.30312595 27.96865074 6.319561 26.97180557 C-5.20473735 15.06460185 -5.20473735 15.06460185 -20.5625 10.625 C-21.53316406 10.57601563 -22.50382812 10.52703125 -23.50390625 10.4765625 C-35.35612831 12.25108513 -42.87220134 21.19813462 -50.84765625 29.32421875 Z M-24.28515625 48.1875 C-25.20167969 49.115625 -26.11820312 50.04375 -27.0625 51 C-28.44115234 52.3921875 -28.44115234 52.3921875 -29.84765625 53.8125 C-30.55792969 54.534375 -31.26820313 55.25625 -32 56 C-30.51657 59.44677 -28.56949812 61.67343301 -25.91748047 64.30957031 C-24.65639969 65.5704245 -24.65639969 65.5704245 -23.36984253 66.85675049 C-22.46146637 67.75480408 -21.55309021 68.65285767 -20.6171875 69.578125 C-19.68778351 70.5046991 -18.75837952 71.43127319 -17.80081177 72.38592529 C-15.3359615 74.84315789 -12.86516334 77.29432361 -10.39306641 79.7442627 C-7.86909235 82.24773809 -5.35080612 84.75692063 -2.83203125 87.265625 C2.10643597 92.18267525 7.051212 97.09333788 12 102 C15.41059403 100.39464713 17.61792484 98.59481099 20.25 95.875 C20.95640625 95.15054688 21.6628125 94.42609375 22.390625 93.6796875 C22.92171875 93.12539062 23.4528125 92.57109375 24 92 C19.25272015 86.29306727 14.17180505 81.02600679 8.91796875 75.78515625 C8.06318436 74.92941513 7.20839996 74.07367401 6.32771301 73.19200134 C4.53293621 71.39654746 2.73690964 69.60234209 0.93969727 67.80932617 C-1.82456976 65.0504538 -4.58341159 62.28623611 -7.34179688 59.52148438 C-9.08822076 57.77572058 -10.83495444 56.03026663 -12.58203125 54.28515625 C-13.41112503 53.45403824 -14.24021881 52.62292023 -15.09443665 51.76661682 C-15.85580429 51.00840134 -16.61717194 50.25018585 -17.40161133 49.46899414 C-18.0741243 48.79727676 -18.74663727 48.12555939 -19.43952942 47.43348694 C-21.91831738 45.1564109 -21.68494246 45.69840646 -24.28515625 48.1875 Z " fill="#000000" transform="translate(437,5)"/>
<path d="M0 0 C3.23726088 0.73907167 3.23726088 0.73907167 5.375 -0.5625 C13.29454427 -1.24676657 19.80685716 -1.24120032 26.375 3.4375 C33.99644845 9.87452721 41.0514922 16.93643643 48.11328125 23.97265625 C48.64949789 24.50604551 49.18571453 25.03943478 49.73818016 25.58898735 C52.56713198 28.40309795 55.39331508 31.21995263 58.21704102 34.03930664 C61.11280372 36.92955652 64.01775923 39.81038168 66.92489338 42.68918705 C69.18201996 44.92761605 71.43233883 47.17279709 73.68089867 49.41982841 C74.74881157 50.48473859 75.81919627 51.54717656 76.89220619 52.60695076 C92.10904864 67.64914683 92.10904864 67.64914683 92.5078125 76.328125 C92.48416248 86.49763356 92.48416248 86.49763356 91.8125 90.5625 C91.14243991 93.49873728 91.14243991 93.49873728 92.375 96.4375 C92.95446094 104.05964007 93.04000897 110.80844263 88.08795166 117.06309509 C82.34783229 123.64242991 76.19957719 129.81478544 70.046875 136.00390625 C69.46023323 136.59462355 68.87359146 137.18534084 68.26917267 137.79395866 C65.1666033 140.91725627 62.06086106 144.03735981 58.95263672 147.1550293 C55.76938198 150.34935429 52.59798929 153.55519311 49.42908859 156.76374912 C46.96488854 159.25425711 44.49168756 161.73568255 42.01609039 164.2148571 C40.84390417 165.39186818 39.67505397 166.57221268 38.50984955 167.75613594 C28.31967535 178.09984593 18.25255938 187.44836388 2.96899414 187.86938477 C-15.59431462 187.91507295 -26.5252837 178.68871817 -39.20574474 166.13061619 C-40.83462882 164.50585687 -42.4586144 162.87631449 -44.08203125 161.24609375 C-45.23991869 160.08955817 -46.39810247 158.93331921 -47.55656433 157.77735901 C-49.96406107 155.37278556 -52.36796818 152.9646975 -54.76928711 150.55395508 C-57.8296882 147.48212239 -60.89903681 144.41941166 -63.97111988 141.35926723 C-66.35723123 138.98041755 -68.73851637 136.59678237 -71.11841393 134.21171761 C-72.24793945 133.08086948 -73.37892038 131.95147292 -74.51145363 130.82363701 C-86.0972909 119.27536822 -96.0481385 108.609372 -96.1875 91.375 C-95.82788205 71.88693989 -83.33721517 60.83534927 -70.33203125 47.87890625 C-69.05477757 46.60030222 -67.77782064 45.32140168 -66.50114441 44.04222107 C-63.84261782 41.38076597 -61.18055849 38.72291134 -58.51586914 36.06762695 C-55.10628325 32.66949258 -51.70583491 29.26237742 -48.30794239 25.85255527 C-45.680425 23.21780722 -43.04815856 20.58784535 -40.41443443 17.9593029 C-39.15829518 16.70449378 -37.90362878 15.4482084 -36.65049171 14.19040108 C-34.90175914 12.43657704 -33.14672249 10.68931132 -31.38989258 8.94360352 C-30.62219543 8.16983368 -30.62219543 8.16983368 -29.83898926 7.38043213 C-20.98979359 -1.36550894 -11.93165892 -1.68266985 0 0 Z M-34.078125 34.65234375 C-34.66155418 35.23169741 -35.24498337 35.81105106 -35.84609222 36.40796089 C-38.9270217 39.46817522 -42.0047681 42.53155117 -45.08007812 45.59741211 C-48.24108703 48.74731438 -51.41361388 51.8853503 -54.58879471 55.02095699 C-57.04567505 57.45163054 -59.49356855 59.89120766 -61.93917084 62.33322334 C-63.10471662 63.4939233 -64.27361597 64.65126647 -65.44602203 65.80503654 C-75.34554681 75.24697036 -75.34554681 75.24697036 -80.15625 87.78125 C-79.95568056 108.03876353 -61.42891515 120.79749458 -47.99926758 134.19360352 C-45.42868689 136.75879463 -42.86353407 139.32932731 -40.29882812 141.90039062 C-38.64354992 143.55500844 -36.98796175 145.20931625 -35.33203125 146.86328125 C-34.57662552 147.62071121 -33.82121979 148.37814117 -33.04292297 149.15852356 C-28.39553899 153.78569268 -23.59672918 158.16279726 -18.625 162.4375 C-14.4375 166.25 -14.4375 166.25 -12.58203125 167.95703125 C-6.82205941 172.31437522 -0.54554664 172.00959852 6.375 171.4375 C17.5481282 168.27178034 25.93482205 157.02647579 33.93359375 149.01171875 C35.1303118 147.81567547 36.32717816 146.61978057 37.52418518 145.42402649 C40.01604063 142.93363645 42.50610043 140.44146881 44.99487305 137.94799805 C48.18818977 134.74894734 51.38602568 131.55445746 54.58518887 128.36125469 C57.04988564 125.90016317 59.51220609 123.4367053 61.97380257 120.9725132 C63.15285882 119.7927895 64.33265937 118.61380919 65.5132122 117.43558311 C67.15503439 115.79629085 68.79363361 114.15384447 70.43139648 112.51049805 C71.83082741 111.10987373 71.83082741 111.10987373 73.25852966 109.68095398 C75.73310177 107.0579129 76.29908411 106.13592619 76.6875 102.5625 C76.62907218 99.39704557 76.62907218 99.39704557 74.75 97.125 C71.61966964 94.9008179 70.26238714 94.21745922 66.375 94.4375 C64.00188145 96.10907621 61.83783788 97.95920021 59.62109375 99.83203125 C57.375 101.4375 57.375 101.4375 53.5 102.0625 C50.375 101.4375 50.375 101.4375 48.5 100.1875 C46.64904887 97.30824269 46.1699601 95.52128232 46.8125 92.125 C50.39406334 85.96471106 56.55784447 81.33736302 63.375 79.4375 C67.72145275 79.2130353 72.02762945 79.26099022 76.375 79.4375 C74.66869953 70.01536758 63.40694536 62.3224461 56.859375 55.7890625 C55.75540846 54.68442094 54.65159028 53.57963109 53.5479126 52.47470093 C51.25003182 50.17535558 48.95037655 47.87780431 46.64941406 45.58154297 C43.70156778 42.63942702 40.75827961 39.69279819 37.81628036 36.74483681 C35.54473257 34.46967842 33.27081222 32.19690336 30.99616241 29.92484665 C29.90937174 28.83872212 28.82332084 27.75185684 27.73802948 26.66423416 C26.22587101 25.14953734 24.71054656 23.63808055 23.19433594 22.12744141 C22.33386658 21.26776764 21.47339722 20.40809387 20.58685303 19.52236938 C17.04875752 16.15692797 17.04875752 16.15692797 12.375 15.4375 C12.43300781 16.25992187 12.49101563 17.08234375 12.55078125 17.9296875 C12.61845703 19.60417969 12.61845703 19.60417969 12.6875 21.3125 C12.74550781 22.40304687 12.80351563 23.49359375 12.86328125 24.6171875 C11.24124872 37.30797003 1.27028054 45.13018345 -7.4375 53.5625 C-8.81300606 54.91288488 -10.18736591 56.26443834 -11.56054688 57.6171875 C-14.90229106 60.90425781 -18.25918593 64.17508792 -21.625 67.4375 C-20.14157 70.88427 -18.19449812 73.11093301 -15.54248047 75.74707031 C-14.28139969 77.0079245 -14.28139969 77.0079245 -12.99484253 78.29425049 C-12.08646637 79.19230408 -11.17809021 80.09035767 -10.2421875 81.015625 C-8.84808151 82.40548615 -8.84808151 82.40548615 -7.42581177 83.82342529 C-4.9609615 86.28065789 -2.49016334 88.73182361 -0.01806641 91.1817627 C2.50590765 93.68523809 5.02419388 96.19442063 7.54296875 98.703125 C12.48143597 103.62017525 17.426212 108.53083788 22.375 113.4375 C25.0655528 112.21742056 25.0655528 112.21742056 27.375 110.4375 C34.65265237 109.85059255 34.65265237 109.85059255 37.375 112.0625 C38.65585065 115.10452028 38.68591524 117.15130215 38.375 120.4375 C36.82592773 122.78686523 36.82592773 122.78686523 34.62109375 125.05859375 C33.79851074 125.9182373 32.97592773 126.77788086 32.12841797 127.66357422 C31.21979004 128.57896973 30.31116211 129.49436523 29.375 130.4375 C28.41877422 131.41748856 27.46322079 132.39813356 26.50830078 133.37939453 C24.0173307 135.92648726 21.50366144 138.44970617 18.97924805 140.96362305 C17.41138932 142.52601972 15.8490797 144.09382806 14.28710938 145.66210938 C13.28677961 146.66177993 12.28614056 147.6611411 11.28515625 148.66015625 C9.94142944 150.00219116 9.94142944 150.00219116 8.57055664 151.37133789 C5.30831381 154.44132133 2.98485036 154.86870057 -1.52285767 154.79522705 C-5.21189385 154.16745413 -7.44785425 151.72726287 -9.94921875 149.1484375 C-10.81416206 148.30452202 -10.81416206 148.30452202 -11.69657898 147.44355774 C-13.58912261 145.58610416 -15.45102837 143.70105395 -17.3125 141.8125 C-18.62269405 140.50769795 -19.93407347 139.20408517 -21.24658203 137.90161133 C-23.98960533 135.17036842 -26.71767397 132.4252168 -29.43603516 129.66943359 C-32.91741395 126.14247343 -36.43348388 122.65265521 -39.96156311 119.17248535 C-42.67503433 116.48795767 -45.36911865 113.78462179 -48.05776978 111.07525635 C-49.34686593 109.7808331 -50.64190514 108.49229993 -51.94296265 107.2098999 C-53.76071709 105.41252551 -55.55075998 103.59137751 -57.3359375 101.76171875 C-57.87506271 101.23878738 -58.41418793 100.71585602 -58.96965027 100.17707825 C-61.69347056 97.32653312 -62.97492478 95.16335152 -63.12734985 91.27682495 C-62.63754812 87.53340191 -62.45665121 86.26762933 -59.87646484 83.68408203 C-59.23279968 83.02120178 -58.58913452 82.35832153 -57.92596436 81.675354 C-56.786987 80.56761627 -56.786987 80.56761627 -55.625 79.4375 C-54.75466125 78.55930603 -53.88432251 77.68111206 -52.98760986 76.77630615 C-50.44036174 74.21164546 -47.8663178 71.67545328 -45.28526688 69.14486313 C-42.97353856 66.87573733 -40.67157742 64.59680468 -38.36888695 62.31851387 C-34.09817713 58.09331058 -29.82350609 53.87229804 -25.53271484 49.66748047 C-22.53122695 46.72539106 -19.54210441 43.77122579 -16.56077194 40.80871964 C-15.4273805 39.68705017 -14.28947349 38.56992397 -13.14696121 37.45754623 C-11.55317824 35.90480576 -9.97564827 34.33712482 -8.40087891 32.76513672 C-7.05021835 31.43565506 -7.05021835 31.43565506 -5.67227173 30.07931519 C-3.34072453 27.07066875 -2.78369967 25.21357931 -2.625 21.4375 C-4.35844875 17.70906036 -4.35844875 17.70906036 -7.625 15.4375 C-17.69130168 13.5201092 -27.44831074 28.06198762 -34.078125 34.65234375 Z M-37.0078125 82.625 C-38.36519531 84.0171875 -38.36519531 84.0171875 -39.75 85.4375 C-40.66007812 86.365625 -41.57015625 87.29375 -42.5078125 88.25 C-43.20648438 88.971875 -43.90515625 89.69375 -44.625 90.4375 C-39.87363726 96.15450538 -34.77885413 101.41439423 -29.5078125 106.65234375 C-28.65065643 107.50808487 -27.79350037 108.36382599 -26.91036987 109.24549866 C-24.19260046 111.95770465 -21.47136109 114.6663983 -18.75 117.375 C-16.89820658 119.22177369 -15.04664166 121.06877653 -13.1953125 122.91601562 C-8.67451565 127.42583201 -4.15087054 131.93277569 0.375 136.4375 C1.49177492 135.48802441 2.60744654 134.53725103 3.72265625 133.5859375 C4.34406494 133.05661621 4.96547363 132.52729492 5.60571289 131.98193359 C7.6231965 130.22084607 9.51912108 128.36761408 11.375 126.4375 C9.89356023 123.00449701 7.95638096 120.76578517 5.32421875 118.12792969 C4.07282104 116.8670755 4.07282104 116.8670755 2.79614258 115.58074951 C1.89404053 114.68269592 0.99193848 113.78464233 0.0625 112.859375 C-0.86216064 111.9328009 -1.78682129 111.00622681 -2.73950195 110.05157471 C-4.69321699 108.0949163 -6.65049111 106.14190857 -8.61035156 104.19140625 C-11.12584205 101.68734146 -13.63220549 99.17436276 -16.13600159 96.6586113 C-18.5233264 94.26234056 -20.91822188 91.8736985 -23.3125 89.484375 C-24.66565308 88.12514923 -24.66565308 88.12514923 -26.04614258 86.73846436 C-26.88040771 85.91050354 -27.71467285 85.08254272 -28.57421875 84.22949219 C-29.30987061 83.49543152 -30.04552246 82.76137085 -30.8034668 82.00506592 C-33.68634873 79.52412983 -34.2187536 80.06455248 -37.0078125 82.625 Z " fill="#000000" transform="translate(95.625,324.5625)"/>
<path d="M0 0 C1.14146484 0.00563965 2.28292969 0.0112793 3.45898438 0.01708984 C12.0767682 0.14079595 19.87529189 0.89722023 28.1875 3.3125 C28.88746094 3.51117676 29.58742188 3.70985352 30.30859375 3.91455078 C57.92427716 11.9013223 81.0900491 28.62845479 96.1875 53.3125 C96.53651367 53.88162109 96.88552734 54.45074219 97.24511719 55.03710938 C112.4629849 80.31139289 116.32431719 111.13447383 109.453125 139.71875 C102.39268997 166.39150456 86.13780605 191.82004754 62.1875 206.3125 C61.14335937 206.96605469 60.09921875 207.61960937 59.0234375 208.29296875 C35.42009716 222.68772483 6.48106511 228.23636406 -20.8125 223.1875 C-23.15938371 222.61548051 -25.49313722 221.98750055 -27.8125 221.3125 C-28.5230957 221.10850586 -29.23369141 220.90451172 -29.96582031 220.69433594 C-55.63820091 213.17966808 -79.7328115 197.58067007 -93.8125 174.3125 C-94.46605469 173.26835937 -95.11960938 172.22421875 -95.79296875 171.1484375 C-110.28587728 147.4024167 -115.59796797 118.83833582 -110.6875 91.375 C-110.11372099 89.00782799 -109.486006 86.65325103 -108.8125 84.3125 C-108.61382324 83.61108887 -108.41514648 82.90967773 -108.21044922 82.18701172 C-100.22263401 54.57370297 -83.49456887 31.40874212 -58.8125 16.3125 C-57.95881836 15.78897949 -57.95881836 15.78897949 -57.08789062 15.25488281 C-39.67166145 4.76841852 -20.2742257 -0.10578383 0 0 Z M-68.8125 45.3125 C-69.61300781 46.10269531 -70.41351563 46.89289063 -71.23828125 47.70703125 C-88.71769104 65.91097616 -96.36688734 90.33007671 -96.1640625 115.18457031 C-95.52507656 140.84163063 -84.90335216 163.4281055 -66.8125 181.3125 C-65.62720703 182.51326172 -65.62720703 182.51326172 -64.41796875 183.73828125 C-46.31328914 201.1223766 -21.89120231 208.88685517 2.85083008 208.73217773 C28.14320367 208.05518934 50.02204376 197.65080762 68.1875 180.3125 C68.78949219 179.78527344 69.39148438 179.25804687 70.01171875 178.71484375 C85.3053897 164.77585694 95.24639376 141.28226728 96.31176758 120.93969727 C97.11995856 94.33445055 91.13090717 69.00082581 72.75 48.9375 C70.92746762 47.02621713 69.06646774 45.17002445 67.1875 43.3125 C66.00220703 42.11173828 66.00220703 42.11173828 64.79296875 40.88671875 C46.58902384 23.40730896 22.16992329 15.75811266 -2.68457031 15.9609375 C-28.34163063 16.59992344 -50.9281055 27.22164784 -68.8125 45.3125 Z " fill="#000000" transform="translate(255.8125,143.6875)"/>
<path d="M0 0 C5.64810298 4.76950918 9.4481268 10.06467685 10.2734375 17.4453125 C10.54781363 24.68462123 9.30774197 30.08720994 5 36 C-0.23931925 41.10199838 -5.89380368 44.28029148 -13.3125 44.3125 C-20.74489044 44.16245174 -26.59404133 42.25579315 -32 37 C-37.26471671 30.08065804 -38.99957936 23.58080466 -38 15 C-36.10458164 7.30383821 -31.3108476 2.53626831 -25 -2 C-16.83219112 -6.17079602 -7.5988986 -4.62869419 0 0 Z M-18.8125 13.5625 C-21.43681169 16.48673302 -21.91872313 18.09871003 -22 22 C-20.87981101 25.36056696 -20.05465901 25.96356066 -17 28 C-14.0850745 28.5838196 -14.0850745 28.5838196 -11 28 C-7.63655511 25.51397551 -6.19942251 24.08574477 -5.4375 19.9375 C-6.13644685 16.28744421 -6.98202045 15.14435389 -10 13 C-13.8166059 11.70072991 -15.25788881 11.58771601 -18.8125 13.5625 Z " fill="#000000" transform="translate(310,276)"/>
<path d="M0 0 C5.05826757 3.40547637 8.91388256 7.99362548 11.67578125 13.40234375 C13.02053516 21.63896147 12.58940116 28.21903125 8.17578125 35.46484375 C3.40627207 41.11294673 -1.8888956 44.91297055 -9.26953125 45.73828125 C-16.50883998 46.01265738 -21.91142869 44.77258572 -27.82421875 40.46484375 C-32.92621713 35.2255245 -36.10451023 29.57104007 -36.13671875 22.15234375 C-35.98667049 14.71995331 -34.0800119 8.87080242 -28.82421875 3.46484375 C-20.09576952 -3.17636762 -10.00660382 -4.99441505 0 0 Z M-17.82421875 15.46484375 C-20.16971549 18.98308886 -20.40413278 20.32260069 -19.82421875 24.46484375 C-17.33819426 27.82828864 -15.90996352 29.26542124 -11.76171875 30.02734375 C-8.11166296 29.3283969 -6.96857264 28.4828233 -4.82421875 25.46484375 C-3.65972994 22.56133251 -3.65972994 22.56133251 -3.82421875 19.46484375 C-5.76748034 15.96697289 -6.98824725 14.72608484 -10.82421875 13.52734375 C-13.95580571 13.46210235 -15.30228479 13.66346235 -17.82421875 15.46484375 Z " fill="#000000" transform="translate(227.82421875,274.53515625)"/>
<path d="M0 0 C5.09170274 3.70954175 8.24833733 8.69654357 10.23046875 14.625 C11.17499534 22.83134139 9.94920933 29.50001429 5.41796875 36.375 C-0.01154157 41.95963919 -5.85669012 44.64179253 -13.58203125 45 C-20.18250022 44.81198064 -25.12380644 43.02482268 -30.0390625 38.56640625 C-36.00751695 32.18930086 -38.28337188 26.95851175 -38.0859375 18.21875 C-37.24829115 11.35211821 -34.05511921 6.02965663 -28.76953125 1.625 C-19.82670827 -4.94523729 -9.77733907 -5.47157926 0 0 Z M-20.76953125 16.625 C-21.93402006 19.52851124 -21.93402006 19.52851124 -21.76953125 22.625 C-19.82626966 26.12287086 -18.60550275 27.36375891 -14.76953125 28.5625 C-11.63794429 28.6277414 -10.29146521 28.4263814 -7.76953125 26.625 C-5.42403451 23.10675489 -5.18961722 21.76724306 -5.76953125 17.625 C-8.25555574 14.26155511 -9.68378648 12.82442251 -13.83203125 12.0625 C-17.48208704 12.76144685 -18.62517736 13.60702045 -20.76953125 16.625 Z " fill="#000000" transform="translate(309.76953125,195.375)"/>
<path d="M0 0 C5.92957954 3.15431971 9.21289344 7.61445931 11.9609375 13.66015625 C13.59222144 20.72905332 13.45201611 27.17024608 10.17578125 33.734375 C6.77030488 38.79264257 2.18215577 42.64825756 -3.2265625 45.41015625 C-11.46318022 46.75491016 -18.04325 46.32377616 -25.2890625 41.91015625 C-30.93716548 37.14064707 -34.7371893 31.8454794 -35.5625 24.46484375 C-35.83687613 17.22553502 -34.59680447 11.82294631 -30.2890625 5.91015625 C-21.84611575 -2.31150359 -10.98640472 -4.82056533 0 0 Z M-17.1640625 16.03515625 C-19.48988385 18.74144292 -19.48988385 18.74144292 -19.8515625 21.97265625 C-19.15261565 25.62271204 -18.30704205 26.76580236 -15.2890625 28.91015625 C-12.38555126 30.07464506 -12.38555126 30.07464506 -9.2890625 29.91015625 C-5.79119164 27.96689466 -4.55030359 26.74612775 -3.3515625 22.91015625 C-3.2863211 19.77856929 -3.4876811 18.43209021 -5.2890625 15.91015625 C-9.82982274 12.88298275 -12.72330835 12.7528597 -17.1640625 16.03515625 Z " fill="#000000" transform="translate(227.2890625,194.08984375)"/>
</svg>
