<svg id="Layer_1" data-name="Layer 1" xmlns="http://www.w3.org/2000/svg" viewBox="0 0 512 490"><defs><style>.cls-1,.cls-2,.cls-3,.cls-4,.cls-5,.cls-6,.cls-7{isolation:isolate;}.cls-1{opacity:0.96;}.cls-2,.cls-3,.cls-4,.cls-5,.cls-6,.cls-7{fill-rule:evenodd;}.cls-2{opacity:0.96;}.cls-3{opacity:0.95;}.cls-4{opacity:0.95;}.cls-5{opacity:0.94;}.cls-6{opacity:0.94;}.cls-7{opacity:0.89;}</style></defs><path class="cls-1" d="M503,469.5q-15.5-.75-31-.5.25-81-.5-162a12.58,12.58,0,0,0-4.5-7.5q-9.76-4.33-15.5,4.5-.75,82.5-.5,165H380q.72-44.1-1.5-88a14,14,0,0,0-6.5-4.5q-35-1-70,0a9.23,9.23,0,0,0-7.5,5.5q-.75,43.5-.5,87H224V59H451q-.25,83,.5,166a7.28,7.28,0,0,1,2,3q12.64,7.67,18-6,1-87.49,0-175a10.69,10.69,0,0,0-6.5-8.5q-14-.75-28-.5.25-15.51-.5-31A9,9,0,0,0,431,.5q-92-1-184,0A11.07,11.07,0,0,0,241.5,6q-.75,16-.5,32-15.51-.26-31,.5a17.8,17.8,0,0,0-5.5,4.5q-2.22,80.44-1.5,161H126q.25-17.5-.5-35a11.07,11.07,0,0,0-5.5-5.5q-39-1-78,0a9.22,9.22,0,0,0-5.5,6.5q-.75,149.51-.5,299-13.51-.25-27,.5A10.91,10.91,0,0,0,0,475v10a40.5,40.5,0,0,0,6,4.5q250,1,500,0a40.5,40.5,0,0,0,6-4.5V475A10.91,10.91,0,0,0,503,469.5ZM262,21H416V38H262ZM57,183h48v21H57Zm84,286H118V435h23Zm62,0H162a446.5,446.5,0,0,0-1.5-51,11.42,11.42,0,0,0-4.5-3.5q-26.5-1-53,0a9.22,9.22,0,0,0-5.5,6.5q-.75,24-.5,48H57V225H203Zm156,0H315V397h44Z"/><path class="cls-2" d="M263,94q26-.25,52,.5a9.22,9.22,0,0,1,5.5,6.5q1,24.5,0,49a17.8,17.8,0,0,1-4.5,5.5,332.42,332.42,0,0,1-51,1,15.8,15.8,0,0,1-5.5-3.5,372.62,372.62,0,0,1-1-54A31.12,31.12,0,0,0,263,94Zm16,21v21h21V115Z"/><path class="cls-3" d="M357,94q26-.25,52,.5a9.23,9.23,0,0,1,5.5,7.5q1,23,0,46a12.58,12.58,0,0,1-4.5,7.5,336.37,336.37,0,0,1-51,1,11.13,11.13,0,0,1-6.5-4.5,323.35,323.35,0,0,1-1-50A10.82,10.82,0,0,1,357,94Zm15,21v21h22V115Z"/><path class="cls-2" d="M265,181q24.51-.25,49,.5a17.8,17.8,0,0,1,5.5,4.5,332.42,332.42,0,0,1,1,51,15.8,15.8,0,0,1-3.5,5.5,359,359,0,0,1-53,1,11.42,11.42,0,0,1-4.5-3.5,359,359,0,0,1-1-53A11.44,11.44,0,0,1,265,181Zm14,21v21h21V202Z"/><path class="cls-4" d="M358,181q25-.25,50,.5a17.8,17.8,0,0,1,5.5,4.5,327.19,327.19,0,0,1,1,50,14,14,0,0,1-5.5,7.5q-26,1-52,0a9.23,9.23,0,0,1-5.5-7.5q-1-23.5,0-47A15.5,15.5,0,0,1,358,181Zm14,21v21h22V202Z"/><path class="cls-5" d="M85,247q9.48-1.4,13.5,7,1,66.5,0,133-6.9,9.84-17.5,3.5a29.87,29.87,0,0,1-2.5-4.5q-1-65.5,0-131A15.5,15.5,0,0,1,85,247Z"/><path class="cls-6" d="M126,247q9.48-1.4,13.5,7,1,66,0,132-2.1,7.56-10,7a10.17,10.17,0,0,1-10-7q-1-66,0-132A21.83,21.83,0,0,1,126,247Z"/><path class="cls-5" d="M167,247q9.48-1.4,13.5,7,1,66,0,132-2.15,7.58-10,7a10.17,10.17,0,0,1-10-7q-1-66,0-132A21.83,21.83,0,0,1,167,247Z"/><path class="cls-7" d="M458,255q11.92-1.32,14,10.5-4.06,15-18,8a13.8,13.8,0,0,1-2.5-12.5A12.78,12.78,0,0,1,458,255Z"/><path class="cls-3" d="M267,268q22-.25,44,.5a12,12,0,0,1,8.5,4.5,349.69,349.69,0,0,1,1,52,17.8,17.8,0,0,1-4.5,5.5,336.37,336.37,0,0,1-51,1,15.8,15.8,0,0,1-5.5-3.5,372.62,372.62,0,0,1-1-54A15.07,15.07,0,0,1,267,268Zm12,21h21v22H279Z"/><path class="cls-6" d="M361,268q22-.25,44,.5,8.07.57,9.5,8.5,1,23,0,46a10,10,0,0,1-7.5,8.5q-24,1-48,0a10.64,10.64,0,0,1-7.5-7.5q-1-24,0-48Q353.89,269,361,268Zm11,21h22v22H372Z"/></svg>