<?xml version="1.0" encoding="UTF-8"?>
<!DOCTYPE svg PUBLIC "-//W3C//DTD SVG 1.1//EN" "http://www.w3.org/Graphics/SVG/1.1/DTD/svg11.dtd">
<svg xmlns="http://www.w3.org/2000/svg" version="1.1" width="512px" height="512px" style="shape-rendering:geometricPrecision; text-rendering:geometricPrecision; image-rendering:optimizeQuality; fill-rule:evenodd; clip-rule:evenodd" xmlns:xlink="http://www.w3.org/1999/xlink">
<g><path style="opacity:0.987" fill="#000000" d="M 138.5,84.5 C 175.014,82.1742 203.181,96.1742 223,126.5C 239.699,159.161 238.032,190.827 218,221.5C 189.985,254.464 155.485,263.631 114.5,249C 74.8135,228.462 58.3135,195.962 65,151.5C 75.4417,113.551 99.9417,91.2178 138.5,84.5 Z"/></g>
<g><path style="opacity:0.987" fill="#000000" d="M 330.5,84.5 C 367.014,82.1742 395.181,96.1742 415,126.5C 431.699,159.161 430.032,190.827 410,221.5C 381.985,254.464 347.485,263.631 306.5,249C 266.813,228.462 250.313,195.962 257,151.5C 267.442,113.551 291.942,91.2178 330.5,84.5 Z"/></g>
<g><path style="opacity:0.984" fill="#000000" d="M 126.5,276.5 C 141.17,276.333 155.837,276.5 170.5,277C 180.638,277.924 190.304,280.424 199.5,284.5C 164.832,319.984 148.332,362.651 150,412.5C 150.469,417.209 151.635,421.709 153.5,426C 114.5,426.667 75.5,426.667 36.5,426C 28.6667,423.5 23.5,418.333 21,410.5C 16.9184,360.674 35.4184,321.841 76.5,294C 92.1699,284.983 108.837,279.15 126.5,276.5 Z"/></g>
<g><path style="opacity:0.99" fill="#000000" d="M 306.5,276.5 C 329.502,276.333 352.502,276.5 375.5,277C 427.369,284.334 463.202,312.168 483,360.5C 488.938,376.671 491.271,393.338 490,410.5C 487.5,418.333 482.333,423.5 474.5,426C 385.5,426.667 296.5,426.667 207.5,426C 199.425,424.222 194.258,419.389 192,411.5C 190.49,359.678 211.657,320.178 255.5,293C 271.618,284.348 288.618,278.848 306.5,276.5 Z"/></g>
</svg>
