<?xml version="1.0" encoding="UTF-8"?>
<svg version="1.1" xmlns="http://www.w3.org/2000/svg" width="512" height="512">
<path d="M0 0 C0.97164597 -0.0098568 0.97164597 -0.0098568 1.96292114 -0.01991272 C4.10077041 -0.03957532 6.23854951 -0.0512953 8.37646484 -0.0612793 C9.47756151 -0.06739259 9.47756151 -0.06739259 10.60090256 -0.07362938 C14.48979151 -0.09446469 18.3786455 -0.1087748 22.26757812 -0.11816406 C26.26198538 -0.1291961 30.25583061 -0.16356544 34.25004005 -0.20333576 C37.34037224 -0.22962891 40.43057337 -0.23786727 43.52100754 -0.24144554 C44.99205679 -0.24628236 46.46310136 -0.25781236 47.93404007 -0.27648354 C61.55674828 -0.43859213 71.14383463 2.33983283 81.14990234 11.7668457 C85.39234141 16.27443721 89.46240234 22.80397656 89.46240234 29.17700195 C90.28331234 29.17423657 91.10422234 29.1714712 91.95000839 29.16862202 C111.9131104 29.1024048 131.87619351 29.05274214 151.83938217 29.02156544 C161.49338471 29.00608836 171.147314 28.98498279 180.80126953 28.95068359 C189.21443869 28.92080696 197.62755481 28.90143307 206.04077554 28.89473647 C210.49662863 28.89082126 214.95232995 28.88160257 219.40813446 28.85981178 C223.60072649 28.83947402 227.79310399 28.83316264 231.98574066 28.83767891 C233.52567713 28.83685249 235.06562066 28.83087064 236.60551453 28.81938553 C238.70632954 28.80448332 240.80633214 28.80803937 242.90716553 28.8162384 C244.6714773 28.81209033 244.6714773 28.81209033 246.47143173 28.80785847 C249.77354356 29.21540278 251.13652106 29.83401627 253.46240234 32.17700195 C254.71556051 35.93647645 254.64412874 39.46981473 254.66552734 43.38793945 C254.67122742 44.1930899 254.67692749 44.99824036 254.68280029 45.82778931 C254.69224171 47.53076873 254.69878087 49.23376635 254.70263672 50.93676758 C254.71234035 53.53540068 254.74337018 56.13324198 254.77490234 58.73168945 C254.78143301 60.38793477 254.78668323 62.04418572 254.79052734 63.70043945 C254.80287415 64.4745517 254.81522095 65.24866394 254.82794189 66.04623413 C254.80923195 70.60172846 254.3119496 73.5669395 251.46240234 77.17700195 C249.16586535 78.32527045 247.87927067 78.2926137 245.32958984 78.2746582 C244.52392578 78.27143555 243.71826172 78.26821289 242.88818359 78.26489258 C241.62554687 78.25232422 241.62554687 78.25232422 240.33740234 78.23950195 C239.48791016 78.23499023 238.63841797 78.23047852 237.76318359 78.22583008 C235.66289326 78.21403069 233.56263904 78.19609501 231.46240234 78.17700195 C231.46411109 79.05333944 231.46411109 79.05333944 231.46585435 79.94738072 C231.53296392 114.56029579 231.58444954 149.17319789 231.61559833 183.78616418 C231.61935053 187.94061347 231.62323349 192.09506262 231.62719727 196.24951172 C231.6279842 197.07660046 231.62877113 197.9036892 231.62958191 198.75584123 C231.64264185 212.15435996 231.66629893 225.55284014 231.69386073 238.95133599 C231.72189856 252.69569855 231.73857516 266.44004091 231.74466783 280.1844309 C231.74878764 288.66795367 231.76180764 297.15136749 231.78615174 305.63485674 C231.80198892 311.44942572 231.80680729 317.26393824 231.80290648 323.07852723 C231.80098174 326.4351306 231.80559812 329.7913894 231.82001877 333.14798546 C231.8348834 336.78538996 231.83137759 340.42232339 231.82316589 344.05973816 C231.83190442 345.12296663 231.84064294 346.1861951 231.84964627 347.28164262 C231.79442875 356.29349839 231.79442875 356.29349839 228.46240234 360.17700195 C225.42255032 361.69692797 222.26704207 361.31035894 218.93283081 361.29725647 C217.75420446 361.29853811 217.75420446 361.29853811 216.55176747 361.29984564 C213.90460603 361.30149985 211.25750721 361.29598001 208.61035156 361.29052734 C206.71845501 361.29024543 204.82655835 361.29040328 202.93466187 361.29096985 C197.78617465 361.29125767 192.63771055 361.28536336 187.48922873 361.27839589 C182.11335459 361.27215987 176.73747997 361.27155836 171.36160278 361.27037048 C161.17603206 361.26725791 150.99047202 361.2590455 140.80490601 361.24902099 C129.21136944 361.23785759 117.61783236 361.23234883 106.02429175 361.22732556 C82.17032248 361.21686283 58.31636346 361.19906422 34.46240234 361.17700195 C34.79240234 369.09700195 35.12240234 377.01700195 35.46240234 385.17700195 C38.76240234 386.82700195 42.06240234 388.47700195 45.46240234 390.17700195 C52.06254093 397.49715566 55.13602297 404.44870634 54.80615234 414.37231445 C53.90158758 421.75274061 50.9826481 427.74319087 45.42333984 432.7043457 C37.74375681 438.47168197 29.92885909 439.39258106 20.46240234 438.17700195 C12.29339653 435.76847714 6.62206697 430.58228536 2.36865234 423.3059082 C-0.67051209 416.53813925 -0.77892175 408.93280307 1.52880859 401.95043945 C5.60756048 392.99274459 10.44406658 388.78433626 19.46240234 385.17700195 C19.79240234 377.25700195 20.12240234 369.33700195 20.46240234 361.17700195 C18.08064285 361.18366379 15.69888336 361.19032562 13.24494934 361.19718933 C-9.16616901 361.25844412 -31.57727635 361.30311642 -53.98845959 361.33243847 C-65.51113881 361.3479147 -77.03375665 361.36901872 -88.55639648 361.40332031 C-98.59821832 361.43319946 -108.6399957 361.45257145 -118.68186074 361.45926744 C-124.0001385 361.4631822 -129.31828907 361.47239824 -134.63652611 361.49419212 C-139.64085936 361.51453376 -144.64501288 361.52084043 -149.64938354 361.516325 C-151.48722116 361.51715124 -153.3250647 361.52313068 -155.16286659 361.53461838 C-157.67054145 361.5495262 -160.17753611 361.54596194 -162.68522644 361.5377655 C-163.41383336 361.54650403 -164.14244027 361.55524255 -164.89312619 361.56424588 C-169.26077399 361.52561235 -172.10375788 360.93662226 -175.53759766 358.17700195 C-176.50092974 355.2870057 -176.66200202 353.48386571 -176.66064548 350.48184681 C-176.66263653 349.51097309 -176.66462758 348.54009937 -176.66667897 347.53980523 C-176.6623097 345.936224 -176.6623097 345.936224 -176.65785217 344.30024719 C-176.6587066 343.16653991 -176.65956102 342.03283264 -176.66044134 340.86477059 C-176.66209531 337.04606172 -176.65657608 333.22739627 -176.65112305 329.40869141 C-176.65028506 326.67921928 -176.65095491 323.94974802 -176.65156555 321.22027588 C-176.6520904 315.33369302 -176.64894764 309.44712123 -176.64332771 303.56054115 C-176.63520747 295.04949062 -176.63259695 286.53844545 -176.63133972 278.02739146 C-176.62915003 264.21942981 -176.62249218 250.41147407 -176.61303711 236.60351562 C-176.60386086 223.18880238 -176.59678106 209.77409074 -176.5925293 196.359375 C-176.59213521 195.11946059 -176.59213521 195.11946059 -176.59173317 193.85449741 C-176.59042815 189.70772159 -176.58916443 185.56094575 -176.58792126 181.41416991 C-176.57755122 147.00177634 -176.55993515 112.58938978 -176.53759766 78.17700195 C-177.79056641 78.21180664 -179.04353516 78.24661133 -180.33447266 78.2824707 C-181.9855009 78.31061323 -183.63654366 78.33791289 -185.28759766 78.36450195 C-186.11259766 78.38963867 -186.93759766 78.41477539 -187.78759766 78.44067383 C-193.89631862 78.51456965 -193.89631862 78.51456965 -197.05322266 76.8527832 C-200.32148869 73.16308286 -199.71536608 68.6089025 -199.74072266 63.96606445 C-199.74642273 63.160914 -199.7521228 62.35576355 -199.75799561 61.5262146 C-199.76743702 59.82323518 -199.77397618 58.12023756 -199.77783203 56.41723633 C-199.78753566 53.81860322 -199.81856549 51.22076192 -199.85009766 48.62231445 C-199.85662832 46.96606914 -199.86187855 45.30981818 -199.86572266 43.65356445 C-199.87806946 42.87945221 -199.89041626 42.10533997 -199.90313721 41.30776978 C-199.88442726 36.75227544 -199.38714491 33.78706441 -196.53759766 30.17700195 C-193.71785765 28.76713195 -191.37773075 29.05427884 -188.22286987 29.05674744 C-187.56779265 29.05589301 -186.91271542 29.05503859 -186.23778737 29.05415827 C-184.03284644 29.05250524 -181.82798084 29.05802194 -179.62304688 29.06347656 C-178.04641725 29.0637585 -176.4697875 29.06360058 -174.89315796 29.06303406 C-170.60414555 29.06274633 -166.31516093 29.06863904 -162.02615499 29.07560802 C-157.54715203 29.08184569 -153.06814848 29.08244568 -148.58914185 29.08363342 C-140.10353652 29.08674551 -131.61794403 29.09495726 -123.13234437 29.10498291 C-113.47347505 29.11614783 -103.81460512 29.12165546 -94.15573096 29.12667835 C-74.28301269 29.13713997 -54.41030598 29.15473706 -34.53759766 29.17700195 C-34.35293945 28.50443359 -34.16828125 27.83186523 -33.97802734 27.13891602 C-33.7244043 26.24914062 -33.47078125 25.35936523 -33.20947266 24.44262695 C-32.96293945 23.56380859 -32.71640625 22.68499023 -32.46240234 21.77954102 C-29.18549888 12.55784329 -20.98034908 6.06484734 -12.43212891 1.9387207 C-8.25244617 0.2582297 -4.50156687 0.03790895 0 0 Z M-15.53759766 23.30200195 C-16.11509766 23.98520508 -16.69259766 24.6684082 -17.28759766 25.37231445 C-18.727396 27.08513789 -18.727396 27.08513789 -18.53759766 29.17700195 C11.82240234 29.17700195 42.18240234 29.17700195 73.46240234 29.17700195 C71.64972507 24.64530876 71.09058453 23.41704225 67.64990234 20.48950195 C66.98345703 19.90813477 66.31701172 19.32676758 65.63037109 18.7277832 C61.329051 15.65098306 57.56643977 14.92391449 52.33032227 14.88647461 C51.11523483 14.8737149 49.9001474 14.8609552 48.64823914 14.84780884 C47.34296768 14.84558319 46.03769623 14.84335754 44.69287109 14.84106445 C43.3291256 14.83463031 41.96538146 14.82790149 40.60163879 14.82089233 C37.74619348 14.80893833 34.89086895 14.80520948 32.03540039 14.80639648 C28.39387124 14.80659938 24.75312506 14.77932025 21.11178112 14.74485207 C18.29515597 14.72250471 15.47871679 14.71856134 12.6620121 14.71961594 C10.67241754 14.71613795 8.68288104 14.69452237 6.69340515 14.67251587 C-2.50769762 14.71875086 -9.39030198 15.81710027 -15.53759766 23.30200195 Z M-184.53759766 44.17700195 C-184.53759766 50.44700195 -184.53759766 56.71700195 -184.53759766 63.17700195 C-44.61759766 63.17700195 95.30240234 63.17700195 239.46240234 63.17700195 C239.46240234 56.90700195 239.46240234 50.63700195 239.46240234 44.17700195 C99.54240234 44.17700195 -40.37759766 44.17700195 -184.53759766 44.17700195 Z M-161.53759766 78.17700195 C-161.53759766 166.61700195 -161.53759766 255.05700195 -161.53759766 346.17700195 C-36.79759766 346.17700195 87.94240234 346.17700195 216.46240234 346.17700195 C216.46240234 257.73700195 216.46240234 169.29700195 216.46240234 78.17700195 C91.72240234 78.17700195 -33.01759766 78.17700195 -161.53759766 78.17700195 Z M19.46240234 402.17700195 C16.67294836 405.40689604 15.56721209 407.44333375 14.96240234 411.67700195 C15.64230247 416.43630282 17.40944707 419.56396567 21.21240234 422.55200195 C25.85527966 423.8416901 29.88856556 423.84151082 34.27490234 421.98950195 C37.96514801 418.93186983 39.29288784 416.5089016 39.89990234 411.73950195 C39.37119859 407.43434285 38.28897466 405.44987517 35.46240234 402.17700195 C29.46864499 398.43090361 25.45615969 398.43090361 19.46240234 402.17700195 Z " fill="#000000" transform="translate(228.53759765625,36.822998046875)"/>
<path d="M0 0 C0.71778122 -0.00807175 1.43556244 -0.01614349 2.1750946 -0.02445984 C3.69572538 -0.03829661 5.21638716 -0.0490206 6.73706055 -0.05688477 C9.05512917 -0.07407717 11.37176344 -0.11796056 13.68945312 -0.16210938 C15.16795828 -0.17223852 16.64647554 -0.18075394 18.125 -0.1875 C18.81475418 -0.20500809 19.50450836 -0.22251617 20.21516418 -0.24055481 C23.73074798 -0.22482483 25.6841244 0.19060171 28.70385742 2.04614258 C30.76171875 4.23828125 30.76171875 4.23828125 31.32421875 7.73828125 C30.66291474 11.85306175 30.06610848 12.78935104 26.76171875 15.23828125 C24.05864383 15.62446166 21.77177507 15.77702615 19.07421875 15.734375 C18.33469971 15.73583023 17.59518066 15.73728546 16.83325195 15.73878479 C15.27323457 15.73712839 13.71320041 15.7255959 12.15332031 15.70483398 C9.7694741 15.67587546 7.38785278 15.68422919 5.00390625 15.69726562 C3.48566631 15.69102774 1.96743337 15.68263639 0.44921875 15.671875 C-0.26129639 15.67481064 -0.97181152 15.67774628 -1.70385742 15.68077087 C-4.78614161 15.6221991 -6.94423323 15.4018751 -9.66015625 13.89086914 C-12.00263273 11.4378643 -12.17132213 9.58623707 -12.23828125 6.23828125 C-9.33389709 0.01460091 -6.36781201 0.06760101 0 0 Z " fill="#000000" transform="translate(72.23828125,82.76171875)"/>
</svg>
