<?xml version="1.0" encoding="UTF-8"?>
<svg version="1.1" xmlns="http://www.w3.org/2000/svg" width="512" height="512">
<path d="M0 0 C1.31525414 -0.01303874 2.63050827 -0.02607747 3.98561859 -0.03951132 C5.44887123 -0.02870056 6.91212045 -0.01741725 8.37536621 -0.00571251 C9.92690191 -0.01147145 11.47843081 -0.01941104 13.02994537 -0.02934873 C17.30036201 -0.05027688 21.57022203 -0.03988008 25.84064102 -0.02441764 C30.44331947 -0.01313232 35.04590034 -0.03055279 39.64855957 -0.04431725 C48.66787311 -0.06658441 57.68697896 -0.06173301 66.70630074 -0.04725404 C74.03456455 -0.03597546 81.36277004 -0.03442491 88.69104004 -0.03987312 C90.2537985 -0.04102237 90.2537985 -0.04102237 91.84812784 -0.04219484 C93.9644108 -0.04379342 96.08069374 -0.04541448 98.19697666 -0.04705779 C118.05498496 -0.06132548 137.91287796 -0.04490657 157.77086735 -0.01805596 C174.82073201 0.00428373 191.87042649 0.00040389 208.92028809 -0.02264977 C228.70581618 -0.04938976 248.49124316 -0.05995209 268.2767868 -0.04458845 C270.38541156 -0.04299565 272.49403634 -0.0414238 274.60266113 -0.03987312 C275.64022379 -0.03910175 276.67778646 -0.03833037 277.74679041 -0.03753562 C285.06872637 -0.03321321 292.39059836 -0.0405168 299.71252441 -0.05227089 C308.6320112 -0.06627444 317.55127789 -0.06254122 326.47073936 -0.03586717 C331.02418511 -0.02270001 335.57726352 -0.01762571 340.13070679 -0.03411293 C344.29569962 -0.04896589 348.45998321 -0.04090217 352.62491131 -0.01422517 C354.13493998 -0.00862029 355.64502805 -0.01152545 357.15501881 -0.02360411 C359.20120554 -0.0387217 361.24755913 -0.02028437 363.29370117 0 C365.00146854 0.00121764 365.00146854 0.00121764 366.74373627 0.00245988 C369.64685059 0.6292057 369.64685059 0.6292057 372.01263672 2.90840399 C373.60630001 5.56169308 374.14695035 6.76913263 374.14742184 9.79123878 C374.15723613 10.59232472 374.16705042 11.39341066 374.17716211 12.21877193 C374.1675571 13.08793334 374.1579521 13.95709475 374.14805603 14.85259438 C374.15359043 15.78438861 374.15912482 16.71618284 374.16482693 17.67621326 C374.17844584 20.80013787 374.16345719 23.92326527 374.14855957 27.04717445 C374.15234228 29.28607968 374.15784193 31.52498258 374.16493225 33.76387978 C374.17891022 39.84646931 374.16770045 45.92877672 374.15122104 52.01135063 C374.13738545 58.37249672 374.14382892 64.73362618 374.14735413 71.09478188 C374.15005742 81.77785868 374.13665783 92.4608118 374.11340332 103.14385414 C374.08948274 114.13413091 374.08239914 125.12425914 374.09289551 136.11455727 C374.1055234 149.36040402 374.10301282 162.60616467 374.0872364 175.85201454 C374.08147317 180.91092979 374.08156196 185.96979533 374.0863018 191.02871132 C374.09106902 196.9844243 374.08098026 202.9399313 374.05934715 208.89560509 C374.05377567 211.08335488 374.05331728 213.27112445 374.05830002 215.45887566 C374.06424177 218.44141914 374.05176867 221.42333055 374.03453064 224.40581703 C374.04354571 225.70955914 374.04354571 225.70955914 374.0527429 227.03963947 C374.00348358 231.7151398 373.70115306 234.83980347 370.64685059 238.6292057 C367.88484097 240.01021051 365.66382721 239.75723144 362.57103157 239.76063347 C360.6145737 239.76639519 360.6145737 239.76639519 358.61859143 239.7722733 C357.15731814 239.77149296 355.6960449 239.77061416 354.23477173 239.7696476 C352.69322029 239.77222967 351.15166953 239.77524239 349.6101197 239.778651 C345.3581689 239.78674273 341.10623496 239.78851177 336.85427737 239.78924847 C332.27477484 239.79109524 327.69528114 239.79864062 323.11578369 239.80538368 C313.09529317 239.8189826 303.07480663 239.82499405 293.05430841 239.82939434 C286.80179795 239.83215394 280.54928905 239.83639075 274.29677963 239.84089851 C256.99758819 239.85309285 239.698398 239.86339208 222.39920235 239.86677361 C221.29139223 239.86699317 220.18358211 239.86721274 219.04220199 239.86743896 C217.37643322 239.86776637 217.37643322 239.86776637 215.67701256 239.8681004 C213.42656143 239.86854388 211.17611031 239.86899044 208.92565918 239.86944008 C207.8093495 239.86966151 206.69303982 239.86988294 205.54290257 239.87011108 C187.44590585 239.87406091 169.34894934 239.89151985 151.25196816 239.9147996 C132.6880402 239.938488 114.12413245 239.9509743 95.56018913 239.95214152 C85.13074229 239.95305966 74.70134787 239.95884684 64.27191544 239.97696114 C55.39270027 239.99232823 46.51355371 239.99750269 37.63432778 239.98922303 C33.10122017 239.98530455 28.56825084 239.98630423 24.03516006 240.00028038 C19.88876835 240.01294779 15.74261986 240.01188537 11.59622882 239.99968967 C10.09286035 239.99772017 8.58947506 240.00086837 7.08613028 240.00953403 C5.04889861 240.02053757 3.01158747 240.01139439 0.97435188 240.0011425 C-0.15916832 240.00173959 -1.29268852 240.00233668 -2.46055782 240.00295186 C-5.69863258 239.58456649 -7.05900771 238.91952544 -9.35314941 236.6292057 C-10.6834257 232.63837685 -10.50119723 228.80760019 -10.50032043 224.64632607 C-10.50399712 223.71624068 -10.50767381 222.7861553 -10.51146191 221.82788551 C-10.52251264 218.69801406 -10.52634492 215.56817579 -10.53015137 212.43828773 C-10.53641484 210.19967989 -10.54306154 207.96107308 -10.55006409 205.72246742 C-10.56748162 199.63159813 -10.57802737 193.54073668 -10.58626962 187.44984865 C-10.59141694 183.64715405 -10.59749272 179.8444619 -10.60378075 176.04176903 C-10.62064921 165.51429831 -10.63528528 154.98682873 -10.64252949 144.45934677 C-10.64443938 141.72804322 -10.64635972 138.99673969 -10.64831543 136.26543617 C-10.64904104 135.24715801 -10.64904104 135.24715801 -10.64978131 134.20830856 C-10.65808567 123.20579708 -10.6834307 112.20339418 -10.71589611 101.20093013 C-10.74895207 89.90633758 -10.76664392 78.61179822 -10.77017373 67.31715095 C-10.77252863 60.97497169 -10.7815467 54.63296415 -10.8066349 48.29083061 C-10.82984601 42.32693402 -10.83417686 36.36332306 -10.82387352 30.39939308 C-10.82337639 28.20840317 -10.82974856 26.01739951 -10.84342957 23.82645226 C-10.86104143 20.83930652 -10.85409498 17.85319786 -10.84089661 14.86605263 C-10.85186585 13.99552698 -10.8628351 13.12500134 -10.87413675 12.22809613 C-10.86555585 11.42577679 -10.85697496 10.62345745 -10.84813404 9.79682541 C-10.84911085 9.10774035 -10.85008766 8.41865528 -10.85109407 7.70868886 C-9.3823354 1.57495714 -5.89494011 0.00420311 0 0 Z M27.64685059 16.6292057 C31.13325155 19.53920651 34.67127783 21.93794119 38.59997559 24.21123695 C39.16809464 24.54180595 39.73621368 24.87237495 40.32154846 25.2129612 C41.54175736 25.92256316 42.76298507 26.63041561 43.98513794 27.3366642 C47.27201342 29.23660132 50.55078541 31.15044121 53.83044434 33.06279945 C54.49557541 33.45022316 55.16070648 33.83764687 55.84599304 34.23681068 C61.91432675 37.7753587 67.94266658 41.37855855 73.95935059 45.0042057 C82.75430314 50.30133514 91.57278907 55.55670945 100.40670776 60.78844643 C111.190485 67.17556701 121.94487851 73.60589484 132.64685059 80.1292057 C142.52672251 86.1502837 152.44456717 92.10355796 162.39685059 98.0042057 C163.06261108 98.39896095 163.72837158 98.7937162 164.41430664 99.20043373 C169.15729362 102.01204249 173.90189015 104.82092907 178.64685059 107.6292057 C184.06461988 110.83568026 189.48168136 114.04334161 194.89685059 117.2542057 C195.89597473 117.84658028 195.89597473 117.84658028 196.9152832 118.45092201 C206.76901034 124.29613549 216.57749387 130.21185166 226.36096191 136.17376137 C235.67044924 141.84480727 245.02024145 147.4448717 254.39685059 153.0042057 C255.06261108 153.39896095 255.72837158 153.7937162 256.41430664 154.20043373 C261.15729362 157.01204249 265.90189015 159.82092907 270.64685059 162.6292057 C288.44922408 173.16543464 306.210262 183.76062954 323.88122559 194.51592445 C330.85482804 198.75918081 337.84019407 202.98244121 344.83435059 207.1917057 C345.91063721 207.84171547 346.98692383 208.49172523 348.0958252 209.16143227 C349.07559326 209.75021156 350.05536133 210.33899086 351.06481934 210.94561195 C352.3606897 211.72593788 352.3606897 211.72593788 353.68273926 212.52202797 C355.41625863 213.71104868 355.41625863 213.71104868 356.64685059 213.6292057 C359.50735526 195.27192944 359.50735526 195.27192944 354.95495605 178.0642643 C350.05910736 173.75867198 344.05496783 171.50565438 338.06091309 169.10820961 C332.51708362 166.70657067 327.43972469 163.54820896 322.28619385 160.41939735 C319.21989125 158.56856191 316.12291281 156.77043809 313.02966309 154.9651432 C305.94946478 150.81603215 298.89061019 146.63137575 291.83435059 142.4417057 C281.54448389 136.3333755 271.22247153 130.28285713 260.88122559 124.2620182 C253.92102124 120.20898602 246.97033501 116.13978728 240.02185059 112.0667057 C239.0947226 111.52326012 239.0947226 111.52326012 238.14886475 110.96883583 C229.43250206 105.85863891 220.72799482 100.72870234 212.03308105 95.58208656 C204.41663324 91.07676877 196.78288489 86.60120299 189.14685059 82.1292057 C180.6371404 77.14554542 172.13328246 72.15245078 163.64685059 67.1292057 C151.59867573 59.99899579 139.51785111 52.92470068 127.43737793 45.84942055 C121.70065811 42.48945565 115.9649542 39.12775761 110.22940063 35.76580238 C108.47922743 34.73998853 106.72893549 33.71437727 104.9786377 32.68877602 C103.8739917 32.04134438 102.7693457 31.39391273 101.63122559 30.72686195 C100.49870361 30.08168617 99.36618164 29.43651039 98.19934082 28.77178383 C95.65649963 27.290104 93.29398192 25.66849973 90.92443848 23.92412758 C78.33365335 15.02424201 66.58315702 15.43635318 51.58435059 16.0042057 C49.25306718 16.05448733 46.92167803 16.10009314 44.59020996 16.14092445 C38.94007338 16.24988908 33.29397234 16.41617604 27.64685059 16.6292057 Z M111.64685059 16.6292057 C114.76650867 19.20623947 117.85971303 21.46694091 121.36560059 23.48467445 C122.74159424 24.28143593 122.74159424 24.28143593 124.14538574 25.09429359 C125.13586914 25.66268959 126.12635254 26.23108559 127.14685059 26.8167057 C129.31114798 28.06890396 131.47519967 29.32152698 133.63903809 30.5745182 C134.77953613 31.23355141 135.92003418 31.89258461 137.09509277 32.57158852 C143.1689835 36.08597502 149.21925232 39.64082542 155.27185059 43.1917057 C156.51598296 43.92113058 157.76012358 44.6505414 159.00427246 45.37993813 C167.10390787 50.12984557 175.19146742 54.89991927 183.27160645 59.68291664 C191.3963704 64.48913591 199.54261897 69.25842525 207.68917847 74.02755165 C216.6294639 79.26241974 225.5511364 84.52743344 234.45935059 89.8167057 C244.74921728 95.92503591 255.07122964 101.97555428 265.41247559 107.9963932 C272.37267994 112.04942538 279.32336616 116.11862413 286.27185059 120.1917057 C287.19897858 120.73515129 287.19897858 120.73515129 288.14483643 121.28957558 C295.98777872 125.88770682 303.82243295 130.49960633 311.64685059 135.1292057 C314.29880635 136.69680734 316.95100516 138.26399635 319.60339355 139.83086586 C321.84499747 141.15540095 324.08615528 142.48067819 326.32702637 143.8064518 C329.6309152 145.76057079 332.93717924 147.71062452 336.24475098 149.65850258 C337.54269224 150.42368629 338.83990759 151.19010282 340.13635254 151.95781898 C341.95173214 153.03256898 343.76967881 154.10284784 345.58825684 155.17217445 C347.1613562 156.100662 347.1613562 156.100662 348.76623535 157.04790688 C351.35106656 158.46683659 353.88464706 159.60843973 356.64685059 160.6292057 C356.87037662 156.32451462 357.0330834 152.02294037 357.14123535 147.71416664 C357.18633286 146.25100293 357.24763702 144.78824131 357.32580566 143.32647133 C358.03305041 134.97562669 358.03305041 134.97562669 355.03186035 127.54644203 C352.65366321 125.9289667 350.27504667 124.79562728 347.64685059 123.6292057 C345.70624876 122.50897589 343.7756922 121.37121924 341.85388184 120.21904945 C339.72390435 118.9989216 337.59232261 117.78159106 335.45935059 116.5667057 C333.12808756 115.23038394 330.79724964 113.89335554 328.46716309 112.55498695 C327.88567001 112.22126076 327.30417694 111.88753456 326.70506287 111.54369545 C321.38952965 108.48954382 316.10690416 105.38180769 310.83435059 102.2542057 C302.28731849 97.18593794 293.72183179 92.14997579 285.14685059 87.1292057 C275.76347573 81.6342216 266.39106834 76.12129872 257.03356934 70.5823307 C249.41690935 66.07701499 241.78304169 61.60129482 234.14685059 57.1292057 C224.77749806 51.64210109 215.41811775 46.13873702 206.07531738 40.60650063 C200.70708947 37.43031983 195.33048852 34.26878789 189.94763184 31.11748695 C189.2858493 30.72999275 188.62406677 30.34249855 187.94223022 29.9432621 C184.66291602 28.02342607 181.38289278 26.10481448 178.10192871 24.18779945 C176.9046489 23.48730287 175.70738262 22.78678315 174.51013184 22.08623695 C173.45092529 21.46724525 172.39171875 20.84825356 171.30041504 20.21050453 C169.38406896 19.06852518 167.50299407 17.86663469 165.64685059 16.6292057 C163.16106924 16.33905171 163.16106924 16.33905171 160.34924316 16.40215492 C159.26834915 16.40230598 158.18745514 16.40245705 157.07380676 16.40261269 C155.32525642 16.41809654 155.32525642 16.41809654 153.54138184 16.4338932 C152.34704025 16.4367231 151.15269867 16.43955299 149.92216492 16.44246864 C146.10112562 16.45367894 142.28031925 16.47878534 138.45935059 16.5042057 C135.87146334 16.51423439 133.28357243 16.52336043 130.69567871 16.53154945 C124.34598963 16.55362106 117.99643675 16.5871071 111.64685059 16.6292057 Z M198.64685059 16.6292057 C201.7764104 19.01483989 204.95916972 21.06025003 208.36169434 23.0432682 C209.20026978 23.53344933 209.20026978 23.53344933 210.05578613 24.0335331 C211.89733838 25.10933978 213.74085552 26.18173225 215.58435059 27.2542057 C216.8827631 28.01207985 218.181019 28.77022239 219.47912598 29.52861977 C222.18154943 31.10715931 224.88464593 32.68453679 227.58825684 34.26104164 C233.31675257 37.60232219 239.03842176 40.9552405 244.75942993 44.30932045 C245.98094533 45.02545094 247.2025238 45.74147385 248.42416382 46.45739174 C257.04817235 51.51132568 265.6599879 56.58549275 274.26184082 61.67705727 C281.87789371 66.1821119 289.51127377 70.65736548 297.14685059 75.1292057 C305.80125739 80.19806868 314.45091171 85.27467223 323.08435059 90.3792057 C324.38215454 91.14623817 324.38215454 91.14623817 325.70617676 91.92876625 C330.42682715 94.72027279 335.14358835 97.51822533 339.85778809 100.32061195 C340.87816162 100.92614906 341.89853516 101.53168617 342.9498291 102.15557289 C344.92016239 103.32495379 346.88944327 104.4961102 348.85754395 105.66924477 C349.73289795 106.18841469 350.60825195 106.70758461 351.51013184 107.24248695 C352.28655029 107.70437416 353.06296875 108.16626137 353.86291504 108.64214516 C355.45288221 109.70989528 355.45288221 109.70989528 356.64685059 109.6292057 C356.87048988 105.60981507 357.03313545 101.59285799 357.14123535 97.56865883 C357.18631225 96.20245715 357.24760229 94.83668541 357.32580566 93.47197914 C358.00258653 85.56960538 358.00258653 85.56960538 355.02087402 78.60235023 C352.64557811 76.98759859 350.26000842 75.81945907 347.64685059 74.6292057 C345.76604183 73.54206978 343.89399892 72.43966752 342.02966309 71.3245182 C339.94517456 70.13187795 337.85916075 68.94190073 335.77185059 67.7542057 C333.45336077 66.42611462 331.13544413 65.097096 328.81872559 63.76592445 C328.22703583 63.42608025 327.63534607 63.08623604 327.02572632 62.73609352 C320.65659156 59.07100187 314.33764468 55.32294354 308.02185059 51.5667057 C301.48678145 47.68138269 294.95093011 43.79838484 288.38513184 39.9651432 C287.38191895 39.37821693 286.37870605 38.79129066 285.34509277 38.18657875 C283.33698959 37.02278428 281.32060497 35.87316419 279.29626465 34.73784828 C274.55749582 32.05768052 270.19424007 29.36986605 266.01794434 25.86748695 C247.17240365 11.00945059 221.29782469 15.49703222 198.64685059 16.6292057 Z M282.64685059 16.6292057 C285.3615955 19.34395061 287.45660565 20.8141068 290.74841309 22.6760807 C291.78344971 23.26614906 292.81848633 23.85621742 293.8848877 24.46416664 C295.00258545 25.09612953 296.1202832 25.72809242 297.27185059 26.3792057 C299.64232493 27.72991329 302.01017417 29.08517347 304.37731934 30.4417057 C305.28439384 30.96108711 305.28439384 30.96108711 306.20979309 31.49096107 C312.38532258 35.03616769 318.48863871 38.69869524 324.58435059 42.3792057 C332.24102989 46.99575066 339.91402163 51.57863243 347.64685059 56.0667057 C348.44856689 56.53366859 349.2502832 57.00063148 350.07629395 57.48174477 C353.18424076 59.64083635 353.18424076 59.64083635 356.64685059 60.6292057 C356.64685059 46.1092057 356.64685059 31.5892057 356.64685059 16.6292057 C332.22685059 16.6292057 307.80685059 16.6292057 282.64685059 16.6292057 Z M6.64685059 24.6292057 C4.03397284 41.81519265 4.03397284 41.81519265 8.14245605 58.00127602 C12.5286946 61.98635442 18.00313484 64.02318122 23.43786621 66.2205143 C28.81035545 68.57894878 33.75065713 71.68069819 38.7590332 74.71679115 C41.83837349 76.572365 44.94695069 78.37759622 48.05310059 80.18779945 C49.31754817 80.92700682 50.58187077 81.66642801 51.84606934 82.40606117 C52.47352051 82.77302101 53.10097168 83.13998085 53.74743652 83.51806068 C59.3614361 86.80221436 64.9729514 90.09061157 70.58435059 93.3792057 C71.19293915 93.73582283 71.80152771 94.09243996 72.42855835 94.45986366 C81.0547773 99.51514704 89.66887336 104.59054998 98.27282715 109.68364906 C106.39719641 114.48960353 114.54302845 119.25866497 122.68917847 124.02755165 C131.6294639 129.26241974 140.5511364 134.52743344 149.45935059 139.8167057 C159.74921728 145.92503591 170.07122964 151.97555428 180.41247559 157.9963932 C187.37267994 162.04942538 194.32336616 166.11862413 201.27185059 170.1917057 C202.19897858 170.73515129 202.19897858 170.73515129 203.14483643 171.28957558 C211.86261 176.40059967 220.56810694 181.53206777 229.26501465 186.67852211 C233.77153652 189.34371375 238.28063211 192.0044212 242.79574585 194.65503883 C244.00884038 195.36735416 245.22150408 196.08040368 246.43374634 196.79416847 C249.54693711 198.62501047 252.66793478 200.4393719 255.80749512 202.22466469 C261.52511872 205.49344944 266.97284437 208.76173918 272.17810059 212.8245182 C291.56707984 227.25869412 314.61377856 223.93010538 337.64685059 222.6292057 C334.1916855 219.74706926 330.69447026 217.36496458 326.79919434 215.11748695 C326.23927795 214.7923864 325.67936157 214.46728584 325.10247803 214.13233376 C323.89590961 213.43193404 322.68836871 212.73320743 321.47994995 212.03600502 C318.20163091 210.14348366 314.93188566 208.23628384 311.66247559 206.32842445 C310.99060715 205.93650917 310.31873871 205.54459389 309.62651062 205.14080238 C302.98142756 201.25589385 296.40371116 197.2657149 289.83435059 193.2542057 C278.2489927 186.18280936 266.59918528 179.2250023 254.91906738 172.31133461 C253.65513774 171.563148 252.39122157 170.81493861 251.12731934 170.0667057 C250.19641479 169.5156768 250.19641479 169.5156768 249.2467041 168.95351601 C244.24313493 165.98896651 239.25580685 162.99786722 234.27108765 160.0017643 C229.91169704 157.38336342 225.54249929 154.78204625 221.16638184 152.1917057 C220.54422287 151.82339638 219.9220639 151.45508705 219.28105164 151.07561684 C218.00170618 150.31832087 216.72235325 149.56103751 215.44299316 148.80376625 C204.47245658 142.30785837 193.53342428 135.76487634 182.64685059 129.1292057 C171.2665866 122.19323771 159.82428184 115.36684219 148.35778809 108.5745182 C139.26964942 103.1906062 130.2032655 97.77193937 121.15124512 92.32744789 C113.41507138 87.67904996 105.65513875 83.07174955 97.89001465 78.47197914 C85.96865545 71.40977728 74.09311543 64.27984282 62.26306152 57.06572914 C51.75220194 50.66341564 41.16835563 44.38580761 30.56677246 38.13506508 C29.28988891 37.38083079 28.01319142 36.62628138 26.73669434 35.8713932 C26.12804535 35.51176491 25.51939636 35.15213661 24.89230347 34.78161049 C20.08787494 31.92726992 15.38753615 28.92718413 10.7232666 25.84844398 C8.76072606 24.46042355 8.76072606 24.46042355 6.64685059 24.6292057 Z M6.64685059 75.6292057 C5.08462377 85.17465192 3.76716054 95.23308332 6.64685059 104.6292057 C11.94180652 111.40578358 20.38675998 114.56319325 28.05847168 117.97100258 C33.8845742 120.66326604 39.32185869 123.97944164 44.83435059 127.2542057 C47.01738053 128.51265635 49.20225987 129.76790467 51.38903809 131.0198307 C57.99328015 134.81964225 64.55474628 138.68900673 71.10852051 142.57500648 C78.77314452 147.11848694 86.45784117 151.62718436 94.14685059 156.1292057 C103.53391043 161.62634777 112.91008258 167.14129475 122.27111816 172.6826725 C129.16278881 176.75933803 136.0693789 180.81023699 142.97940063 184.85567665 C153.23659301 190.86101869 163.48314746 196.88372388 173.70935059 202.9417057 C174.71699463 203.53829994 175.72463867 204.13489418 176.76281738 204.74956703 C177.7673999 205.34535561 178.77198242 205.94114418 179.80700684 206.55498695 C181.40488037 207.47610268 181.40488037 207.47610268 183.03503418 208.4158268 C185.80058986 210.05241763 188.38214119 211.86404009 190.98132324 213.75274086 C204.84362733 223.46316375 216.30997555 224.14143493 232.89685059 223.3792057 C235.21441777 223.3188321 237.53213937 223.26411157 239.84997559 223.2151432 C245.45238229 223.08473574 251.04886191 222.88551783 256.64685059 222.6292057 C253.35642227 219.8932316 250.07162185 217.59261224 246.34997559 215.48467445 C245.32194824 214.89815102 244.2939209 214.31162758 243.23474121 213.7073307 C241.58248535 212.77147133 241.58248535 212.77147133 239.89685059 211.8167057 C237.53556234 210.46977602 235.176736 209.11858314 232.81872559 207.76592445 C232.21874756 207.42193611 231.61876953 207.07794777 231.00061035 206.72353554 C224.99994662 203.27396206 219.0700334 199.7099509 213.14685059 196.1292057 C203.55140668 190.33620157 193.87922389 184.69129831 184.15979004 179.10918617 C176.4681613 174.68908122 168.81577929 170.20789774 161.18518066 165.68340492 C153.52055665 161.13992447 145.83586 156.63122705 138.14685059 152.1292057 C129.63700955 147.14577043 121.13328107 142.15244997 112.64685059 137.1292057 C104.30457988 132.19218063 95.94800806 127.27987813 87.58435059 122.3792057 C86.67204178 121.84462746 86.67204178 121.84462746 85.74130249 121.29924965 C81.37681 118.7420137 77.01187755 116.18552921 72.64685059 113.6292057 C44.12859519 96.92784575 44.12859519 96.92784575 31.64685059 89.5667057 C30.75715576 89.04213783 29.86746094 88.51756996 28.95080566 87.97710609 C22.87791993 84.38530432 16.86909494 80.70353622 10.91247559 76.92217445 C8.79211175 75.46398735 8.79211175 75.46398735 6.64685059 75.6292057 Z M6.64685059 124.6292057 C6.42332455 128.93389679 6.26061777 133.23547104 6.15246582 137.54424477 C6.10736831 139.00740847 6.04606415 140.4701701 5.96789551 141.93194008 C5.26011417 150.28671193 5.26011417 150.28671193 8.26843262 157.71636391 C10.6451348 159.33274667 13.01940862 160.4659503 15.64685059 161.6292057 C17.55220105 162.726119 19.44762629 163.84039956 21.33435059 164.96904945 C23.43715642 166.17065279 25.54139131 167.36975783 27.64685059 168.5667057 C36.54072478 173.65757747 45.37523989 178.82912407 54.14685059 184.1292057 C63.72499842 189.91145429 73.37877559 195.54755327 83.08117676 201.11846352 C111.12507739 217.23119153 111.12507739 217.23119153 116.93746948 221.18891335 C119.98263532 222.80770705 121.75006902 222.99382009 125.17150879 222.96978188 C126.25225174 222.96955528 127.33299469 222.96932869 128.44648743 222.96909523 C129.60186508 222.95361137 130.75724274 222.93812752 131.94763184 222.92217445 C133.13914352 222.91792961 134.33065521 222.91368477 135.55827332 222.90931129 C139.35886355 222.89253663 143.15892097 222.85488529 146.95935059 222.8167057 C149.53811896 222.80165736 152.11689566 222.78796922 154.69567871 222.77569008 C161.01291738 222.74263698 167.32984591 222.69244889 173.64685059 222.6292057 C170.65497971 220.16124787 167.72288638 217.96336008 164.33825684 216.07061195 C163.52099121 215.60953041 162.70372559 215.14844887 161.86169434 214.67339516 C160.9864209 214.18443764 160.11114746 213.69548012 159.20935059 213.1917057 C151.8119771 209.01206126 144.45312823 204.77870995 137.14685059 200.4417057 C129.21446519 195.73622268 121.26734456 191.05680702 113.30734253 186.39824867 C103.13159633 180.44286191 92.97234646 174.46116361 82.83435059 168.4417057 C72.56254201 162.34409526 62.25861622 156.30421616 51.93591309 150.2932682 C45.31156126 146.43564534 38.69235518 142.56928234 32.07696533 138.69631386 C30.80822602 137.95377859 29.53923114 137.21167977 28.2699585 136.47005653 C17.05232026 129.91523917 17.05232026 129.91523917 11.92810059 126.63311195 C9.00316778 124.45547123 9.00316778 124.45547123 6.64685059 124.6292057 Z M6.64685059 175.6292057 C6.64685059 191.1392057 6.64685059 206.6492057 6.64685059 222.6292057 C32.71685059 222.6292057 58.78685059 222.6292057 85.64685059 222.6292057 C82.9096971 219.89205222 80.76066712 218.39728072 77.43981934 216.5120182 C76.3899585 215.91204018 75.34009766 215.31206215 74.25842285 214.69390297 C72.56350708 213.73375282 72.56350708 213.73375282 70.83435059 212.7542057 C68.45023279 211.39320317 66.06817009 210.02861825 63.68591309 208.66436195 C63.0862825 208.321567 62.48665192 207.97877205 61.86885071 207.62558937 C56.45438544 204.52771061 51.07539497 201.37253078 45.70935059 198.1917057 C44.41577637 197.42588173 44.41577637 197.42588173 43.09606934 196.64458656 C38.46420178 193.8996979 33.8367626 191.14739959 29.21064758 188.3928318 C26.70198497 186.89955482 24.19238468 185.4078577 21.68270874 183.91628456 C19.85925237 182.83151965 18.03733303 181.74420511 16.2154541 180.65679359 C15.11386963 180.00186928 14.01228516 179.34694496 12.87731934 178.67217445 C11.89142822 178.08460365 10.90553711 177.49703285 9.88977051 176.89165688 C7.9305779 175.54745572 7.9305779 175.54745572 6.64685059 175.6292057 Z " fill="#000000" transform="translate(74.3531494140625,211.37079429626465)"/>
<path d="M0 0 C1.14304696 -0.00525911 1.14304696 -0.00525911 2.30918577 -0.01062447 C4.88346195 -0.01998862 7.45751438 -0.01500233 10.03180027 -0.01015663 C11.88770072 -0.01389036 13.74359959 -0.01849077 15.59949595 -0.02388728 C20.71572156 -0.03616682 25.83188204 -0.03585101 30.94811904 -0.03349853 C36.45945209 -0.03309161 41.9707639 -0.04411744 47.48208714 -0.05361366 C58.2855134 -0.07025136 69.08891785 -0.07572444 79.89235585 -0.07683842 C88.66990497 -0.07778751 97.44744687 -0.08189081 106.22499371 -0.08823967 C127.04049555 -0.10299018 147.85599347 -0.11528861 168.67150116 -0.11424255 C169.67048345 -0.11419582 169.67048345 -0.11419582 170.68964721 -0.11414814 C174.06533005 -0.11398192 177.4410129 -0.11378383 180.81669574 -0.11357872 C181.8223723 -0.11351889 181.8223723 -0.11351889 182.84836556 -0.11345784 C184.2041811 -0.11337697 185.55999664 -0.11329337 186.91581218 -0.11320706 C208.01607163 -0.1119812 229.11626684 -0.12699968 250.21650791 -0.15435219 C273.90935575 -0.18505269 297.6021676 -0.20226059 321.29504019 -0.20042574 C333.84499755 -0.19976059 346.39488245 -0.20530782 358.94482327 -0.22678185 C369.62829875 -0.24494449 380.31166893 -0.24938154 390.99515312 -0.235763 C396.44978598 -0.22920865 401.90421653 -0.2292047 407.35883045 -0.2464695 C412.34716802 -0.26209661 417.33514112 -0.25944356 422.32346923 -0.24190123 C424.13299619 -0.23880835 425.94254966 -0.24254885 427.75204539 -0.25362138 C430.20267332 -0.26762997 432.65200277 -0.25724641 435.10258484 -0.24050903 C435.81317469 -0.25044539 436.52376454 -0.26038175 437.25588742 -0.27061921 C440.64151577 -0.22137534 442.33095472 0.0329536 445.02118975 2.16338003 C447.86941571 5.90712243 447.7561491 8.84716816 447.74284744 13.39506912 C447.74460048 14.14243959 447.74635352 14.88981007 447.74815968 15.65982813 C447.75285001 18.1902004 447.75034643 20.72051597 447.74792576 23.25089073 C447.74979221 25.07292831 447.75209224 26.8949655 447.75479108 28.71700203 C447.76093605 33.74426105 447.76077233 38.7715035 447.75959671 43.79876542 C447.75939338 49.21262957 447.76490495 54.62648831 447.76965427 60.04034996 C447.77797616 70.6547452 447.78070981 81.26913488 447.78126665 91.88353311 C447.78174109 100.50759499 447.7837922 109.13165503 447.78696728 117.75571632 C447.79577806 142.18282586 447.80038599 166.60993099 447.7996368 191.03704213 C447.79957687 193.01414764 447.79957687 193.01414764 447.79951572 195.03119469 C447.79947484 196.35086617 447.79943396 197.67053766 447.79939184 199.03019919 C447.79889011 220.42511348 447.8085569 241.82000984 447.82265409 263.21491908 C447.8370001 285.15984378 447.84392526 307.1047599 447.84306031 329.04968941 C447.84272773 341.37942759 447.84550167 353.70914733 447.85623837 366.0388813 C447.86532006 376.53570823 447.86753789 387.03250837 447.86072894 397.52933751 C447.85745189 402.88872091 447.8574495 408.24805283 447.86608219 413.60743141 C447.87389611 418.50874608 447.87256854 423.40996801 447.86379806 428.31128027 C447.86225172 430.08920762 447.86412142 431.86714172 447.86965813 433.64506112 C447.87666242 436.05275022 447.87146887 438.46010897 447.86310196 440.86778641 C447.86807014 441.56582734 447.87303832 442.26386828 447.87815705 442.98306197 C447.85168621 446.56045633 447.70655044 449.2879418 445.61421299 452.25726891 C442.00257171 454.66502976 439.39923834 454.538586 435.22842598 454.51453781 C434.46639467 454.51804389 433.70436337 454.52154996 432.91924021 454.52516228 C430.34496403 454.53452643 427.7709116 454.52954014 425.19662571 454.52469444 C423.34072526 454.52842817 421.48482639 454.53302858 419.62893003 454.53842509 C414.51270442 454.55070464 409.39654394 454.55038882 404.28030694 454.54803634 C398.76897389 454.54762942 393.25766208 454.55865525 387.74633884 454.56815147 C376.94291258 454.58478917 366.13950813 454.59026225 355.33607013 454.59137623 C346.55852101 454.59232532 337.78097911 454.59642862 329.00343227 454.60277748 C308.18793043 454.61752799 287.37243251 454.62982642 266.55692482 454.62878036 C265.55794253 454.62873363 265.55794253 454.62873363 264.53877877 454.62868595 C261.16309593 454.62851973 257.78741308 454.62832164 254.41173024 454.62811653 C253.7412792 454.62807664 253.07082816 454.62803675 252.38006042 454.62799565 C251.02424488 454.62791478 249.66842934 454.62783118 248.3126138 454.62774487 C227.21235435 454.62651901 206.11215914 454.64153749 185.01191807 454.66889 C161.31907023 454.6995905 137.62625838 454.7167984 113.93338579 454.71496356 C101.38342843 454.7142984 88.83354353 454.71984563 76.28360271 454.74131966 C65.60012723 454.7594823 54.91675705 454.76391935 44.23327286 454.75030081 C38.77864 454.74374646 33.32420945 454.74374252 27.86959553 454.76100731 C22.88125796 454.77663442 17.89328486 454.77398137 12.90495675 454.75643905 C11.09542979 454.75334616 9.28587632 454.75708666 7.47638059 454.7681592 C5.02575266 454.78216779 2.5764232 454.77178422 0.12584114 454.75504684 C-0.94004364 454.76995138 -0.94004364 454.76995138 -2.02746144 454.78515702 C-5.41308979 454.73591315 -7.10252875 454.48158421 -9.79276377 452.35115778 C-12.64098973 448.60741538 -12.52772312 445.66736965 -12.51442146 441.11946869 C-12.5161745 440.37209822 -12.51792754 439.62472775 -12.5197337 438.85470968 C-12.52442403 436.32433742 -12.52192045 433.79402185 -12.51949978 431.26364708 C-12.52136623 429.4416095 -12.52366626 427.61957232 -12.5263651 425.79753578 C-12.53251007 420.77027676 -12.53234635 415.74303431 -12.53117073 410.71577239 C-12.5309674 405.30190824 -12.53647897 399.8880495 -12.54122829 394.47418785 C-12.54955018 383.85979261 -12.55228383 373.24540293 -12.55284067 362.63100471 C-12.55331511 354.00694283 -12.55536622 345.38288279 -12.5585413 336.75882149 C-12.56735208 312.33171195 -12.57196001 287.90460682 -12.57121082 263.47749569 C-12.57117087 262.15942534 -12.57113091 260.841355 -12.57108974 259.48334312 C-12.57104886 258.16367164 -12.57100798 256.84400016 -12.57096586 255.48433863 C-12.57046413 234.08942433 -12.58013092 212.69452798 -12.59422811 191.29961874 C-12.60857412 169.35469403 -12.61549928 147.40977792 -12.61463434 125.4648484 C-12.61430175 113.13511022 -12.6170757 100.80539048 -12.62781239 88.47565651 C-12.63689408 77.97882958 -12.63911191 67.48202945 -12.63230296 56.9852003 C-12.62902591 51.6258169 -12.62902352 46.26648498 -12.63765621 40.9071064 C-12.64547013 36.00579174 -12.64414256 31.10456981 -12.63537208 26.20325755 C-12.63382574 24.42533019 -12.63569544 22.64739609 -12.64123216 20.86947669 C-12.64823644 18.46178759 -12.64304289 16.05442885 -12.63467598 13.6467514 C-12.64212825 12.59969 -12.64212825 12.59969 -12.64973107 11.53147584 C-12.62326023 7.95408148 -12.47812446 5.22659601 -10.38578701 2.25726891 C-6.77414573 -0.15049195 -4.17081236 -0.02404818 0 0 Z M4.61421299 17.25726891 C4.61421299 155.85726891 4.61421299 294.45726891 4.61421299 437.25726891 C145.19421299 437.25726891 285.77421299 437.25726891 430.61421299 437.25726891 C430.61421299 298.65726891 430.61421299 160.05726891 430.61421299 17.25726891 C290.03421299 17.25726891 149.45421299 17.25726891 4.61421299 17.25726891 Z " fill="#000000" transform="translate(38.38578701019287,28.74273109436035)"/>
<path d="M0 0 C1.95645787 -0.00576172 1.95645787 -0.00576172 3.95244014 -0.01163983 C5.41371343 -0.01085949 6.87498667 -0.00998069 8.33625984 -0.00901413 C9.87781128 -0.0115962 11.41936204 -0.01460892 12.96091187 -0.01801753 C17.21286267 -0.02610926 21.46479661 -0.02787831 25.7167542 -0.028615 C30.29625673 -0.03046177 34.87575043 -0.03800716 39.45524788 -0.04475021 C49.4757384 -0.05834913 59.49622494 -0.06436058 69.51672316 -0.06876087 C75.76923362 -0.07152047 82.02174253 -0.07575728 88.27425194 -0.08026505 C105.57344338 -0.09245938 122.87263358 -0.10275861 140.17182922 -0.10614014 C141.27963934 -0.1063597 142.38744946 -0.10657927 143.52882958 -0.10680549 C144.63934209 -0.10702377 145.7498546 -0.10724204 146.89401901 -0.10746694 C149.14447014 -0.10791041 151.39492126 -0.10835697 153.64537239 -0.10880661 C154.76168207 -0.10902804 155.87799175 -0.10924947 157.028129 -0.10947761 C175.12512572 -0.11342744 193.22208223 -0.13088638 211.31906341 -0.15416613 C229.88299137 -0.17785453 248.44689912 -0.19034083 267.01084244 -0.19150805 C277.44028928 -0.19242619 287.8696837 -0.19821337 298.29911613 -0.21632767 C307.1783313 -0.23169476 316.05747786 -0.23686922 324.93670379 -0.22858956 C329.4698114 -0.22467108 334.00278073 -0.22567076 338.53587151 -0.23964691 C342.68226322 -0.25231432 346.82841171 -0.2512519 350.97480275 -0.2390562 C352.47817122 -0.23708671 353.98155651 -0.2402349 355.48490129 -0.24890056 C357.52213296 -0.2599041 359.5594441 -0.25076093 361.59667969 -0.24050903 C362.73019989 -0.24110612 363.86372009 -0.24170321 365.03158939 -0.24231839 C368.26966415 0.17606698 369.63003929 0.84110803 371.92418098 3.13142776 C372.8904466 6.03022461 373.05625485 7.88497682 373.07135201 10.90031815 C373.08208496 12.37234947 373.08208496 12.37234947 373.09303474 13.8741188 C373.09572365 14.94951416 373.09841255 16.02490952 373.10118294 17.13289261 C373.10775414 18.26646698 373.11432533 19.40004135 373.12109566 20.56796646 C373.1408368 24.32610003 373.15249172 28.08419367 373.16246223 31.84236526 C373.16653776 33.12418308 373.17061329 34.4060009 373.17481232 35.72666168 C373.19352283 41.8087255 373.20808955 47.89076925 373.21642429 53.97285593 C373.22620053 60.99058086 373.25253335 68.00799071 373.29292518 75.02560461 C373.32672387 81.10660512 373.33856912 87.18747308 373.34262848 93.26856232 C373.3475085 95.85458008 373.3591624 98.44059413 373.37766647 101.02655029 C373.40193162 104.64168233 373.40111576 108.25598586 373.39415169 111.87117386 C373.41336678 113.4781942 373.41336678 113.4781942 373.43297005 115.1176796 C373.38190252 122.37641553 373.38190252 122.37641553 371.01980782 126.27269363 C367.55123561 129.3491734 365.45339156 129.25839186 360.88239002 129.26564884 C359.58566827 129.27010669 358.28894651 129.27456453 356.95293015 129.27915746 C355.50020642 129.27906815 354.04748269 129.27887828 352.59475899 129.27859879 C351.06216965 129.28189634 349.52958119 129.28562167 347.99699384 129.28974026 C343.76977884 129.29978067 339.54257804 129.30348032 335.3153528 129.30612957 C330.76241472 129.31002655 326.20948796 129.31960525 321.65655708 129.32834244 C310.65393724 129.3481233 299.65131646 129.35817479 288.64868328 129.36707023 C283.47159243 129.37145019 278.2945026 129.37681772 273.11741257 129.3820591 C255.91515979 129.39907246 238.71290767 129.41356788 221.51064777 129.42080784 C217.04456964 129.42271783 212.57849152 129.42463815 208.11241341 129.42659378 C206.4473142 129.42731939 206.4473142 129.42731939 204.74857662 129.42805966 C186.75570667 129.4363646 168.76290311 129.46170887 150.77006217 129.49417446 C132.3112208 129.52721028 113.85241321 129.54525342 95.39354211 129.54845208 C85.02384757 129.55062033 74.65424984 129.55941496 64.28458405 129.58491325 C55.45552349 129.60657275 46.62658326 129.61469414 37.79749914 129.60494647 C33.29055371 129.60038803 28.78385679 129.60237722 24.27694511 129.62170792 C20.1532617 129.63924262 16.03000989 129.63842143 11.90632252 129.62281062 C10.41235455 129.62041973 8.91835745 129.62483433 7.42443421 129.63663927 C5.39750744 129.6516674 3.370434 129.63974497 1.34349537 129.62641239 C0.21643041 129.6273892 -0.91063454 129.62836601 -2.07185298 129.62937242 C-5.75648555 129.01859884 -7.41973331 127.70489301 -10.07581902 125.13142776 C-11.28449464 122.71407652 -11.20685737 121.18392273 -11.21626091 118.4827919 C-11.22197105 117.50281235 -11.2276812 116.52283279 -11.23356438 115.51315689 C-11.23468224 114.43416626 -11.23580009 113.35517563 -11.23695183 112.24348831 C-11.24191673 111.11005997 -11.24688164 109.97663162 -11.25199699 108.80885696 C-11.26664676 105.04528072 -11.2734254 101.28174663 -11.27894402 97.51814651 C-11.28469325 94.90981418 -11.29045101 92.30148186 -11.29621696 89.69314957 C-11.30579175 84.91838231 -11.31168639 80.14362418 -11.31471372 75.3688485 C-11.31919293 68.34268088 -11.33673335 61.31670795 -11.36571431 54.29059952 C-11.38994482 48.20479879 -11.39765852 42.11907836 -11.39938927 36.03323174 C-11.40242039 33.44443388 -11.41046429 30.85563693 -11.42357445 28.2668705 C-11.44059752 24.64694664 -11.43876351 21.02749828 -11.43226433 17.40755081 C-11.44147911 16.33463287 -11.45069389 15.26171494 -11.46018791 14.15628433 C-11.4085676 4.99447289 -11.4085676 4.99447289 -8.07581902 1.13142776 C-5.3138094 -0.24957704 -3.09279564 0.00340203 0 0 Z M5.92418098 17.13142776 C5.92418098 48.48142776 5.92418098 79.83142776 5.92418098 112.13142776 C121.42418098 112.13142776 236.92418098 112.13142776 355.92418098 112.13142776 C355.92418098 80.78142776 355.92418098 49.43142776 355.92418098 17.13142776 C240.42418098 17.13142776 124.92418098 17.13142776 5.92418098 17.13142776 Z " fill="#000000" transform="translate(75.07581901550293,60.86857223510742)"/>
<path d="M0 0 C1.22404541 -0.00478363 2.44809082 -0.00956726 3.70922852 -0.01449585 C6.2947722 -0.01789528 8.88035884 -0.00869013 11.46582031 0.01220703 C15.42350096 0.03896784 19.37834508 0.01245625 23.3359375 -0.01953125 C25.84896459 -0.01622716 28.36198992 -0.00982097 30.875 0 C32.05843994 -0.01012115 33.24187988 -0.02024231 34.46118164 -0.03067017 C39.22894121 0.03735499 42.49124381 0.12876406 46.68334961 2.50024414 C49.32510786 7.26496859 49.13381958 11.58321466 49.06640625 16.94921875 C49.06881821 18.04245956 49.07123016 19.13570038 49.07371521 20.2620697 C49.07273713 22.56936273 49.05935304 24.87667933 49.03442383 27.18383789 C49.00008545 30.71776871 49.01377609 34.24920328 49.03320312 37.78320312 C49.02630556 40.02605232 49.016634 42.26889506 49.00390625 44.51171875 C49.01134605 46.09775658 49.01134605 46.09775658 49.01893616 47.71583557 C49.00309982 48.70043259 48.98726349 49.6850296 48.97094727 50.69946289 C48.96474869 51.56374405 48.95855011 52.42802521 48.9521637 53.3184967 C48.24481783 56.54220623 47.07232793 57.71154419 44.4375 59.6640625 C41.78149414 60.17199707 41.78149414 60.17199707 38.72265625 60.18164062 C37.00067017 60.20055359 37.00067017 60.20055359 35.24389648 60.21984863 C34.00841064 60.21175171 32.7729248 60.20365479 31.5 60.1953125 C30.22777588 60.1991394 28.95555176 60.20296631 27.64477539 60.20690918 C24.95436173 60.20963177 22.26540129 60.20426064 19.57519531 60.18554688 C16.13155255 60.16275612 12.68915673 60.17588219 9.24555969 60.19983673 C5.95532872 60.21778802 2.66524725 60.2052097 -0.625 60.1953125 C-1.86048584 60.20340942 -3.09597168 60.21150635 -4.36889648 60.21984863 C-5.51688721 60.20723999 -6.66487793 60.19463135 -7.84765625 60.18164062 C-8.85707275 60.17845825 -9.86648926 60.17527588 -10.90649414 60.17199707 C-14.3353123 59.51626987 -15.507625 58.45667895 -17.5625 55.6640625 C-18.0771637 53.3184967 -18.0771637 53.3184967 -18.09594727 50.69946289 C-18.1117836 49.71486588 -18.12761993 48.73026886 -18.14393616 47.71583557 C-18.13897629 46.65847702 -18.13401642 45.60111847 -18.12890625 44.51171875 C-18.13820412 42.87329262 -18.13820412 42.87329262 -18.14768982 41.20176697 C-18.1547909 38.89273978 -18.15160903 36.58366142 -18.13891602 34.2746582 C-18.12506326 30.74269246 -18.1591046 27.21338204 -18.19726562 23.68164062 C-18.19821694 21.43749935 -18.19635736 19.19335476 -18.19140625 16.94921875 C-18.20466446 15.89388443 -18.21792267 14.83855011 -18.23158264 13.75123596 C-18.1753209 9.31718222 -17.98068698 6.41831234 -15.80834961 2.50024414 C-10.69854475 -0.39037958 -5.77450562 -0.04938541 0 0 Z M-0.5625 17.6640625 C-0.5625 26.2440625 -0.5625 34.8240625 -0.5625 43.6640625 C9.9975 43.6640625 20.5575 43.6640625 31.4375 43.6640625 C31.4375 35.0840625 31.4375 26.5040625 31.4375 17.6640625 C20.8775 17.6640625 10.3175 17.6640625 -0.5625 17.6640625 Z " fill="#000000" transform="translate(358.5625,96.3359375)"/>
<path d="M0 0 C1.22404541 -0.00478363 2.44809082 -0.00956726 3.70922852 -0.01449585 C6.2947722 -0.01789528 8.88035884 -0.00869013 11.46582031 0.01220703 C15.42350096 0.03896784 19.37834508 0.01245625 23.3359375 -0.01953125 C25.84896459 -0.01622716 28.36198992 -0.00982097 30.875 0 C32.05843994 -0.01012115 33.24187988 -0.02024231 34.46118164 -0.03067017 C39.22894121 0.03735499 42.49124381 0.12876406 46.68334961 2.50024414 C49.32510786 7.26496859 49.13381958 11.58321466 49.06640625 16.94921875 C49.06881821 18.04245956 49.07123016 19.13570038 49.07371521 20.2620697 C49.07273713 22.56936273 49.05935304 24.87667933 49.03442383 27.18383789 C49.00008545 30.71776871 49.01377609 34.24920328 49.03320312 37.78320312 C49.02630556 40.02605232 49.016634 42.26889506 49.00390625 44.51171875 C49.01134605 46.09775658 49.01134605 46.09775658 49.01893616 47.71583557 C49.00309982 48.70043259 48.98726349 49.6850296 48.97094727 50.69946289 C48.96474869 51.56374405 48.95855011 52.42802521 48.9521637 53.3184967 C48.24481783 56.54220623 47.07232793 57.71154419 44.4375 59.6640625 C41.78149414 60.17199707 41.78149414 60.17199707 38.72265625 60.18164062 C37.00067017 60.20055359 37.00067017 60.20055359 35.24389648 60.21984863 C34.00841064 60.21175171 32.7729248 60.20365479 31.5 60.1953125 C30.22777588 60.1991394 28.95555176 60.20296631 27.64477539 60.20690918 C24.95436173 60.20963177 22.26540129 60.20426064 19.57519531 60.18554688 C16.13155255 60.16275612 12.68915673 60.17588219 9.24555969 60.19983673 C5.95532872 60.21778802 2.66524725 60.2052097 -0.625 60.1953125 C-1.86048584 60.20340942 -3.09597168 60.21150635 -4.36889648 60.21984863 C-5.51688721 60.20723999 -6.66487793 60.19463135 -7.84765625 60.18164062 C-8.85707275 60.17845825 -9.86648926 60.17527588 -10.90649414 60.17199707 C-14.3353123 59.51626987 -15.507625 58.45667895 -17.5625 55.6640625 C-18.0771637 53.3184967 -18.0771637 53.3184967 -18.09594727 50.69946289 C-18.1117836 49.71486588 -18.12761993 48.73026886 -18.14393616 47.71583557 C-18.13897629 46.65847702 -18.13401642 45.60111847 -18.12890625 44.51171875 C-18.13820412 42.87329262 -18.13820412 42.87329262 -18.14768982 41.20176697 C-18.1547909 38.89273978 -18.15160903 36.58366142 -18.13891602 34.2746582 C-18.12506326 30.74269246 -18.1591046 27.21338204 -18.19726562 23.68164062 C-18.19821694 21.43749935 -18.19635736 19.19335476 -18.19140625 16.94921875 C-18.20466446 15.89388443 -18.21792267 14.83855011 -18.23158264 13.75123596 C-18.1753209 9.31718222 -17.98068698 6.41831234 -15.80834961 2.50024414 C-10.69854475 -0.39037958 -5.77450562 -0.04938541 0 0 Z M-0.5625 17.6640625 C-0.5625 26.2440625 -0.5625 34.8240625 -0.5625 43.6640625 C9.9975 43.6640625 20.5575 43.6640625 31.4375 43.6640625 C31.4375 35.0840625 31.4375 26.5040625 31.4375 17.6640625 C20.8775 17.6640625 10.3175 17.6640625 -0.5625 17.6640625 Z " fill="#000000" transform="translate(270.5625,96.3359375)"/>
<path d="M0 0 C2.55781522 3.83672283 2.25306456 6.94535987 2.1953125 11.38671875 C2.1924826 12.20372757 2.18965271 13.02073639 2.18673706 13.86250305 C2.17554541 16.47098459 2.1504429 19.0791223 2.125 21.6875 C2.11496888 23.45637525 2.10584326 25.22525588 2.09765625 26.99414062 C2.07560942 31.32955949 2.0410867 35.66472145 2 40 C2.93199219 39.96519531 3.86398438 39.93039063 4.82421875 39.89453125 C8.88469905 40.02938115 10.23811793 41.0802961 13 44 C14.16480195 47.02848506 14.14092583 48.50675958 13.25 51.625 C11.16897507 55.57894737 11.16897507 55.57894737 9 57 C6.66715874 57.04791782 4.33277324 57.0511219 2 57 C2.02094727 57.58491211 2.04189453 58.16982422 2.06347656 58.77246094 C2.14680115 61.43146465 2.19870897 64.09019355 2.25 66.75 C2.28351563 67.67039062 2.31703125 68.59078125 2.3515625 69.5390625 C2.45066024 76.37680665 2.45066024 76.37680665 0.1328125 79.58203125 C-2.42761236 81.28429173 -3.91079909 81.9264476 -7 82 C-12.63855422 79.72289157 -12.63855422 79.72289157 -14 77 C-14.08372659 75.47851674 -14.10730027 73.95344222 -14.09765625 72.4296875 C-14.09443359 71.53378906 -14.09121094 70.63789063 -14.08789062 69.71484375 C-14.07951172 68.77769531 -14.07113281 67.84054688 -14.0625 66.875 C-14.05798828 65.93011719 -14.05347656 64.98523438 -14.04882812 64.01171875 C-14.03702357 61.67441613 -14.02055759 59.33723939 -14 57 C-15.65902344 57.05220703 -15.65902344 57.05220703 -17.3515625 57.10546875 C-21 57 -21 57 -23.375 55.3125 C-25.20829306 52.70358296 -25.8448278 51.18103014 -26 48 C-25.22362448 45.03565711 -24.37783439 43.39132848 -22.25 41.1875 C-19.38136103 39.6734961 -17.20157052 39.91689913 -14 40 C-14.02094727 38.90010742 -14.04189453 37.80021484 -14.06347656 36.66699219 C-14.13593635 32.58200119 -14.18182115 28.49706686 -14.21972656 24.41162109 C-14.2398285 22.64427128 -14.26711472 20.87698787 -14.30175781 19.10986328 C-14.35034009 16.56786715 -14.37298226 14.02675104 -14.390625 11.484375 C-14.41127014 10.69569031 -14.43191528 9.90700562 -14.45318604 9.09442139 C-14.45464428 5.52046938 -14.32841389 3.4412025 -12.16308594 0.53222656 C-7.66644892 -2.65297591 -4.99049389 -1.81472505 0 0 Z " fill="#000000" transform="translate(214,86)"/>
<path d="M0 0 C2.16926659 3.25389988 2.24080049 4.13395957 2.1953125 7.88671875 C2.18886719 8.82451172 2.18242187 9.76230469 2.17578125 10.72851562 C2.15902344 11.70498047 2.14226562 12.68144531 2.125 13.6875 C2.11597656 14.67556641 2.10695312 15.66363281 2.09765625 16.68164062 C2.0740843 19.12133765 2.04118022 21.56054697 2 24 C2.93199219 23.96519531 3.86398438 23.93039063 4.82421875 23.89453125 C8.88469905 24.02938115 10.23811793 25.0802961 13 28 C14.16480195 31.02848506 14.14092583 32.50675958 13.25 35.625 C11.16897507 39.57894737 11.16897507 39.57894737 9 41 C6.66715874 41.04791782 4.33277324 41.0511219 2 41 C2.02094727 42.06959961 2.04189453 43.13919922 2.06347656 44.24121094 C2.13594626 48.21438173 2.18182463 52.18749425 2.21972656 56.16113281 C2.23982628 57.87998279 2.26711089 59.59876452 2.30175781 61.31738281 C2.35035034 63.78988489 2.37298435 66.2614821 2.390625 68.734375 C2.41127014 69.50118591 2.43191528 70.26799683 2.45318604 71.05804443 C2.45467719 74.61386382 2.31310134 76.58975739 0.12402344 79.45800781 C-2.42423481 81.30798472 -3.84127157 81.92479218 -7 82 C-12.63855422 79.72289157 -12.63855422 79.72289157 -14 77 C-14.08675538 74.30106819 -14.11557897 71.62830769 -14.09765625 68.9296875 C-14.0962413 68.13345978 -14.09482635 67.33723206 -14.09336853 66.51687622 C-14.08776345 63.9695462 -14.07521014 61.42230353 -14.0625 58.875 C-14.05748565 57.14974085 -14.05292263 55.42448033 -14.04882812 53.69921875 C-14.03779237 49.46611209 -14.02052436 45.23307086 -14 41 C-15.65902344 41.05220703 -15.65902344 41.05220703 -17.3515625 41.10546875 C-21 41 -21 41 -23.375 39.3125 C-25.20829306 36.70358296 -25.8448278 35.18103014 -26 32 C-25.22362448 29.03565711 -24.37783439 27.39132848 -22.25 25.1875 C-19.38136103 23.6734961 -17.20157052 23.91689913 -14 24 C-14.02094727 23.38479492 -14.04189453 22.76958984 -14.06347656 22.13574219 C-14.14677017 19.34066191 -14.19870013 16.54584285 -14.25 13.75 C-14.30027344 12.29787109 -14.30027344 12.29787109 -14.3515625 10.81640625 C-14.45050563 3.6430294 -14.45050563 3.6430294 -12.171875 0.390625 C-7.57889019 -2.550207 -4.98332683 -1.81211885 0 0 Z " fill="#000000" transform="translate(166,86)"/>
<path d="M0 0 C2.21717015 3.32575522 2.24543438 4.3360624 2.22705078 8.20581055 C2.22689972 9.26668381 2.22674866 10.32755707 2.22659302 11.420578 C2.21627045 12.56440445 2.20594788 13.7082309 2.1953125 14.88671875 C2.1924826 16.05886429 2.18965271 17.23100983 2.18673706 18.43867493 C2.17552753 22.18838643 2.15042128 25.93786049 2.125 29.6875 C2.11497121 32.2272101 2.10584519 34.76692393 2.09765625 37.30664062 C2.07558567 43.53784165 2.04210039 49.76890386 2 56 C2.93199219 55.96519531 3.86398438 55.93039063 4.82421875 55.89453125 C8.88469905 56.02938115 10.23811793 57.0802961 13 60 C14.16480195 63.02848506 14.14092583 64.50675958 13.25 67.625 C11.16897507 71.57894737 11.16897507 71.57894737 9 73 C5.3125 73.1875 5.3125 73.1875 2 73 C1.95875 73.928125 1.9175 74.85625 1.875 75.8125 C1 79 1 79 -1.625 81 C-5.85764814 82.25411797 -7.97207435 81.70412239 -12 80 C-14 77 -14 77 -14 73 C-15.0725 73.0825 -16.145 73.165 -17.25 73.25 C-21 73 -21 73 -23.375 71.3125 C-25.20829306 68.70358296 -25.8448278 67.18103014 -26 64 C-25.22362448 61.03565711 -24.37783439 59.39132848 -22.25 57.1875 C-19.38136103 55.6734961 -17.20157052 55.91689913 -14 56 C-14.00888245 55.34489441 -14.01776489 54.68978882 -14.0269165 54.01483154 C-14.1153505 47.20187091 -14.1757181 40.38907307 -14.21972656 33.57568359 C-14.23985272 31.03232197 -14.26715637 28.48900667 -14.30175781 25.94580078 C-14.3502297 22.29187596 -14.37295916 18.63856244 -14.390625 14.984375 C-14.41127014 13.84570984 -14.43191528 12.70704468 -14.45318604 11.53387451 C-14.45348816 10.47307678 -14.45379028 9.41227905 -14.45410156 8.31933594 C-14.46298401 7.38667908 -14.47186646 6.45402222 -14.48101807 5.49310303 C-13.84956175 2.22028279 -12.56844971 1.05802705 -10 -1 C-6.00471255 -2.33176248 -3.90144863 -1.41870859 0 0 Z " fill="#000000" transform="translate(118,86)"/>
</svg>
