<?xml version="1.0" encoding="UTF-8"?>
<svg version="1.1" xmlns="http://www.w3.org/2000/svg" width="512" height="512">
<path d="M0 0 C1.93487831 -0.01059839 1.93487831 -0.01059839 3.90884507 -0.02141088 C5.33318622 -0.01915971 6.75752708 -0.01671323 8.1818676 -0.01409245 C9.70054763 -0.01854625 11.21922535 -0.02386076 12.73789966 -0.02996117 C16.90837488 -0.04413478 21.07877554 -0.04580458 25.24927139 -0.04536426 C29.74843066 -0.04701305 34.24755926 -0.06008079 38.74670219 -0.07155704 C48.58361533 -0.09440212 58.42050688 -0.10232723 68.25744295 -0.10738349 C74.40149348 -0.1106413 80.54553775 -0.11716432 86.68958473 -0.12438488 C103.7058352 -0.14395072 120.72207985 -0.16035484 137.73834229 -0.16326141 C138.82716137 -0.16344898 139.91598045 -0.16363655 141.03779405 -0.16382981 C143.24503541 -0.16419605 145.45227677 -0.16455975 147.65951814 -0.16492092 C149.30300254 -0.16519514 149.30300254 -0.16519514 150.97968864 -0.16547489 C152.07668476 -0.16565544 153.17368088 -0.16583599 154.3039193 -0.16602201 C172.07519998 -0.16956289 189.84635943 -0.19658 207.61759807 -0.23397278 C225.86981276 -0.27206974 244.12196731 -0.291419 262.37422264 -0.29172093 C272.61946183 -0.29230521 282.86455643 -0.30077832 293.10975838 -0.32971859 C301.83460918 -0.35425109 310.55926265 -0.36150277 319.28413863 -0.34647106 C323.73329681 -0.33930965 328.18206548 -0.34012629 332.63117981 -0.36288166 C336.7101318 -0.38354332 340.78839661 -0.38080492 344.86734174 -0.36000682 C346.33708873 -0.35652557 347.80688603 -0.36136372 349.27656712 -0.37571125 C361.29291473 -0.48538867 371.88585451 1.67415725 380.78632927 10.26006222 C391.58823125 22.63271057 391.97768233 36.90367645 391.91337395 52.47832394 C391.91683521 54.31154248 391.92160291 56.14475893 391.92755568 57.97797108 C391.94003092 62.99004751 391.93391114 68.00195165 391.92459702 73.01402855 C391.91779261 78.42924231 391.92829467 83.84442703 391.93653679 89.25963497 C391.94986145 99.85798448 391.94700201 110.45627018 391.93829887 121.05462217 C391.93151775 129.6697994 391.93060746 138.28495877 391.93387032 146.9001379 C391.93433001 148.12730774 391.93478971 149.35447757 391.93526334 150.61883438 C391.93622254 153.1119752 391.93719518 155.60511601 391.93818112 158.09825683 C391.9467313 181.46453679 391.9369067 204.83078141 391.92078002 228.19705558 C391.90737718 248.23695652 391.90970538 268.27680258 391.9235363 288.31670284 C391.93959866 311.60061469 391.94590736 334.88449559 391.93669951 358.16841221 C391.93574388 360.65227031 391.93480077 363.13612842 391.93387032 365.61998653 C391.93340749 366.84202309 391.93294466 368.06405966 391.93246781 369.32312763 C391.9298799 377.92579097 391.93424465 386.52843464 391.94130898 395.13109493 C391.94973145 405.61795209 391.94742807 416.1047419 391.93146674 426.59159136 C391.92359415 431.93990281 391.92047525 437.28810205 391.9304142 442.63641262 C391.93938245 447.53656002 391.93439314 452.43649166 391.91848154 457.33661962 C391.91514276 459.10496663 391.91680738 460.87333204 391.92410891 462.64166713 C391.98021266 477.36370351 390.91599831 490.6573988 380.78632927 502.26006222 C371.2160713 511.49207822 359.92392027 513.00074243 347.14799309 512.8882513 C345.62270356 512.89330588 344.09741999 512.90054171 342.57214987 512.90974945 C338.41118474 512.92856899 334.25081238 512.91649682 330.08986282 512.89902651 C325.59083228 512.88560034 321.09188549 512.90110825 316.59286308 512.91284847 C307.79186756 512.93118949 298.99109464 512.92273682 290.19010614 512.90476025 C283.03609509 512.89071383 275.88214432 512.88684584 268.7281208 512.89020252 C267.70852561 512.89067996 266.68893042 512.89115741 265.63843841 512.89164932 C263.56694112 512.89267568 261.49544384 512.89373104 259.42394657 512.89481508 C241.1234724 512.90337476 222.82310547 512.88672996 204.52265739 512.85698605 C186.77554128 512.82814198 169.02857959 512.82107008 151.28144646 512.83647823 C131.94041533 512.8532473 112.59945745 512.85726805 93.2584244 512.83976787 C91.19531418 512.83792354 89.13220395 512.83608881 87.0690937 512.8342638 C86.05408399 512.83335171 85.03907427 512.83243962 83.99330669 512.83149989 C76.8489372 512.82589955 69.70460353 512.82919693 62.56023598 512.83580875 C53.85230499 512.84354794 45.14452589 512.83676796 36.43662547 512.81163371 C31.99584309 512.79915329 27.55529702 512.79297452 23.11450577 512.80417538 C19.04582229 512.81424379 14.97760924 512.80570315 10.90898283 512.7825942 C9.44080975 512.77745105 7.97259424 512.77896753 6.50443988 512.78798885 C-5.24017431 512.85412684 -14.17948454 510.93634749 -23.35820198 503.38506222 C-30.07682871 496.61666788 -34.65548478 488.22085418 -34.73922947 478.59252936 C-34.73349229 477.52394545 -34.73349229 477.52394545 -34.7276392 476.43377399 C-34.73144487 475.66054769 -34.73525054 474.88732138 -34.73917153 474.09066397 C-34.74948865 471.49629507 -34.74558092 468.90214492 -34.74173164 466.30776119 C-34.74618399 464.43022403 -34.75149802 462.55268876 -34.75760037 460.67515624 C-34.77179136 455.51274758 -34.77344345 450.3503991 -34.77300346 445.18797374 C-34.7746507 439.62132282 -34.78771553 434.05469676 -34.79919624 428.48805904 C-34.82205294 416.31444349 -34.82996763 404.14084535 -34.83502269 391.96721125 C-34.83827903 384.36582682 -34.84480115 376.76444747 -34.85202408 369.16306591 C-34.87159115 348.11670192 -34.88807593 327.07034193 -34.89090061 306.0239687 C-34.89099467 305.35088314 -34.89108873 304.67779757 -34.89118565 303.98431548 C-34.89156412 301.25664542 -34.89192812 298.52897535 -34.89228862 295.80130528 C-34.89256034 293.74833233 -34.89283702 291.69535938 -34.89311409 289.64238644 C-34.89320211 288.96400459 -34.89329014 288.28562275 -34.89338083 287.58668389 C-34.89628543 266.27773662 -34.91837413 244.96888012 -34.95463753 223.65996456 C-34.99538654 199.71467706 -35.01903977 175.76946056 -35.01936013 151.8241297 C-35.01994478 139.14762823 -35.02844235 126.47124356 -35.05735779 113.79477215 C-35.08186699 103.00032665 -35.08915759 92.20604056 -35.07411026 81.41157477 C-35.0669395 75.90525524 -35.0678064 70.39925053 -35.09052086 64.89296627 C-35.1111321 59.84813745 -35.10849011 54.80386504 -35.08764601 49.7590421 C-35.08415526 47.93801985 -35.0890435 46.11695728 -35.10335045 44.29598789 C-35.19906392 31.2698975 -33.95532229 19.92898743 -24.49101448 10.01006222 C-17.35906715 3.84189155 -9.49773201 0.01666081 0 0 Z M-13.46757698 22.26006222 C-21.14629983 31.39151642 -19.75265249 43.69162147 -19.72154427 54.90996456 C-19.72385021 56.71798166 -19.72702764 58.52599782 -19.73099875 60.33401203 C-19.73933694 65.29021729 -19.73522589 70.24634538 -19.72902632 75.20255089 C-19.72449886 80.55231336 -19.73148706 85.90206263 -19.73698616 91.25182247 C-19.74587864 101.72724259 -19.74395878 112.20263405 -19.73816088 122.67805529 C-19.73364383 131.19178248 -19.73303167 139.70550165 -19.73520851 148.2192297 C-19.73551498 149.43102001 -19.73582144 150.64281031 -19.7361372 151.89132154 C-19.73677665 154.35306216 -19.73742507 156.81480277 -19.73808238 159.27654338 C-19.74378525 182.35943719 -19.73722845 205.44231512 -19.72648165 228.52520633 C-19.71754618 248.33071312 -19.71909823 268.13619647 -19.72831917 287.94170284 C-19.73902255 310.94209396 -19.74323593 333.94247116 -19.73709464 356.94286442 C-19.73645754 359.39554119 -19.7358288 361.84821796 -19.73520851 364.30089474 C-19.73489996 365.50765374 -19.73459141 366.71441273 -19.73427351 367.95774019 C-19.73254677 376.46108514 -19.73546121 384.96442127 -19.74016762 393.46776485 C-19.74577719 403.83070021 -19.74425836 414.19360527 -19.73360613 424.55653715 C-19.72835049 429.84367732 -19.7262909 435.13076697 -19.73290443 440.41790676 C-19.73886813 445.2587603 -19.73558175 450.09951654 -19.72494933 454.94036126 C-19.7227171 456.69057629 -19.72384761 458.44079956 -19.72870091 460.19100928 C-20.17195393 476.95531043 -20.17195393 476.95531043 -12.46757698 491.26006222 C-4.09400606 498.30147413 6.53258023 497.55000944 16.87946892 497.5140295 C18.3286287 497.51633668 19.77778731 497.51951492 21.22694349 497.52348399 C25.19121835 497.53180537 29.15539646 497.52771884 33.11967158 497.52151155 C37.40194069 497.51697717 41.68419344 497.52397572 45.96645927 497.5294714 C54.34835998 497.53835651 62.73022484 497.53644731 71.11212695 497.53064612 C77.92533959 497.52612617 84.73854219 497.52551817 91.55175591 497.52769375 C93.00725672 497.52815345 93.00725672 497.52815345 94.4921616 497.52862243 C96.46348322 497.5292619 98.43480483 497.52991032 100.40612644 497.53056762 C118.88366605 497.53626833 137.36118581 497.52971708 155.83872217 497.51896688 C171.68731599 497.51003161 187.53588051 497.51158372 203.3844738 497.52080441 C221.79668488 497.5315116 240.20887856 497.53571903 258.62109232 497.52957988 C260.58509159 497.52894279 262.54909086 497.52831405 264.51309013 497.52769375 C265.47937154 497.5273852 266.44565294 497.52707665 267.4412156 497.52675875 C274.24487164 497.52503316 281.04851662 497.52794398 287.85217094 497.53265285 C296.14550339 497.53826667 304.43879799 497.53673468 312.73212612 497.52609137 C316.9620814 497.52084142 321.19197361 497.51876638 325.42192841 497.52538967 C329.29686992 497.53136524 333.1716901 497.52804756 337.04662067 497.51743457 C338.44555918 497.51520735 339.84450802 497.51632154 341.24343985 497.52118614 C355.99804169 497.60655305 355.99804169 497.60655305 368.80586052 491.04131222 C374.58410135 485.08005018 375.68413333 477.86848382 375.66385078 469.8901329 C375.66590342 469.14195273 375.66795605 468.39377255 375.67007089 467.62292024 C375.67575057 465.10178943 375.67428244 462.58071309 375.67286491 460.05957699 C375.675448 458.2393766 375.678461 456.41917678 375.68186831 454.59897774 C375.68994829 449.58589221 375.69172844 444.57282098 375.69246578 439.5597297 C375.69431461 434.15739216 375.70186109 428.75506208 375.708601 423.35272884 C375.722192 411.53455751 375.72821025 399.71638957 375.73261166 387.89821172 C375.73537282 380.52099139 375.73960995 373.14377237 375.74411583 365.76655293 C375.75630957 345.3473411 375.76660863 324.92813033 375.76999092 304.50891495 C375.77021049 303.20163532 375.77043005 301.89435569 375.77065627 300.54746152 C375.77087455 299.23702604 375.77109283 297.92659057 375.77131772 296.57644492 C375.77176119 293.92093519 375.77220775 291.26542546 375.77265739 288.60991573 C375.77287882 287.2926868 375.77310025 285.97545787 375.77332839 284.61831292 C375.77727681 263.27215997 375.7947317 241.92604547 375.81801692 220.57990501 C375.84172213 198.67218315 375.8541924 176.76447841 375.85535884 154.85674351 C375.85627607 142.5531333 375.86204059 130.24956756 375.88017845 117.94596958 C375.89556823 107.46945474 375.90070653 96.9929981 375.89244035 86.51647411 C375.88852986 81.17060906 375.88948296 75.82486125 375.9034977 70.47901058 C375.91621253 65.58426197 375.9150603 60.689719 375.90290698 55.79497077 C375.9009458 54.02508801 375.90404784 52.2551908 375.91275135 50.48532835 C376.03085656 36.04821275 376.03085656 36.04821275 370.34492302 22.94756222 C363.65578257 16.5557169 356.42725569 15.13747347 347.33757877 15.13142776 C346.10851093 15.12820332 344.87944308 15.12497887 343.61313075 15.12165672 C342.25746728 15.12312771 340.90180392 15.12469541 339.54614067 15.12634945 C338.09957104 15.12448054 336.65300192 15.12217952 335.20643359 15.11948413 C331.23540703 15.11336959 327.26440152 15.11349931 323.29337132 15.1146785 C319.00900773 15.1148826 314.72465089 15.10936293 310.44029045 15.10462093 C302.04796248 15.09631575 293.65564153 15.09356615 285.2633098 15.09300856 C278.44144614 15.09253334 271.61958479 15.0904783 264.79772186 15.08730793 C245.45528808 15.07850176 226.11285984 15.0738885 206.77042403 15.0746384 C205.20640625 15.07469834 205.20640625 15.07469834 203.61079216 15.07475948 C202.56684018 15.07480036 201.5228882 15.07484124 200.44730131 15.07488336 C183.52762028 15.07528984 166.60796151 15.06571988 149.68828692 15.05162112 C132.31411127 15.03725789 114.93994647 15.0303509 97.56576473 15.03121489 C87.81195722 15.03154688 78.05817304 15.0287991 68.30437088 15.01803684 C59.99999007 15.00893256 51.69564316 15.00675601 43.39125951 15.01354627 C39.15524672 15.01681181 34.91929899 15.01686689 30.68329239 15.00819302 C26.80268416 15.00032867 22.92219259 15.00175878 19.04158721 15.01047715 C17.64053846 15.01201228 16.23948101 15.01019549 14.83844253 15.00461707 C-0.54037701 14.85103251 -0.54037701 14.85103251 -13.46757698 22.26006222 Z " fill="#000000" transform="translate(77.46757698059082,-0.26006221771240234)"/>
<path d="M0 0 C0.75869385 0.63542725 0.75869385 0.63542725 1.53271484 1.28369141 C26.35974633 22.1943904 40.95610401 52.00279936 44.68359375 84.0390625 C46.30593041 104.34831398 43.94959953 123.83658333 37 143 C36.63132812 144.03253906 36.26265625 145.06507813 35.8828125 146.12890625 C30.85166773 159.15783632 23.17086585 170.54199508 14 181 C13.32710937 181.81726563 12.65421875 182.63453125 11.9609375 183.4765625 C2.01430955 195.21134829 -10.38389178 204.01939152 -24 211 C-25.05703125 211.54269531 -26.1140625 212.08539063 -27.203125 212.64453125 C-57.74325634 227.50087593 -93.22492053 229.066019 -125.24707031 218.03417969 C-139.94790053 212.63781194 -153.09327878 205.15103847 -165 195 C-165.94101563 194.22140625 -166.88203125 193.4428125 -167.8515625 192.640625 C-191.71553135 172.07055608 -206.66431797 141.07810042 -209.7578125 109.890625 C-212.07483031 72.66885505 -201.12392873 39.40014905 -176.71899414 11.09960938 C-155.88782377 -12.26636348 -125.07284803 -27.22389939 -93.921875 -29.8359375 C-59.52850819 -31.76711585 -26.44511161 -22.63257914 0 0 Z M-154 12 C-154.72703125 12.57363281 -155.4540625 13.14726562 -156.203125 13.73828125 C-161.94795729 18.47663702 -166.47473435 24.11387548 -171 30 C-171.91265625 31.17175781 -171.91265625 31.17175781 -172.84375 32.3671875 C-190.189261 55.78362734 -196.77680033 85.14739612 -193.05053711 113.82885742 C-190.9351903 127.96453101 -185.95616315 140.57976034 -179 153 C-178.45601562 153.97453125 -177.91203125 154.9490625 -177.3515625 155.953125 C-162.11002917 181.38046353 -136.85446256 198.73598613 -108.41796875 206.22265625 C-79.14443489 212.88029424 -48.49587338 208.03914238 -23 192 C-18.82552412 189.19162389 -14.88265436 186.19810924 -11 183 C-10.06414062 182.22914063 -9.12828125 181.45828125 -8.1640625 180.6640625 C8.95111666 165.8500839 19.91807761 146.02173112 25.75 124.3125 C26.06650513 123.13651245 26.06650513 123.13651245 26.3894043 121.93676758 C33.25667808 95.11861221 28.01193896 65.6522108 14.3515625 41.8359375 C10.97923729 36.21910847 7.19322526 31.04041339 3 26 C2.23042969 25.06671875 1.46085938 24.1334375 0.66796875 23.171875 C-17.35977516 2.31910499 -45.08338331 -11.80025827 -72.671875 -13.90625 C-73.44015625 -13.9371875 -74.2084375 -13.968125 -75 -14 C-76.05703125 -14.0515625 -77.1140625 -14.103125 -78.203125 -14.15625 C-106.35454429 -14.87500964 -132.24061894 -5.67145001 -154 12 Z " fill="#000000" transform="translate(338,252)"/>
<path d="M0 0 C19.34673318 15.2379333 33.13724064 37.20785621 36.15234375 61.9375 C37.49316357 89.90731817 32.22011597 114.6191831 13.5546875 136.34765625 C-1.77399279 152.87272135 -23.3683636 165.80709189 -46.38647461 167.07763672 C-63.79617239 167.66315487 -78.5328952 166.2597511 -94.59765625 159.5 C-95.25386963 159.22406006 -95.91008301 158.94812012 -96.58618164 158.66381836 C-100.83546007 156.73908321 -103.86226915 154.52220496 -106.84765625 150.9375 C-107.47773318 146.94701279 -107.47787512 144.92064143 -105.28515625 141.5 C-101.91251988 139.33805361 -99.82484825 139.62062464 -95.84765625 139.9375 C-93.19250858 140.95335839 -90.75847637 142.00378096 -88.22265625 143.25 C-70.57742563 151.32397451 -50.3592895 153.06129047 -31.7890625 146.66943359 C-11.6842187 139.08966476 4.04974965 125.57809727 13.15234375 105.9375 C20.93954822 86.76220594 22.33903735 65.28454558 14.32275391 45.93505859 C10.24639661 36.52519098 5.24467899 28.42249048 -1.84765625 20.9375 C-2.51023437 20.23367188 -3.1728125 19.52984375 -3.85546875 18.8046875 C-19.56760066 3.57049116 -40.08150744 -1.65397455 -61.3828125 -1.33203125 C-80.57476987 -0.65576544 -98.55531408 8.23192439 -111.84765625 21.9375 C-126.31644476 38.2176483 -133.01343291 57.45400008 -132.22265625 78.98046875 C-131.26945938 94.33587453 -126.11633206 109.46276914 -116.34765625 121.5 C-114.14670847 124.22412389 -113.83742591 124.99888206 -113.22265625 128.6875 C-113.84765625 131.9375 -113.84765625 131.9375 -115.34765625 134.375 C-118.17021506 136.13909926 -120.42719801 136.76498721 -123.7734375 136.5546875 C-130.78049897 134.46972382 -134.64698706 125.39850596 -137.99682617 119.4230957 C-149.63703724 97.84716364 -152.91256639 71.60229298 -145.84765625 47.9375 C-137.91220377 23.6986416 -122.42713753 4.07756873 -99.84765625 -8.0625 C-67.2885091 -24.51343751 -29.55698388 -21.40752742 0 0 Z " fill="#000000" transform="translate(311.84765625,275.0625)"/>
<path d="M0 0 C4.77392354 3.83969785 4.77392354 3.83969785 5.55566406 6.55810547 C5.73066028 9.92299956 5.19422126 12.20477333 3.41577148 15.05029297 C0.04821322 17.12263651 -2.10398482 16.88936776 -6.02172852 16.55029297 C-9.17016602 14.97607422 -9.17016602 14.97607422 -12.39672852 12.86279297 C-28.98129582 2.80125052 -48.16817469 0.60518655 -67.02172852 5.11279297 C-86.68653783 11.30677476 -102.16492135 23.00958573 -111.83422852 41.36279297 C-119.42111677 57.70106861 -122.68099864 77.00375525 -117.18969727 94.66357422 C-108.7344386 115.561354 -96.0546592 131.43368541 -75.02172852 140.55029297 C-57.43699142 147.31816731 -38.50445644 147.23600588 -21.10766602 139.94873047 C-19.58012695 139.25650391 -19.58012695 139.25650391 -18.02172852 138.55029297 C-16.61793945 137.91994141 -16.61793945 137.91994141 -15.18579102 137.27685547 C1.20564076 129.15158986 12.51046982 114.38678919 18.97827148 97.55029297 C24.6096629 80.45814012 24.15531777 62.14449392 16.97827148 45.55029297 C15.14735829 42.20134416 13.2700294 38.90740018 11.27124023 35.65576172 C9.67131953 31.81305187 10.0154592 29.55152794 10.97827148 25.55029297 C12.54728783 23.19676846 13.65164558 22.67388115 16.29077148 21.67529297 C20.0703733 21.49949754 21.78915536 22.50670416 24.97827148 24.55029297 C26.87745845 27.0030579 28.23339362 29.64935179 29.60327148 32.42529297 C29.9900708 33.1897876 30.37687012 33.95428223 30.77539062 34.74194336 C41.28717462 56.05286464 42.69902902 80.51784787 35.29077148 103.11279297 C27.32237435 125.70548466 10.74910743 143.61934694 -10.64208984 154.12573242 C-33.52663834 164.90707552 -57.67487087 164.55782082 -81.19750977 156.45654297 C-93.10651685 151.8844728 -102.97901175 144.43974335 -112.02172852 135.55029297 C-112.72040039 134.86451172 -113.41907227 134.17873047 -114.13891602 133.47216797 C-122.87683878 124.29224912 -128.85477731 112.43557425 -133.02172852 100.55029297 C-133.34141602 99.65181641 -133.66110352 98.75333984 -133.99047852 97.82763672 C-140.56059566 75.22765042 -136.27385218 49.87865813 -125.1809082 29.52539062 C-121.99714298 24.10065165 -118.13757276 19.28914746 -114.02172852 14.55029297 C-113.05299805 13.43074219 -113.05299805 13.43074219 -112.06469727 12.28857422 C-84.55205408 -17.19339501 -33.16806987 -23.78360088 0 0 Z " fill="#000000" transform="translate(304.021728515625,45.44970703125)"/>
<path d="M0 0 C10.21876539 9.51588735 16.56616563 23.39018359 17.515625 37.28515625 C17.76667533 53.83355717 13.09537668 68.04346453 1.69116211 80.14672852 C-8.97058911 90.87995117 -22.67349762 96.33377936 -37.75 96.5625 C-53.52402165 96.36554854 -67.04616229 90.68364109 -78.46875 79.76171875 C-88.5165002 68.67027619 -94.41161201 53.85144152 -93.9296875 38.8046875 C-92.34412949 22.48878412 -86.10130246 7.99947904 -73.37890625 -2.61328125 C-50.57124288 -19.65516732 -21.65024087 -17.88339153 0 0 Z M-65.375 12.6875 C-73.3782815 21.77230603 -78.1995909 30.43639582 -77.9609375 42.91796875 C-76.62031478 54.65799345 -71.42698552 64.63884776 -62.375 72.1875 C-53.36886328 78.726202 -43.66107454 81.10154531 -32.6875 80.3125 C-20.93293896 78.22043635 -11.70662468 71.83381265 -4.6875 62.3125 C0.90154994 53.6295117 2.77700744 43.28425697 0.66015625 33.20703125 C-2.53389434 21.51379023 -8.3023683 12.74546461 -18.6875 6.3125 C-34.83950219 -2.53200203 -52.01429303 0.88036361 -65.375 12.6875 Z " fill="#000000" transform="translate(293.6875,78.6875)"/>
<path d="M0 0 C8.00616445 5.69566061 13.51658945 12.96061697 15.703125 22.59375 C16.70291584 34.72108304 15.63747884 43.97941904 7.79296875 53.44921875 C1.30447459 60.10750528 -5.56616629 64.06094897 -14.91015625 64.9296875 C-26.54212146 65.05251712 -35.76744672 62.86637829 -44.296875 54.59375 C-46.62431725 51.74909837 -48.51856039 48.80690412 -50.296875 45.59375 C-50.63847656 44.99046875 -50.98007813 44.3871875 -51.33203125 43.765625 C-54.71507169 36.52749197 -54.41632707 27.30556805 -52.60546875 19.68359375 C-49.03585625 10.02024945 -43.25984963 3.55429286 -34.296875 -1.40625 C-33.69359375 -1.74785156 -33.0903125 -2.08945312 -32.46875 -2.44140625 C-22.54073172 -7.08167566 -9.17826463 -5.61934569 0 0 Z M-34.7421875 19.45703125 C-37.51439751 24.29385921 -38.2437882 29.11313117 -37.296875 34.59375 C-35.25286251 40.76950967 -32.08996204 44.36490612 -26.46875 47.66796875 C-21.64931894 49.72229458 -15.86491175 49.52325825 -10.9765625 47.75390625 C-5.92095465 44.89931399 -2.31970845 41.068391 -0.296875 35.59375 C0.687953 30.05611062 0.46192316 25.19209362 -2.296875 20.21875 C-5.88810772 15.34350111 -9.93724611 12.24384067 -15.94140625 11.08203125 C-23.84733667 10.58445521 -29.84633357 13.14534929 -34.7421875 19.45703125 Z " fill="#000000" transform="translate(274.296875,319.40625)"/>
<path d="M0 0 C5.22673668 5.17731128 7.29409112 10.7675903 7.96484375 18.01171875 C7.28178057 25.93525163 4.73478421 32.3506249 -1.34765625 37.63671875 C-7.69358758 41.95930966 -14.24221904 43.34447033 -21.78515625 42.07421875 C-27.94972287 40.44524001 -33.08204402 37.55719325 -37.0234375 32.4765625 C-40.87211953 25.80912743 -41.46833067 19.18506298 -40.34765625 11.63671875 C-38.36169522 4.72861509 -34.93534058 0.36586872 -28.73046875 -3.23828125 C-18.84169875 -7.90707758 -8.50703199 -7.18487569 0 0 Z M-22.34765625 12.63671875 C-24.69579359 14.56839273 -24.69579359 14.56839273 -24.72265625 18.01171875 C-24.657366 21.63680958 -24.657366 21.63680958 -22.59765625 24.01171875 C-19.7372756 26.11899323 -19.7372756 26.11899323 -16.34765625 26.63671875 C-13.17794847 25.43222979 -10.99320625 24.47874049 -8.91015625 21.76171875 C-8.16527628 18.94772775 -8.38541781 17.38597144 -9.34765625 14.63671875 C-11.17269299 12.3711559 -12.66750608 10.96582367 -15.28515625 9.69921875 C-18.31749894 9.60732958 -19.91988463 10.91172312 -22.34765625 12.63671875 Z " fill="#000000" transform="translate(427.34765625,436.36328125)"/>
<path d="M0 0 C5.22673668 5.17731128 7.29409112 10.7675903 7.96484375 18.01171875 C7.28178057 25.93525163 4.73478421 32.3506249 -1.34765625 37.63671875 C-7.69358758 41.95930966 -14.24221904 43.34447033 -21.78515625 42.07421875 C-27.94972287 40.44524001 -33.08204402 37.55719325 -37.0234375 32.4765625 C-40.87211953 25.80912743 -41.46833067 19.18506298 -40.34765625 11.63671875 C-38.36169522 4.72861509 -34.93534058 0.36586872 -28.73046875 -3.23828125 C-18.84169875 -7.90707758 -8.50703199 -7.18487569 0 0 Z M-22.34765625 12.63671875 C-24.69579359 14.56839273 -24.69579359 14.56839273 -24.72265625 18.01171875 C-24.657366 21.63680958 -24.657366 21.63680958 -22.59765625 24.01171875 C-19.7372756 26.11899323 -19.7372756 26.11899323 -16.34765625 26.63671875 C-13.17794847 25.43222979 -10.99320625 24.47874049 -8.91015625 21.76171875 C-8.16527628 18.94772775 -8.38541781 17.38597144 -9.34765625 14.63671875 C-11.17269299 12.3711559 -12.66750608 10.96582367 -15.28515625 9.69921875 C-18.31749894 9.60732958 -19.91988463 10.91172312 -22.34765625 12.63671875 Z " fill="#000000" transform="translate(427.34765625,39.36328125)"/>
<path d="M0 0 C5.52988504 5.06475452 6.6115805 11.74318694 7 19 C6.66514099 25.89161453 3.90212795 31.19214374 -1 36 C-7.14019427 40.65131258 -13.3700148 42.52069227 -21.02734375 41.8125 C-27.54412735 40.57366589 -33.52129404 37.13223652 -37.64453125 31.921875 C-41.46919077 25.61724893 -42.81969838 19.27093938 -41.4375 12 C-39.60726071 5.85825742 -35.99493732 0.72894567 -31.1875 -3.4375 C-19.87578123 -8.98246018 -9.9281243 -7.63701869 0 0 Z M-24 12 C-25.75 14.75 -25.75 14.75 -26 18 C-24.7760971 21.97768442 -23.84299722 23.53166821 -20.1875 25.5625 C-16.04460316 26.1311329 -14.36573297 25.4478058 -11 23 C-9.25 20.25 -9.25 20.25 -9 17 C-10.2239029 13.02231558 -11.15700278 11.46833179 -14.8125 9.4375 C-18.95539684 8.8688671 -20.63426703 9.5521942 -24 12 Z " fill="#000000" transform="translate(118,437)"/>
<path d="M0 0 C5.52988504 5.06475452 6.6115805 11.74318694 7 19 C6.66514099 25.89161453 3.90212795 31.19214374 -1 36 C-7.14019427 40.65131258 -13.3700148 42.52069227 -21.02734375 41.8125 C-27.54412735 40.57366589 -33.52129404 37.13223652 -37.64453125 31.921875 C-41.46919077 25.61724893 -42.81969838 19.27093938 -41.4375 12 C-39.60726071 5.85825742 -35.99493732 0.72894567 -31.1875 -3.4375 C-19.87578123 -8.98246018 -9.9281243 -7.63701869 0 0 Z M-24 12 C-25.75 14.75 -25.75 14.75 -26 18 C-24.7760971 21.97768442 -23.84299722 23.53166821 -20.1875 25.5625 C-16.04460316 26.1311329 -14.36573297 25.4478058 -11 23 C-9.25 20.25 -9.25 20.25 -9 17 C-10.2239029 13.02231558 -11.15700278 11.46833179 -14.8125 9.4375 C-18.95539684 8.8688671 -20.63426703 9.5521942 -24 12 Z " fill="#000000" transform="translate(118,40)"/>
<path d="M0 0 C4.93168029 3.77348265 8.00434648 8.86467946 9.234375 14.93359375 C10.05985099 21.88924388 8.74373615 27.86446328 5.234375 33.93359375 C1.00023773 38.92232974 -4.56965134 42.43833129 -11.1484375 43.21484375 C-18.56280809 43.48693074 -23.94184129 41.88852094 -30.015625 37.68359375 C-35.13904554 32.56017321 -37.52771343 27.44278939 -38.015625 20.24609375 C-37.91231879 13.32457786 -35.70080294 6.86877169 -30.765625 1.93359375 C-21.41216589 -5.34131889 -10.16024654 -6.13660908 0 0 Z M-19.765625 13.93359375 C-21.67264275 16.47628409 -21.77150259 17.78959268 -21.640625 20.99609375 C-20.97358205 23.94610939 -20.97358205 23.94610939 -19.140625 25.87109375 C-15.65242746 27.43160318 -13.40129602 26.92514039 -9.765625 25.93359375 C-7.61779829 24.37561493 -7.61779829 24.37561493 -6.765625 21.93359375 C-6.89436457 18.7794744 -7.21355265 16.73409865 -9.015625 14.12109375 C-12.75760813 11.58189091 -16.06182383 11.25153083 -19.765625 13.93359375 Z " fill="#000000" transform="translate(269.765625,100.06640625)"/>
</svg>
