<?xml version="1.0" encoding="UTF-8"?>
<svg version="1.1" xmlns="http://www.w3.org/2000/svg" width="512" height="512">
<path d="M0 0 C13.47481205 12.45800768 13.47481205 12.45800768 14.0625 18.6875 C13.68790854 23.10767921 12.58614013 25.00229281 9.75 28.375 C6.85011632 30.72625704 5.09059803 31.3308484 1.375 31.8125 C-6.48316909 30.86410028 -10.42155776 26.33672612 -15.71655273 20.86035156 C-21.39986501 15.05976913 -27.76122924 10.23261568 -34.25 5.375 C-34.79462891 4.95895508 -35.33925781 4.54291016 -35.90039062 4.11425781 C-85.61905608 -33.79096415 -151.6133201 -49.22587526 -213.25732422 -41.10375977 C-256.25814958 -34.713076 -297.35477577 -18.06179743 -331.25 9.375 C-331.8466748 9.85743164 -332.44334961 10.33986328 -333.05810547 10.83691406 C-338.50305148 15.27464205 -343.77314232 19.78147891 -348.625 24.875 C-352.00087865 28.32165179 -354.56497556 30.09726606 -359.25 31.375 C-365.33868732 31.375 -368.0630883 29.46222332 -372.25 25.375 C-374.15070459 21.57359082 -373.98222786 17.49605099 -373.25 13.375 C-371.35709719 10.2239066 -368.91814508 7.88000406 -366.25 5.375 C-365.70988281 4.80265625 -365.16976562 4.2303125 -364.61328125 3.640625 C-359.61252903 -1.63861947 -353.96177055 -6.14541259 -348.25 -10.625 C-347.37359863 -11.31601807 -347.37359863 -11.31601807 -346.47949219 -12.02099609 C-308.90015191 -41.47161174 -265.18583023 -58.96975423 -218.25 -66.625 C-217.46512207 -66.75777344 -216.68024414 -66.89054687 -215.87158203 -67.02734375 C-139.25097337 -79.42313411 -56.72764066 -51.85240205 0 0 Z " fill="#000000" transform="translate(436.25,176.625)"/>
<path d="M0 0 C1.1653125 0.61359375 2.330625 1.2271875 3.53125 1.859375 C16.10426702 8.71223563 27.49386467 17.33932984 37.94921875 27.109375 C39.72137389 28.74313327 41.52891104 30.22006907 43.4375 31.6875 C46.38850612 34.35060309 47.7416935 36.22508049 49 40 C49 44.8301229 48.60896787 47.66783501 45.5625 51.4375 C42.37727473 54.62272527 40.76039032 55.2284588 36.375 55.5 C29.90079935 55.39840769 27.37508263 52.40567761 23 48 C-12.58532877 16.10932285 -58.1612763 -0.56097761 -106 2 C-146.42174211 4.96230023 -181.8299959 21.28581377 -212.1953125 47.58984375 C-221.2487971 55.36978804 -221.2487971 55.36978804 -227.8984375 55.28515625 C-231.33769673 54.81849096 -233.41146518 53.21874413 -236 51 C-238.57592404 46.78324764 -238.6565605 42.81477703 -238 38 C-235.30881272 32.39335984 -230.69972907 28.89714808 -226 25 C-225.12214844 24.23558594 -224.24429688 23.47117188 -223.33984375 22.68359375 C-161.88023403 -30.17332497 -70.87102238 -38.49689445 0 0 Z " fill="#000000" transform="translate(351,202)"/>
<path d="M0 0 C0.7007666 0.00054382 1.4015332 0.00108765 2.12353516 0.00164795 C35.28875075 0.11955614 64.57273429 12.36394136 89.0390625 34.796875 C92.42330175 38.3422685 94.33948522 40.9036145 94.875 45.8125 C94.35570103 50.74584018 93.1295611 53.93715197 89.375 57.25 C85.27727281 58.85345846 81.83315518 59.26198814 77.5 58.375 C73.76977035 56.39769782 70.81301365 53.6059503 67.75 50.734375 C47.4598977 32.01850477 20.75054552 25.25496058 -6.21484375 25.99609375 C-29.83643059 27.12973091 -52.33559924 37.00804051 -69.31640625 53.4296875 C-73.92788232 57.53794346 -77.26813042 58.89877885 -83.3515625 58.65625 C-86.43603555 58.25246444 -88.1661568 57.43427341 -90.5 55.375 C-93.38402967 50.99923085 -94.14987517 47.57400136 -93.5 42.375 C-81.29172726 21.71484613 -53.81429465 9.61781608 -31.72265625 3.34765625 C-21.15512179 0.79004017 -10.86093569 -0.03184176 0 0 Z " fill="#000000" transform="translate(255.5,248.625)"/>
<path d="M0 0 C1.97819989 1.43095955 3.78860594 2.92811147 5.58984375 4.57421875 C6.45609375 5.33734375 7.32234375 6.10046875 8.21484375 6.88671875 C17.37068661 17.24727777 20.55862042 26.77350775 20.58984375 40.57421875 C19.91016357 50.79897275 14.90704864 61.42331397 7.58984375 68.57421875 C-2.59531825 77.1026446 -13.29683382 80.5551789 -26.515625 79.94921875 C-38.01815398 78.84165327 -47.84000258 73.91052739 -55.51171875 65.18359375 C-63.30603209 54.63639527 -66.11982897 43.9928183 -65.2265625 30.87890625 C-63.625882 20.61474884 -58.07922547 9.75644158 -49.66015625 3.51171875 C-35.08114097 -7.01005665 -15.95743334 -9.43997272 0 0 Z M-36.78515625 25.69921875 C-39.44074154 30.39756196 -40.93761227 35.40948265 -40.03515625 40.82421875 C-38.11028624 46.59882879 -34.72292208 50.04989582 -29.66015625 53.38671875 C-24.45206839 55.28967393 -20.08341169 55.80315608 -14.9375 53.4375 C-8.83649301 49.65785176 -6.34374159 46.17519078 -4.53515625 39.19921875 C-4.33199358 33.3075013 -5.99862821 29.29094204 -9.72265625 24.76171875 C-14.35338407 20.99252168 -18.19724334 18.96443123 -24.32421875 19.22265625 C-29.26652948 20.05562997 -33.09344886 22.39611214 -36.78515625 25.69921875 Z " fill="#000000" transform="translate(278.41015625,324.42578125)"/>
</svg>
