<?xml version="1.0" encoding="UTF-8"?>
<svg version="1.1" xmlns="http://www.w3.org/2000/svg" width="512" height="512">
<path d="M0 0 C1.01731201 0.48484863 1.01731201 0.48484863 2.05517578 0.97949219 C6.74849159 3.23470729 11.38926247 5.58066445 16 8 C16.6305127 8.3304834 17.26102539 8.6609668 17.91064453 9.00146484 C40.06832743 20.74736439 60.0745882 35.63843838 79 52 C79.59498291 52.50668213 80.18996582 53.01336426 80.80297852 53.53540039 C86.54429069 58.47294332 91.94353166 63.72523036 97.3125 69.0625 C98.20517578 69.93455078 99.09785156 70.80660156 100.01757812 71.70507812 C100.87416016 72.55650391 101.73074219 73.40792969 102.61328125 74.28515625 C103.38454346 75.04707275 104.15580566 75.80898926 104.95043945 76.59399414 C109.90541515 82.41070474 110.54140066 87.46668781 110.34765625 94.87109375 C109.71277535 100.58502181 107.32138363 103.99381106 103.0625 107.8125 C97.34127864 111.89908668 91.99158342 113.15385573 85 112 C77.57031941 109.12926478 72.94094362 104.3860806 67.5 98.6875 C61.86111113 92.86306181 56.21922845 87.20696528 50 82 C49.13109131 81.2716394 49.13109131 81.2716394 48.24462891 80.52856445 C3.31271699 43.32915095 -50.01645294 19.38118688 -108 12 C-108.8465918 11.88430664 -109.69318359 11.76861328 -110.56542969 11.64941406 C-154.30885777 5.79262612 -199.20635987 11.53379306 -241 25 C-241.8971875 25.28681641 -242.794375 25.57363281 -243.71875 25.86914062 C-288.10651939 40.32780374 -328.83929892 66.79466463 -361.23828125 100.3203125 C-361.76542725 100.86308838 -362.29257324 101.40586426 -362.83569336 101.96508789 C-363.82697793 102.9937913 -364.80909198 104.03145214 -365.77954102 105.07983398 C-369.75002878 109.21035925 -373.68387553 111.44275997 -379.37109375 112.3984375 C-385.75161053 112.32606869 -391.20250279 111.59728948 -396.01953125 107.125 C-400.57064153 102.08262934 -402.16541509 98.68849731 -402.375 91.8125 C-402.42398437 90.72582031 -402.47296875 89.63914062 -402.5234375 88.51953125 C-401.13927266 79.21257212 -393.39008759 72.95262719 -386.97314453 66.63696289 C-385.39052584 65.07779577 -383.8215093 63.50588814 -382.25390625 61.93164062 C-375.82395077 55.51923987 -369.14088996 49.62398063 -362 44 C-361.24992676 43.39583252 -360.49985352 42.79166504 -359.72705078 42.16918945 C-338.90571909 25.40528716 -316.17548561 11.41129978 -292 0 C-291.32743164 -0.32033203 -290.65486328 -0.64066406 -289.96191406 -0.97070312 C-199.89892473 -43.52747497 -89.78717371 -42.87385634 0 0 Z " fill="#000000" transform="translate(402,77)"/>
<path d="M0 0 C12.29373546 11.25625652 12.29373546 11.25625652 13.46875 19.1484375 C13.5394707 26.45035008 12.98450071 31.46925264 8 37 C3.43574061 41.33604642 -0.56567365 43.08844833 -6.8125 43.375 C-14.15996983 43.17906747 -18.72749972 40.4800155 -23.8125 35.3125 C-24.47121094 34.61769531 -25.12992187 33.92289062 -25.80859375 33.20703125 C-29.88634661 29.1002035 -34.48326726 25.6070246 -39 22 C-39.79148437 21.34128906 -40.58296875 20.68257813 -41.3984375 20.00390625 C-82.26412793 -13.73404747 -136.30529001 -30.45008381 -189.0703125 -25.50390625 C-228.30933187 -21.11167617 -265.01271127 -6.53351073 -296 18 C-296.80050781 18.6084375 -297.60101563 19.216875 -298.42578125 19.84375 C-302.3687426 22.88970378 -306.10735553 26.06827826 -309.7109375 29.5078125 C-310.69549927 30.44620972 -310.69549927 30.44620972 -311.69995117 31.40356445 C-312.9956048 32.64797124 -314.28271652 33.90135223 -315.55981445 35.16479492 C-320.65066126 40.07195489 -325.57147982 43.42524373 -332.9375 43.4375 C-338.73011016 43.23502275 -343.30701683 41.56278806 -347.53515625 37.5390625 C-352.72498518 31.57756805 -353.5325454 27.01753865 -353.359375 19.2421875 C-352.11580666 8.02303834 -340.03907973 -0.5923423 -331.875 -7.375 C-329.92473154 -8.92685647 -327.9653655 -10.46730825 -326 -12 C-325.36255859 -12.50321777 -324.72511719 -13.00643555 -324.06835938 -13.52490234 C-315.02974744 -20.65117441 -305.99017197 -27.25565112 -296 -33 C-294.78102178 -33.72227121 -293.56228129 -34.44494378 -292.34375 -35.16796875 C-265.17653163 -51.09048894 -235.12413295 -61.4343566 -204 -66 C-203.13826172 -66.12842285 -202.27652344 -66.2568457 -201.38867188 -66.38916016 C-127.41026284 -76.8591844 -54.59192652 -49.17866458 0 0 Z " fill="#000000" transform="translate(426,229)"/>
<path d="M0 0 C5.49571927 4.82258587 9.02857052 9.03955673 10.8125 16.3125 C11.15648986 23.0776339 10.16198353 28.04810444 5.8125 33.375 C1.18042815 38.15956804 -3.2990583 40.10253276 -9.9375 40.4375 C-17.58284016 40.13768274 -22.07235476 36.98526699 -27.5625 31.875 C-46.01329578 14.79819965 -70.94511554 4.20175766 -96.24584961 4.52905273 C-110.82718129 5.12650541 -124.05402473 9.48829228 -137 16 C-138.18207031 16.58523438 -139.36414063 17.17046875 -140.58203125 17.7734375 C-148.21951191 21.83647435 -154.45983775 26.62632572 -160.76391602 32.52001953 C-166.74501995 38.02995523 -172.21856161 40.6374021 -180.5078125 40.34765625 C-186.03089069 39.5771955 -190.22801629 37.1892466 -193.875 33 C-198.5344659 26.42193049 -198.87852889 21.01295584 -198 13 C-194.26399233 1.01972961 -177.92001126 -8.63324461 -168 -15 C-167.06929687 -15.60457031 -166.13859375 -16.20914062 -165.1796875 -16.83203125 C-111.17864018 -50.15022618 -47.00713818 -39.73073363 0 0 Z " fill="#000000" transform="translate(349,315)"/>
<path d="M0 0 C6.45022634 5.66361337 11.47918489 13.1474054 12.40625 21.78515625 C12.8110912 33.00541518 10.94513003 41.21057948 3.4375 50 C2.633125 50.66 1.82875 51.32 1 52 C0.21625 52.70125 -0.5675 53.4025 -1.375 54.125 C-8.92789085 59.51992203 -16.95605898 60.73506632 -26 60 C-35.29690234 58.1433499 -42.80216655 53.96917358 -48.3515625 46.078125 C-54.11289841 37.11604692 -55.45278996 28.53092028 -54 18 C-51.82134107 11.27457459 -48.51288695 5.52339442 -43 1 C-42.21625 0.29875 -41.4325 -0.4025 -40.625 -1.125 C-28.47824518 -9.80125344 -11.6718099 -9.22887295 0 0 Z " fill="#000000" transform="translate(276,407)"/>
</svg>
