<?xml version="1.0" encoding="UTF-8"?>
<svg version="1.1" xmlns="http://www.w3.org/2000/svg" width="512" height="512">
<path d="M0 0 C0.90250488 0.1556543 1.80500977 0.31130859 2.73486328 0.47167969 C44.70720538 7.88770628 83.94282986 26.2470337 117 53 C117.53915039 53.43473633 118.07830078 53.86947266 118.63378906 54.31738281 C133.46106404 66.38039886 147.41958611 79.83616298 158.73339844 95.28027344 C160.05282133 97.07171809 161.40252371 98.83712992 162.7578125 100.6015625 C169.15390711 109.01062426 174.69806629 117.758701 179.86083984 126.97265625 C180.90765887 128.83566208 181.97678881 130.68383639 183.05078125 132.53125 C195.33810382 154.39726692 203.25783627 178.87950831 208.3125 203.375 C208.45993652 204.08567627 208.60737305 204.79635254 208.75927734 205.52856445 C211.74463787 221.17108366 212.3748098 236.80669606 212.3125 252.6875 C212.30976578 254.13858658 212.30976578 254.13858658 212.30697632 255.61898804 C212.26154826 269.95190977 211.75266072 283.89773917 209 298 C208.83902832 298.89702637 208.67805664 299.79405273 208.51220703 300.71826172 C197.70064043 360.46748615 164.0775709 416.69015896 116 454 C115.06542969 454.763125 114.13085938 455.52625 113.16796875 456.3125 C99.36401223 467.36984129 84.00721343 476.63111422 67.97460938 484.08056641 C66.63571736 484.70399214 65.30116442 485.33680646 63.97070312 485.97802734 C43.70738663 495.74342377 22.10736632 502.04321852 0 506 C-1.3317627 506.24556641 -1.3317627 506.24556641 -2.69042969 506.49609375 C-30.18313306 511.35069734 -60.56811881 511.00951828 -88 506 C-89.35375732 505.76651855 -89.35375732 505.76651855 -90.73486328 505.52832031 C-132.70720538 498.11229372 -171.94282986 479.7529663 -205 453 C-205.53915039 452.56526367 -206.07830078 452.13052734 -206.63378906 451.68261719 C-221.46106404 439.61960114 -235.41958611 426.16383702 -246.73339844 410.71972656 C-248.05282133 408.92828191 -249.40252371 407.16287008 -250.7578125 405.3984375 C-257.15390711 396.98937574 -262.69806629 388.241299 -267.86083984 379.02734375 C-268.90765887 377.16433792 -269.97678881 375.31616361 -271.05078125 373.46875 C-283.33810382 351.60273308 -291.25783627 327.12049169 -296.3125 302.625 C-296.45993652 301.91432373 -296.60737305 301.20364746 -296.75927734 300.47143555 C-299.74463787 284.82891634 -300.3748098 269.19330394 -300.3125 253.3125 C-300.31067719 252.34510895 -300.30885437 251.3777179 -300.30697632 250.38101196 C-300.26154826 236.04809023 -299.75266072 222.10226083 -297 208 C-296.75854248 206.65446045 -296.75854248 206.65446045 -296.51220703 205.28173828 C-285.70064043 145.53251385 -252.0775709 89.30984104 -204 52 C-203.06542969 51.236875 -202.13085938 50.47375 -201.16796875 49.6875 C-187.36401223 38.63015871 -172.00721343 29.36888578 -155.97460938 21.91943359 C-154.63571736 21.29600786 -153.30116442 20.66319354 -151.97070312 20.02197266 C-131.70738663 10.25657623 -110.10736632 3.95678148 -88 0 C-87.1121582 -0.16371094 -86.22431641 -0.32742188 -85.30957031 -0.49609375 C-57.81686694 -5.35069734 -27.43188119 -5.00951828 0 0 Z " fill="#32BEA6" transform="translate(300,3)"/>
<path d="M0 0 C4.44794495 1.52740751 8.06403434 3.93616552 11.875 6.625 C12.88276489 7.32786133 12.88276489 7.32786133 13.91088867 8.04492188 C15.41985803 9.09751097 16.92750987 10.15199046 18.43408203 11.20800781 C21.30098718 13.21020417 24.17911698 15.19561648 27.05859375 17.1796875 C29.14334211 18.61962816 31.22797813 20.05973148 33.3125 21.5 C34.82529541 22.54148193 34.82529541 22.54148193 36.36865234 23.60400391 C37.31562988 24.26062012 38.26260742 24.91723633 39.23828125 25.59375 C40.08430908 26.17833984 40.93033691 26.76292969 41.80200195 27.36523438 C43.72681045 28.7968147 45.36610882 30.25098999 47 32 C46.63350342 32.52207031 46.26700684 33.04414063 45.8894043 33.58203125 C39.32940598 42.93036141 32.78205563 52.28593396 26.3269043 61.70703125 C22.24564924 67.65735502 18.12412206 73.57933072 14 79.5 C9.48147467 85.98742408 4.97035379 92.47927581 0.5 99 C-7.30565165 110.3823175 -15.21419526 121.69348701 -23.10253906 133.01855469 C-30.01958046 142.95030289 -36.93493848 152.88246994 -43.77856445 162.86499023 C-48.51805041 169.77054532 -53.31079556 176.63896346 -58.09765625 183.51171875 C-61.91571524 188.9961033 -65.72152283 194.48827642 -69.5 200 C-74.65543632 207.52031536 -79.86660012 215.00146715 -85.07788086 222.4831543 C-89.53655097 228.88746466 -93.97226753 235.30683731 -98.38598633 241.7421875 C-101.89150742 246.85098791 -105.4322027 251.93445844 -109 257 C-113.76383207 254.35134681 -117.91897003 251.05009574 -122.1875 247.6875 C-123.80071167 246.42439029 -125.41399496 245.16137206 -127.02734375 243.8984375 C-127.85089355 243.25229492 -128.67444336 242.60615234 -129.52294922 241.94042969 C-133.42253431 238.8856394 -137.33712427 235.8502325 -141.25 232.8125 C-147.07471689 228.28493901 -152.88475287 223.73938297 -158.68164062 219.17626953 C-165.65988806 213.68737948 -172.6743916 208.24508327 -179.68554688 202.79833984 C-182.71126826 200.44734156 -185.73584364 198.0948721 -188.76025391 195.7421875 C-190.25197571 194.58185102 -191.74383744 193.42169441 -193.23583984 192.26171875 C-197.06338445 189.28575903 -200.88886474 186.30720366 -204.7109375 183.32421875 C-213.07878027 176.79733619 -221.47391084 170.31933667 -230 164 C-229.10875059 159.44231997 -226.46632947 156.55440172 -223.5625 153.0625 C-222.46122407 151.71306771 -221.36097979 150.36279289 -220.26171875 149.01171875 C-219.43486572 147.99924072 -219.43486572 147.99924072 -218.59130859 146.96630859 C-216.30362309 144.13951831 -214.0827467 141.2644135 -211.875 138.375 C-211.0809375 137.33730469 -210.286875 136.29960937 -209.46875 135.23046875 C-209.07042969 134.70888184 -208.67210937 134.18729492 -208.26171875 133.64990234 C-205.97306665 130.65711773 -203.67320171 127.6729532 -201.375 124.6875 C-200.52860074 123.58727428 -199.68224217 122.48701724 -198.8359375 121.38671875 C-198.23007813 120.59910156 -197.62421875 119.81148438 -197 119 C-192.70992676 120.43002441 -189.90119345 122.54731558 -186.5 125.5 C-181.85765688 129.46847777 -177.12586811 133.27023128 -172.26831055 136.97558594 C-171.71699463 137.39614258 -171.16567871 137.81669922 -170.59765625 138.25 C-170.02289551 138.68828125 -169.44813477 139.1265625 -168.85595703 139.578125 C-165.32617362 142.28234213 -161.82070158 145.01788253 -158.3125 147.75 C-157.55839844 148.3368457 -156.80429688 148.92369141 -156.02734375 149.52832031 C-152.05989175 152.61616408 -148.09405583 155.70607545 -144.12890625 158.796875 C-142.93430786 159.72741699 -142.93430786 159.72741699 -141.71557617 160.67675781 C-140.20613855 161.85256673 -138.69715251 163.0289557 -137.1887207 164.20605469 C-135.12995531 165.80946793 -133.06578044 167.40563873 -131 169 C-130.26426758 169.57363281 -129.52853516 170.14726562 -128.77050781 170.73828125 C-128.05475586 171.28871094 -127.33900391 171.83914063 -126.6015625 172.40625 C-125.95783691 172.90447266 -125.31411133 173.40269531 -124.65087891 173.91601562 C-123.0505216 175.18295568 -123.0505216 175.18295568 -121 175 C-119.54973919 173.27727944 -119.54973919 173.27727944 -118.0859375 170.99609375 C-117.49780273 170.12162598 -116.90966797 169.2471582 -116.30371094 168.34619141 C-115.34899902 166.90638916 -115.34899902 166.90638916 -114.375 165.4375 C-113.01409592 163.41203765 -111.65208063 161.38732157 -110.2890625 159.36328125 C-109.58297852 158.31221191 -108.87689453 157.26114258 -108.14941406 156.17822266 C-104.73253098 151.12586192 -101.24262137 146.12517046 -97.75 141.125 C-93.31353989 134.76339341 -88.88476562 128.39736306 -84.5 122 C-79.33958501 114.47225941 -74.12325585 106.98380642 -68.90673828 99.49487305 C-65.04404761 93.94678645 -61.19612863 88.38928233 -57.375 82.8125 C-52.69265178 75.97994957 -47.94292663 69.19569103 -43.18652344 62.41455078 C-39.2006549 56.72744998 -35.24961122 51.01801368 -31.32421875 45.2890625 C-27.24387058 39.34003313 -23.12322553 33.41936771 -19 27.5 C-12.63177363 18.35707873 -6.29704024 9.19207781 0 0 Z " fill="#FEFEFE" transform="translate(345,135)"/>
</svg>
